<svg width="100" height="100" version="1.1" xmlns="http://www.w3.org/2000/svg" xmlns:xlink="http://www.w3.org/1999/xlink" x="0px" y="0px"
	 viewBox="0 0 283.5 283.5" style="enable-background:new 0 0 283.5 283.5;" xml:space="preserve">
<path class="services" d="M194.8,105.4c-0.7-1-1.8-1.6-3.1-1.7l-76.7-3.3c-2.2-0.1-4,1.6-4.1,3.8c-0.1,2.2,1.6,4,3.8,4.1l71.5,3.1l-14.1,43.9h-62.6
	L98.2,93.7c-0.2-1.3-1.2-2.5-2.4-3l-18.5-7.3c-2-0.8-4.3,0.2-5.1,2.2c-0.8,2,0.2,4.3,2.2,5.1l16.5,6.5l11.5,62.6
	c0.3,1.9,2,3.2,3.9,3.2h1.9l-4.4,12.1c-0.4,1-0.2,2.1,0.4,3c0.6,0.9,1.6,1.4,2.7,1.4h3.1c-1.9,2.1-3.1,4.9-3.1,7.9
	c0,6.6,5.3,11.9,11.9,11.9c6.6,0,11.9-5.3,11.9-11.9c0-3.1-1.2-5.8-3.1-7.9h25.9c-1.9,2.1-3.1,4.9-3.1,7.9c0,6.6,5.3,11.9,11.9,11.9
	s11.9-5.3,11.9-11.9c0-3.1-1.2-5.8-3.1-7.9h3.7c1.8,0,3.3-1.5,3.3-3.3c0-1.8-1.5-3.3-3.3-3.3h-63.4l3.6-9.9H175
	c1.7,0,3.2-1.1,3.8-2.8l16.5-51.6C195.7,107.7,195.5,106.4,194.8,105.4L194.8,105.4z M118.8,193c-2.9,0-5.3-2.4-5.3-5.3
	c0-2.9,2.4-5.3,5.3-5.3c2.9,0,5.3,2.4,5.3,5.3C124.1,190.6,121.7,193,118.8,193L118.8,193z M162.4,193c-2.9,0-5.3-2.4-5.3-5.3
	c0-2.9,2.4-5.3,5.3-5.3c2.9,0,5.3,2.4,5.3,5.3C167.7,190.6,165.3,193,162.4,193L162.4,193z M162.4,193"/>
</svg>
