<svg version="1.1" width="100" height="100" xmlns="http://www.w3.org/2000/svg" xmlns:xlink="http://www.w3.org/1999/xlink" x="0px" y="0px"
	 viewBox="0 0 283.5 283.5" style="enable-background:new 0 0 283.5 283.5;" xml:space="preserve">
<g>
	<path class="st0 services" d="M92,106.9c0.4,0.7,1.1,1.2,1.8,1.4l6.9,1.7l25.2,25.2l4.1-4.1l-25.7-25.7c-0.4-0.4-0.8-0.6-1.4-0.8l-6.5-1.6
		l-6-10.5l4.5-4.5l10.5,6l1.6,6.5c0.1,0.5,0.4,1,0.8,1.4l25.7,25.7l4.1-4.1l-25.2-25.2l-1.7-6.9c-0.2-0.8-0.7-1.4-1.4-1.8L96,81.7
		c-1.1-0.7-2.6-0.5-3.5,0.5l-7.7,7.7c-0.9,0.9-1.1,2.4-0.5,3.5L92,106.9z"/>
	
		<rect x="139.8" y="109.2" transform="matrix(-0.7072 -0.707 0.707 -0.7072 144.5234 340.0854)" class="st0" width="5.9" height="61.9"/>
	<path class="st0 services" d="M116.3,163.7L116.3,163.7c-0.5-0.9-1.5-1.4-2.5-1.4h-11.6c-1,0-2,0.5-2.5,1.4l-5.8,9.6c-0.6,0.9-0.6,2.1,0,3
		l5.8,9.6c0.5,0.9,1.5,1.4,2.5,1.4h11.6c1,0,2-0.5,2.5-1.4l5.8-9.6c0.6-0.9,0.6-2.1,0-3L116.3,163.7z M116.2,174.8l-4,6.7h-8.2
		l-4-6.7l4-6.7h8.2L116.2,174.8z"/>
	<path class="st0 services" d="M196.7,170.8l-23.1-23.1c-1.1-1.1-3-1.1-4.1,0l-1,1c-0.5,0.5-1.2,0.5-1.6,0c-0.5-0.5-0.5-1.2,0-1.6l1-1
		c1.1-1.1,1.1-3,0-4.1l-3.7-3.7l9-9c1.4,0.3,2.8,0.4,4.2,0.4c0,0,0.1,0,0.1,0c13.2,0,24-10.7,24-24c0-2-0.2-4-0.7-6
		c-0.4-1.6-2-2.5-3.5-2.1c-0.5,0.1-1,0.4-1.4,0.8l-11.6,11.5l-8.5-2.8l-2.8-8.5L184.6,87c1.1-1.1,1.1-3,0-4.1
		c-0.4-0.4-0.9-0.6-1.4-0.8c-12.8-3.3-26,4.6-29.2,17.4c-0.5,2-0.7,4-0.7,6c0,1.4,0.1,2.8,0.4,4.2l-41.4,41.4
		c-1.4-0.3-2.8-0.4-4.2-0.4c-13.3,0-24.1,10.8-24.1,24.1c0,13.3,10.8,24.1,24.1,24.1c13.3,0,24.1-10.8,24.1-24.1
		c0-1.4-0.1-2.8-0.4-4.2l9-9l3.7,3.7c1.1,1.1,3,1.1,4.1,0l1-1c0.5-0.5,1.2-0.5,1.6,0c0.5,0.5,0.5,1.2,0,1.6l-1,1
		c-1.1,1.1-1.1,3,0,4.1l23,23c3.1,3.1,7.3,4.9,11.7,4.9c0,0,0.1,0,0.1,0c4.4,0,8.5-1.7,11.6-4.8
		C203.1,187.7,203.1,177.2,196.7,170.8z M157.4,164.5c-0.2-1.9-1-3.6-2.5-4.8c-2.4-2-5.7-2.2-8.3-0.5l-1.8-1.8l15.1-15.1l1.8,1.8
		c-1.9,2.9-1.3,6.8,1.4,9.1c2.4,2,5.7,2.2,8.3,0.5l21,21l-15.1,15.1l-21-21C157.2,167.6,157.5,166.1,157.4,164.5z M168.7,125.4
		l-42.2,42.2c-0.7,0.7-1,1.8-0.8,2.8c1.2,4.8,0.5,9.7-2,13.9c-2.5,4.2-6.5,7.2-11.3,8.4c-4.8,1.2-9.7,0.5-13.9-2
		c-4.2-2.5-7.2-6.5-8.4-11.3c-2.5-9.8,3.5-19.9,13.3-22.4c1.5-0.4,3-0.6,4.5-0.6c1.5,0,3.1,0.2,4.5,0.6c1,0.2,2.1-0.1,2.8-0.8
		l43.7-43.7c0.7-0.7,1-1.8,0.8-2.8c-1.2-4.7-0.5-9.6,2-13.8c2.5-4.2,6.4-7.1,11.1-8.3c1.1-0.3,2.2-0.5,3.3-0.5l-8.4,8.5
		c-0.8,0.8-1.1,1.9-0.7,3l3.9,11.6c0.3,0.9,1,1.6,1.9,1.9l11.6,3.9c1.1,0.4,2.2,0.1,3-0.7l8.4-8.4c-0.3,4.4-2.1,8.4-5.2,11.5
		c-3.4,3.4-8,5.4-12.8,5.4c-1.5,0-3.1-0.2-4.6-0.6c-1-0.2-2.1,0-2.8,0.8L168.7,125.4L168.7,125.4z M188.7,192.4
		c-1.2,0.5-2.5,0.7-3.8,0.7c0,0,0,0,0,0c-0.7,0-1.5-0.1-2.2-0.2l12.7-12.7c0.5,2.2,0.2,4.5-0.7,6.6
		C193.5,189.4,191.4,191.4,188.7,192.4z"/>
	
		<rect x="158.9" y="168" transform="matrix(0.7071 0.7071 -0.7071 0.7071 171.6818 -72.6199)" class="st0 services" width="29.2" height="5.9"/>
</g>
</svg>
