<svg style="position: absolute; width: 0; height: 0; overflow: hidden;" version="1.1" xmlns="http://www.w3.org/2000/svg" xmlns:xlink="http://www.w3.org/1999/xlink">
<defs>
<symbol id="logo" viewBox="0 0 121 32">
	<path d="M45.728 9.488c4.254 0 4.779 1.637 4.779 2.653 0 0.878-0.675 1.61-1.76 1.986l1.085 1.311c0.505 0.62 0.825 1.319 1.856 1.406v1.661h-6.070v-1.661c0.393-0.014 0.692-0.065 0.692-0.323 0-0.141-0.113-0.296-0.319-0.578l-0.731-0.968h-1.048v1.366c0 0.246 0.037 0.555 0.618 0.503v1.661h-5.641v-1.661h0.526c0.486 0 0.658 0.023 0.658-0.709v-4.276c0-0.541 0-0.722-0.658-0.722h-0.526v-1.649h6.538zM44.211 13.173h0.413c1.031 0 1.517-0.413 1.517-1.032 0-0.823-0.953-0.85-1.591-0.85h-0.34v1.881z"></path>
	<path d="M65.873 16.084c0.187 0.49 0.317 0.759 0.955 0.759h0.283v1.661h-6.259v-1.661h0.451c0.167 0 0.504 0.023 0.504-0.206 0-0.090-0.094-0.321-0.15-0.438h-3.842c-0.056 0.092-0.132 0.244-0.132 0.321 0 0.31 0.321 0.323 0.545 0.323h0.187v1.661h-5.022v-1.661h0.302c0.712 0 0.879-0.258 1.252-1.096l1.821-3.993c0.11-0.257 0.148-0.334 0.148-0.425 0-0.103-0.037-0.18-0.786-0.18h-0.319v-1.661h7.419l2.644 6.596zM58.623 14.397h2.285l-1.050-2.576h-0.094l-1.141 2.576z"></path>
	<path d="M79.233 9.488v3.029h-2.209c-0.415-1.379-0.229-1.225-1.223-1.225h-0.409v5.063c0 0.49 0.263 0.503 0.656 0.503h0.714v1.661h-6.675v-1.661h0.713c0.412 0 0.677-0.014 0.677-0.503v-5.063h-0.415c-0.881 0-0.938-0.118-1.217 1.225h-2.212v-3.029h11.6z"></path>
	<path d="M91.058 10.905c1.16 1.134 1.291 2.409 1.291 3.092 0 1.146-0.391 2.344-1.215 3.145-0.901 0.861-2.398 1.58-4.856 1.58-2.774 0-4.197-0.938-4.873-1.58-1.237-1.199-1.198-2.861-1.198-3.145 0-0.748 0.094-1.919 1.292-3.092 1.257-1.225 3.035-1.636 4.778-1.636 2.717 0 4.14 1.005 4.779 1.636zM84.572 13.571v0.865c0 1.222 0.133 2.486 1.706 2.486 1.576 0 1.706-1.251 1.706-2.486v-0.865c0-1.211-0.13-2.499-1.706-2.499-1.649 0-1.706 1.431-1.706 2.499z"></path>
	<path d="M99.825 9.488c4.254 0 4.778 1.637 4.778 2.653 0 0.878-0.672 1.61-1.762 1.986l1.090 1.311c0.504 0.62 0.825 1.319 1.856 1.406v1.661h-6.075v-1.661c0.393-0.014 0.694-0.065 0.694-0.323 0-0.141-0.113-0.296-0.317-0.578l-0.731-0.968h-1.051v1.366c0 0.246 0.037 0.555 0.618 0.503v1.661h-5.641v-1.661h0.522c0.491 0 0.656 0.023 0.656-0.709v-4.276c0-0.541 0-0.722-0.656-0.722h-0.522v-1.649h6.539zM98.308 13.173h0.413c1.031 0 1.517-0.413 1.517-1.032 0-0.823-0.955-0.85-1.593-0.85h-0.337v1.881z"></path>
	<path d="M119.579 16.084c0.186 0.49 0.316 0.759 0.955 0.759h0.283v1.661h-6.26v-1.661h0.449c0.169 0 0.505 0.023 0.505-0.206 0-0.090-0.093-0.321-0.15-0.438h-3.842c-0.056 0.092-0.13 0.244-0.13 0.321 0 0.31 0.317 0.323 0.543 0.323h0.187v1.661h-5.022v-1.661h0.302c0.712 0 0.879-0.258 1.255-1.096l1.816-3.993c0.113-0.257 0.15-0.334 0.15-0.425 0-0.103-0.037-0.18-0.786-0.18h-0.319v-1.661h7.42l2.644 6.596zM112.329 14.397h2.286l-1.051-2.576h-0.093l-1.142 2.576z"></path>
	<path d="M29.906 11.298c0-0.846-0.005-2.415-1.537-3.103-1.669-0.748-3.032 0.449-4.607 1.837-0.564 0.494-7.184 5.804-7.184 5.804l3.664 2.836 5.105-4.131v11.404l-12.624-10.045 9.664-7.81c4.217-3.405 4.784-4.28 4.025-6.262-0.734-1.915-2.587-1.883-5.962-1.851-0.628 0.008-15.737 0-15.737 0-2.653 0-4.715 0.317-4.715 4.222v21.987l4.487-3.676v-7.282l6.445 5.113-10.931 8.752h6.872l7.686-5.895c0 0 9.85 7.766 10.292 8.087 0.997 0.793 2.221 0.966 3.287 0.458 1.114-0.528 1.77-1.681 1.77-3.086 0-0.526 0-17.36 0-17.36zM4.487 4.512l15.171-0.004-10.643 8.599-4.528-3.409v-5.187z"></path>
	<path d="M62.697 26.315v-0.581l2.095-0.004v1.836c-0.322 0.258-0.654 0.449-0.995 0.579s-0.692 0.194-1.053 0.194c-0.486 0-0.928-0.103-1.326-0.311-0.396-0.209-0.695-0.509-0.898-0.904-0.203-0.393-0.304-0.833-0.304-1.32 0-0.482 0.1-0.931 0.302-1.348 0.202-0.418 0.491-0.727 0.869-0.929s0.814-0.304 1.307-0.304c0.357 0 0.681 0.057 0.97 0.174 0.288 0.117 0.515 0.278 0.68 0.485 0.165 0.206 0.288 0.476 0.374 0.81l-0.59 0.162c-0.075-0.253-0.167-0.45-0.278-0.594-0.11-0.146-0.268-0.26-0.473-0.346-0.205-0.087-0.432-0.13-0.681-0.13-0.3 0-0.558 0.045-0.776 0.136-0.219 0.093-0.394 0.212-0.53 0.36-0.133 0.149-0.236 0.312-0.312 0.49-0.125 0.306-0.189 0.637-0.189 0.995 0 0.442 0.076 0.81 0.229 1.107s0.373 0.518 0.663 0.662c0.291 0.144 0.599 0.215 0.925 0.215 0.284 0 0.56-0.055 0.83-0.163 0.27-0.11 0.475-0.227 0.615-0.35v-0.921h-1.454z"></path>
	<path d="M69.224 28.257v-4.949h2.193c0.441 0 0.776 0.044 1.006 0.133 0.229 0.089 0.412 0.247 0.55 0.471 0.137 0.226 0.206 0.474 0.206 0.746 0 0.351-0.114 0.647-0.341 0.887-0.227 0.242-0.578 0.394-1.053 0.459 0.173 0.084 0.306 0.166 0.395 0.247 0.19 0.176 0.372 0.394 0.543 0.658l0.86 1.347h-0.823l-0.656-1.029c-0.191-0.297-0.348-0.524-0.473-0.682-0.123-0.157-0.234-0.268-0.332-0.33-0.098-0.064-0.197-0.108-0.298-0.133-0.074-0.014-0.195-0.023-0.364-0.023h-0.76v2.198h-0.653zM69.878 25.492h1.407c0.299 0 0.532-0.031 0.702-0.093s0.296-0.162 0.385-0.296c0.087-0.138 0.131-0.285 0.131-0.445 0-0.233-0.085-0.427-0.255-0.577s-0.439-0.226-0.805-0.226h-1.565v1.637z"></path>
	<path d="M77.461 25.846c0-0.822 0.221-1.464 0.662-1.929s1.010-0.697 1.708-0.697c0.457 0 0.868 0.11 1.235 0.328s0.647 0.522 0.839 0.912c0.194 0.391 0.289 0.833 0.289 1.328 0 0.502-0.102 0.951-0.304 1.346-0.203 0.396-0.489 0.697-0.861 0.901-0.371 0.204-0.772 0.304-1.202 0.304-0.466 0-0.881-0.113-1.249-0.338-0.366-0.225-0.645-0.531-0.833-0.921-0.189-0.388-0.284-0.801-0.284-1.235zM78.136 25.856c0 0.596 0.161 1.067 0.481 1.409 0.321 0.343 0.722 0.516 1.207 0.516 0.493 0 0.899-0.174 1.216-0.52 0.319-0.346 0.478-0.837 0.478-1.475 0-0.403-0.068-0.754-0.204-1.055-0.137-0.3-0.336-0.533-0.599-0.697-0.261-0.166-0.555-0.248-0.882-0.248-0.464 0-0.863 0.159-1.198 0.477-0.333 0.318-0.5 0.85-0.5 1.594z"></path>
	<path d="M89.74 23.308h0.654v2.858c0 0.498-0.057 0.892-0.168 1.184-0.112 0.293-0.315 0.53-0.61 0.714-0.292 0.184-0.678 0.275-1.155 0.275-0.464 0-0.843-0.080-1.138-0.239s-0.505-0.392-0.631-0.694c-0.126-0.302-0.189-0.717-0.189-1.241v-2.858h0.654v2.855c0 0.43 0.040 0.746 0.121 0.95s0.217 0.361 0.411 0.471c0.195 0.11 0.434 0.165 0.714 0.165 0.481 0 0.825-0.109 1.030-0.327s0.307-0.639 0.307-1.26v-2.855z"></path>
	<path d="M94.941 28.257v-4.949h1.866c0.329 0 0.581 0.016 0.752 0.046 0.243 0.042 0.447 0.118 0.612 0.232s0.296 0.272 0.397 0.477c0.098 0.204 0.15 0.429 0.15 0.675 0 0.421-0.135 0.776-0.402 1.068s-0.751 0.437-1.451 0.437h-1.269v2.013h-0.654zM95.596 25.661h1.279c0.423 0 0.724-0.080 0.901-0.236 0.179-0.157 0.267-0.378 0.267-0.665 0-0.206-0.052-0.383-0.157-0.53-0.105-0.148-0.243-0.246-0.413-0.292-0.111-0.030-0.314-0.044-0.612-0.044h-1.266v1.768z"></path>
</symbol>
<symbol id="shot-logo" viewBox="0 0 32 32">
	<path d="M30.923 11.305c0.002-0.842-0.003-2.409-1.532-3.097-1.667-0.745-3.025 0.448-4.599 1.835-0.562 0.493-7.169 5.793-7.169 5.793l3.657 2.831 5.095-4.123v11.381l-12.598-10.025 9.643-7.795c4.209-3.397 4.776-4.272 4.018-6.249-0.733-1.913-2.583-1.879-5.95-1.847-0.627 0.007-15.707 0-15.707 0-2.647 0-4.705 0.315-4.705 4.214v21.943l4.478-3.669v-7.267l6.433 5.103-10.91 8.734h6.859l7.671-5.883c0 0 9.83 7.751 10.273 8.070 0.995 0.793 2.215 0.965 3.281 0.459 1.113-0.526 1.764-1.678 1.764-3.081 0-0.523 0-17.327 0-17.327zM5.555 4.535l15.143-0.004-10.624 8.583-4.519-3.403v-5.177z"></path>
</symbol>
<symbol id="ratora-bakery" viewBox="0 0 139 32">
	<path d="M11.11 0.367c7.226 0 8.117 2.758 8.117 4.471 0 1.478-1.148 2.714-2.991 3.347l1.843 2.208c0.86 1.045 1.404 2.223 3.153 2.37v2.799h-10.315v-2.799c0.668-0.023 1.175-0.107 1.175-0.544 0-0.237-0.19-0.497-0.542-0.975l-1.242-1.63h-1.777v2.302c0 0.412 0.062 0.934 1.047 0.847v2.799h-9.581v-2.799h0.89c0.826 0 1.116 0.043 1.116-1.197v-7.204c0-0.913 0-1.216-1.116-1.216h-0.89v-2.78h11.11zM8.533 6.579h0.7c1.749 0 2.575-0.698 2.575-1.741 0-1.387-1.619-1.429-2.703-1.429h-0.572v3.17z"></path>
	<path d="M45.329 11.484c0.316 0.828 0.542 1.282 1.626 1.282h0.478v2.799h-10.633v-2.801h0.766c0.284 0 0.853 0.043 0.853-0.348 0-0.149-0.158-0.542-0.254-0.738h-6.526c-0.096 0.154-0.224 0.412-0.224 0.542 0 0.521 0.544 0.544 0.924 0.544h0.318v2.799h-8.533v-2.799h0.512c1.21 0 1.495-0.435 2.129-1.847l3.091-6.729c0.19-0.433 0.254-0.563 0.254-0.717 0-0.173-0.064-0.305-1.338-0.305h-0.54v-2.799h12.606l4.491 11.117zM33.011 8.642h3.881l-1.781-4.341h-0.158l-1.941 4.341z"></path>
	<path d="M68.023 0.367v5.105h-3.753c-0.704-2.325-0.386-2.063-2.074-2.063h-0.7v8.531c0 0.826 0.446 0.847 1.116 0.847h1.21v2.801h-11.337v-2.801h1.207c0.702 0 1.152-0.023 1.152-0.847v-8.531h-0.704c-1.498 0-1.591-0.201-2.069 2.063h-3.753v-5.105h19.703z"></path>
	<path d="M88.111 2.756c1.975 1.911 2.195 4.058 2.195 5.21 0 1.931-0.668 3.951-2.067 5.299-1.53 1.453-4.075 2.667-8.245 2.667-4.715 0-7.134-1.583-8.277-2.667-2.101-2.020-2.037-4.821-2.037-5.299 0-1.261 0.16-3.236 2.195-5.21 2.138-2.065 5.158-2.756 8.122-2.756 4.617 0 7.031 1.692 8.115 2.756zM77.097 7.247v1.459c0 2.061 0.222 4.19 2.897 4.19s2.895-2.108 2.895-4.19v-1.459c0-2.042-0.222-4.211-2.895-4.211-2.803 0.002-2.897 2.415-2.897 4.211z"></path>
	<path d="M103.008 0.367c7.228 0 8.122 2.758 8.122 4.471 0 1.478-1.146 2.714-2.995 3.347l1.85 2.208c0.855 1.045 1.399 2.223 3.153 2.37v2.799h-10.319v-2.799c0.668-0.023 1.182-0.107 1.182-0.544 0-0.237-0.194-0.497-0.54-0.975l-1.244-1.632h-1.781v2.302c0 0.412 0.062 0.934 1.050 0.847v2.799h-9.583v-2.797h0.89c0.832 0 1.111 0.043 1.111-1.197v-7.204c0-0.913 0-1.216-1.111-1.216h-0.89v-2.78h11.106zM100.433 6.579h0.698c1.751 0 2.579-0.698 2.579-1.741 0-1.387-1.623-1.429-2.707-1.429h-0.572v3.17z"></path>
	<path d="M136.565 11.484c0.318 0.828 0.54 1.282 1.626 1.282h0.476v2.799h-10.63v-2.801h0.762c0.288 0 0.86 0.043 0.86-0.348 0-0.149-0.16-0.542-0.254-0.738h-6.526c-0.098 0.154-0.222 0.412-0.222 0.542 0 0.521 0.54 0.544 0.922 0.544h0.318v2.799h-8.533v-2.799h0.512c1.207 0 1.495-0.435 2.133-1.847l3.083-6.729c0.192-0.433 0.256-0.563 0.256-0.717 0-0.173-0.064-0.305-1.335-0.305h-0.542v-2.799h12.606l4.491 11.117zM124.247 8.642h3.885l-1.788-4.341h-0.158l-1.939 4.341z"></path>
	<path d="M30.835 32v-8.339h3.153c0.642 0 1.156 0.083 1.547 0.252 0.388 0.171 0.691 0.429 0.911 0.779 0.222 0.35 0.329 0.719 0.329 1.101 0 0.358-0.096 0.695-0.292 1.009-0.194 0.314-0.489 0.567-0.881 0.762 0.506 0.147 0.898 0.401 1.171 0.755s0.41 0.777 0.41 1.263c0 0.39-0.083 0.753-0.25 1.090-0.166 0.335-0.371 0.593-0.617 0.774-0.243 0.183-0.55 0.318-0.922 0.414-0.367 0.092-0.817 0.141-1.353 0.141h-3.206zM31.947 27.164h1.82c0.491 0 0.845-0.034 1.060-0.098 0.282-0.083 0.497-0.222 0.64-0.414 0.143-0.194 0.215-0.435 0.215-0.727 0-0.279-0.066-0.523-0.203-0.734-0.134-0.209-0.324-0.354-0.572-0.429-0.25-0.079-0.676-0.117-1.28-0.117h-1.681v2.519zM31.947 31.017h2.093c0.358 0 0.61-0.015 0.755-0.043 0.256-0.045 0.469-0.122 0.644-0.226 0.171-0.109 0.311-0.26 0.422-0.465 0.111-0.203 0.166-0.437 0.166-0.702 0-0.311-0.081-0.578-0.239-0.811-0.162-0.228-0.384-0.39-0.67-0.486-0.284-0.090-0.693-0.134-1.229-0.134h-1.943v2.867z"></path>
	<path d="M43.661 32l3.23-8.339h1.197l3.441 8.339h-1.269l-0.979-2.528h-3.514l-0.924 2.528h-1.182zM46.086 28.576h2.85l-0.879-2.31c-0.267-0.7-0.465-1.278-0.595-1.73-0.107 0.535-0.256 1.065-0.452 1.594l-0.924 2.447z"></path>
	<path d="M58.24 32v-8.339h1.111v4.134l4.175-4.134h1.508l-3.526 3.377 3.682 4.962h-1.468l-2.993-4.222-1.378 1.331v2.891h-1.111z"></path>
	<path d="M72.013 32v-8.339h6.078v0.986h-4.962v2.551h4.649v0.979h-4.649v2.839h5.156v0.983h-6.272z"></path>
	<path d="M85.711 32v-8.339h3.725c0.751 0 1.321 0.075 1.711 0.222 0.39 0.149 0.7 0.414 0.934 0.796 0.233 0.38 0.35 0.798 0.35 1.259 0 0.589-0.196 1.088-0.58 1.491-0.386 0.407-0.981 0.668-1.788 0.774 0.294 0.139 0.518 0.279 0.67 0.416 0.322 0.294 0.631 0.668 0.924 1.109l1.463 2.272h-1.399l-1.111-1.737c-0.324-0.499-0.591-0.883-0.804-1.15-0.209-0.265-0.397-0.45-0.563-0.555-0.169-0.107-0.335-0.181-0.508-0.222-0.128-0.028-0.331-0.043-0.619-0.043h-1.289v3.706h-1.116zM86.825 27.337h2.389c0.51 0 0.907-0.047 1.195-0.154 0.288-0.105 0.503-0.271 0.655-0.499 0.147-0.228 0.222-0.48 0.222-0.747 0-0.397-0.143-0.721-0.433-0.973-0.29-0.256-0.745-0.384-1.37-0.384h-2.658v2.756z"></path>
	<path d="M102.199 32v-3.531l-3.241-4.809h1.357l1.653 2.515c0.307 0.469 0.591 0.939 0.853 1.41 0.254-0.437 0.559-0.93 0.919-1.474l1.628-2.449h1.297l-3.354 4.809v3.529h-1.114z"></path>
</symbol>
<symbol id="ratora-horeca" viewBox="0 0 139 32">
	<path d="M11.11 0.367c7.226 0 8.117 2.746 8.117 4.454 0 1.472-1.148 2.701-2.989 3.33l1.841 2.202c0.86 1.041 1.404 2.21 3.155 2.359v2.786h-10.315v-2.786c0.668-0.021 1.175-0.109 1.175-0.542 0-0.237-0.19-0.495-0.542-0.971l-1.244-1.623h-1.777v2.289c0 0.412 0.062 0.932 1.047 0.845v2.786h-9.581v-2.784h0.89c0.826 0 1.118 0.041 1.118-1.193v-7.174c0-0.907 0-1.212-1.118-1.212h-0.89v-2.767h11.11zM8.533 6.554h0.7c1.749 0 2.575-0.695 2.575-1.734 0-1.38-1.619-1.427-2.703-1.427h-0.572v3.162z"></path>
	<path d="M45.329 11.435c0.318 0.823 0.542 1.278 1.626 1.278h0.478v2.786h-10.633v-2.786h0.766c0.282 0 0.855 0.041 0.855-0.346 0-0.154-0.158-0.542-0.252-0.734h-6.528c-0.096 0.151-0.224 0.407-0.224 0.538 0 0.521 0.544 0.542 0.924 0.542h0.32v2.786h-8.533v-2.786h0.514c1.207 0 1.493-0.433 2.129-1.837l3.091-6.709c0.19-0.427 0.252-0.559 0.252-0.708 0-0.171-0.062-0.305-1.338-0.305h-0.54v-2.786h12.606l4.486 11.068zM33.011 8.604h3.881l-1.781-4.324h-0.158l-1.941 4.324z"></path>
	<path d="M68.023 0.367v5.084h-3.753c-0.704-2.317-0.386-2.057-2.074-2.057h-0.7v8.497c0 0.821 0.446 0.843 1.116 0.843h1.21v2.795h-11.337v-2.795h1.207c0.702 0 1.152-0.021 1.152-0.843v-8.497h-0.702c-1.5 0-1.594-0.198-2.071 2.057h-3.753v-5.084h19.703z"></path>
	<path d="M88.111 2.741c1.975 1.907 2.195 4.043 2.195 5.193 0 1.924-0.666 3.934-2.067 5.276-1.527 1.449-4.075 2.66-8.245 2.66-4.715 0-7.134-1.579-8.277-2.66-2.101-2.007-2.037-4.8-2.037-5.276 0-1.257 0.16-3.221 2.195-5.193 2.138-2.052 5.158-2.741 8.122-2.741 4.617 0 7.031 1.683 8.115 2.741zM77.097 7.221v1.451c0 2.052 0.222 4.166 2.897 4.166s2.895-2.093 2.895-4.166v-1.451c0-2.033-0.222-4.196-2.895-4.196-2.803 0-2.897 2.4-2.897 4.196z"></path>
	<path d="M103.008 0.367c7.23 0 8.122 2.746 8.122 4.454 0 1.472-1.146 2.701-2.995 3.33l1.85 2.202c0.855 1.041 1.399 2.21 3.153 2.359v2.786h-10.319v-2.786c0.668-0.021 1.182-0.109 1.182-0.542 0-0.237-0.194-0.495-0.54-0.971l-1.244-1.623h-1.781v2.289c0 0.412 0.062 0.932 1.050 0.845v2.786h-9.583v-2.784h0.89c0.832 0 1.111 0.041 1.111-1.193v-7.174c0-0.907 0-1.212-1.111-1.212h-0.89v-2.767h11.106zM100.433 6.554h0.698c1.754 0 2.579-0.695 2.579-1.734 0-1.38-1.623-1.427-2.707-1.427h-0.572v3.162z"></path>
	<path d="M136.565 11.435c0.318 0.823 0.542 1.278 1.626 1.278h0.476v2.786h-10.63v-2.786h0.762c0.288 0 0.86 0.041 0.86-0.346 0-0.154-0.16-0.542-0.254-0.734h-6.526c-0.098 0.151-0.222 0.407-0.222 0.538 0 0.521 0.54 0.542 0.922 0.542h0.318v2.786h-8.533v-2.786h0.512c1.21 0 1.495-0.433 2.133-1.837l3.083-6.709c0.192-0.427 0.256-0.559 0.256-0.708 0-0.171-0.064-0.305-1.335-0.305h-0.542v-2.786h12.606l4.491 11.068zM124.247 8.604h3.885l-1.788-4.324h-0.158l-1.939 4.324z"></path>
	<path d="M29.758 31.859v-8.297h1.111v3.405h4.365v-3.405h1.111v8.297h-1.111v-3.91h-4.365v3.91h-1.111z"></path>
	<path d="M43.725 27.817c0-1.378 0.375-2.455 1.122-3.234 0.749-0.781 1.717-1.171 2.899-1.171 0.774 0 1.472 0.183 2.095 0.55s1.099 0.877 1.423 1.534c0.326 0.655 0.491 1.393 0.491 2.225 0 0.843-0.173 1.594-0.516 2.259s-0.828 1.167-1.459 1.508c-0.627 0.341-1.31 0.512-2.039 0.512-0.791 0-1.498-0.19-2.121-0.567-0.621-0.38-1.094-0.892-1.414-1.547-0.32-0.649-0.48-1.34-0.48-2.069zM44.87 27.834c0 1.001 0.273 1.788 0.817 2.362 0.546 0.576 1.227 0.862 2.048 0.862 0.838 0 1.525-0.288 2.065-0.87 0.54-0.58 0.811-1.404 0.811-2.473 0-0.674-0.115-1.265-0.348-1.769-0.23-0.503-0.57-0.894-1.015-1.171-0.444-0.277-0.941-0.416-1.495-0.416-0.787 0-1.466 0.267-2.031 0.8-0.567 0.535-0.851 1.427-0.851 2.675z"></path>
	<path d="M59.074 31.859v-8.297h3.723c0.749 0 1.318 0.073 1.709 0.222s0.7 0.412 0.934 0.791c0.233 0.375 0.35 0.794 0.35 1.25 0 0.589-0.194 1.086-0.578 1.487-0.386 0.403-0.981 0.663-1.788 0.77 0.294 0.141 0.518 0.279 0.67 0.412 0.324 0.294 0.631 0.663 0.924 1.105l1.461 2.259h-1.397l-1.111-1.728c-0.322-0.497-0.591-0.879-0.802-1.141-0.209-0.265-0.399-0.448-0.563-0.557-0.166-0.105-0.337-0.179-0.508-0.222-0.128-0.026-0.333-0.038-0.619-0.038h-1.289v3.684h-1.116zM60.183 27.223h2.389c0.508 0 0.905-0.051 1.193-0.156 0.286-0.105 0.503-0.271 0.653-0.497s0.224-0.476 0.224-0.745c0-0.393-0.143-0.717-0.433-0.969-0.288-0.252-0.745-0.378-1.367-0.378h-2.658v2.743z"></path>
	<path d="M73.421 31.859v-8.297h6.074v0.977h-4.962v2.541h4.646v0.973h-4.646v2.825h5.156v0.979h-6.268z"></path>
	<path d="M93.082 28.949l1.111 0.275c-0.23 0.902-0.653 1.591-1.257 2.065s-1.346 0.71-2.221 0.71c-0.905 0-1.643-0.183-2.208-0.546-0.567-0.367-1.001-0.892-1.293-1.583-0.299-0.691-0.444-1.431-0.444-2.225 0-0.862 0.166-1.617 0.499-2.261s0.811-1.131 1.427-1.466 1.295-0.499 2.037-0.499c0.841 0 1.547 0.209 2.118 0.634 0.574 0.42 0.973 1.018 1.201 1.783l-1.097 0.254c-0.196-0.604-0.48-1.043-0.847-1.321-0.373-0.275-0.838-0.412-1.397-0.412-0.649 0-1.186 0.154-1.619 0.459s-0.74 0.717-0.915 1.231c-0.177 0.514-0.262 1.045-0.262 1.594 0 0.704 0.105 1.321 0.311 1.847s0.531 0.919 0.969 1.182c0.442 0.258 0.915 0.388 1.427 0.388 0.623 0 1.15-0.175 1.581-0.529 0.431-0.356 0.725-0.883 0.877-1.581z"></path>
	<path d="M100.508 31.859l3.226-8.297h1.199l3.437 8.297h-1.267l-0.979-2.513h-3.511l-0.924 2.513h-1.18zM102.931 28.452h2.848l-0.875-2.298c-0.269-0.7-0.467-1.274-0.597-1.722-0.109 0.533-0.258 1.058-0.452 1.583l-0.924 2.436z"></path>
</symbol>
<symbol id="ratora-laundary" viewBox="0 0 139 32">
	<path d="M11.108 0.367c7.226 0 8.117 2.748 8.117 4.454 0 1.47-1.146 2.701-2.991 3.33l1.845 2.199c0.858 1.041 1.402 2.212 3.151 2.359v2.786h-10.313v-2.786c0.668-0.023 1.175-0.111 1.175-0.542 0-0.237-0.19-0.495-0.542-0.969l-1.242-1.623h-1.777v2.289c0 0.41 0.060 0.93 1.047 0.845v2.786h-9.581v-2.786h0.89c0.828 0 1.116 0.038 1.116-1.19v-7.172c0-0.911 0-1.212-1.116-1.212h-0.89v-2.769h11.108zM8.533 6.551h0.7c1.747 0 2.575-0.695 2.575-1.732 0-1.382-1.619-1.427-2.701-1.427h-0.574v3.159z"></path>
	<path d="M45.331 11.433c0.314 0.821 0.54 1.278 1.623 1.278h0.478v2.788h-10.633v-2.788h0.766c0.286 0 0.855 0.041 0.855-0.348 0-0.149-0.16-0.542-0.254-0.732h-6.526l-0.224 0.535c0 0.523 0.544 0.544 0.926 0.544h0.318v2.788h-8.533v-2.788h0.512c1.21 0 1.495-0.433 2.129-1.839l3.091-6.701c0.19-0.433 0.254-0.561 0.254-0.708 0-0.173-0.064-0.305-1.335-0.305h-0.54v-2.786h12.604l4.489 11.061zM33.011 8.604h3.881l-1.781-4.322h-0.158l-1.941 4.322z"></path>
	<path d="M68.023 0.367v5.084h-3.753c-0.704-2.313-0.386-2.054-2.074-2.054h-0.702v8.491c0 0.823 0.446 0.845 1.118 0.845h1.21v2.793h-11.334v-2.793h1.205c0.702 0 1.152-0.021 1.152-0.845v-8.491h-0.704c-1.498 0-1.591-0.198-2.071 2.054h-3.755v-5.084h19.708z"></path>
	<path d="M88.111 2.746c1.975 1.903 2.195 4.041 2.195 5.186 0 1.924-0.668 3.936-2.067 5.28-1.53 1.444-4.070 2.654-8.245 2.654-4.717 0-7.132-1.572-8.277-2.654-2.101-2.010-2.039-4.802-2.039-5.28 0-1.254 0.162-3.219 2.197-5.186 2.138-2.054 5.158-2.746 8.122-2.746 4.617 0 7.027 1.687 8.115 2.746zM77.097 7.219v1.453c0 2.050 0.222 4.169 2.897 4.169 2.673 0 2.895-2.097 2.895-4.169v-1.453c0-2.033-0.222-4.19-2.895-4.19-2.803 0-2.897 2.396-2.897 4.19z"></path>
	<path d="M103.008 0.367c7.228 0 8.122 2.748 8.122 4.454 0 1.47-1.143 2.701-2.995 3.33l1.852 2.199c0.853 1.041 1.397 2.212 3.151 2.359v2.786h-10.319v-2.786c0.668-0.023 1.182-0.111 1.182-0.542 0-0.237-0.194-0.495-0.54-0.969l-1.244-1.623h-1.781v2.289c0 0.41 0.062 0.93 1.050 0.845v2.786h-9.583v-2.786h0.89c0.834 0 1.111 0.038 1.111-1.19v-7.172c0-0.911 0-1.212-1.111-1.212h-0.89v-2.769h11.106zM100.433 6.551h0.698c1.751 0 2.579-0.695 2.579-1.732 0-1.382-1.623-1.427-2.707-1.427h-0.572v3.159z"></path>
	<path d="M136.567 11.433c0.316 0.821 0.538 1.278 1.621 1.278h0.478v2.788h-10.633v-2.788h0.764c0.29 0 0.86 0.041 0.86-0.348 0-0.149-0.16-0.542-0.254-0.732h-6.526l-0.222 0.535c0 0.523 0.54 0.544 0.924 0.544h0.316v2.788h-8.533v-2.788h0.512c1.212 0 1.495-0.433 2.133-1.839l3.081-6.701c0.192-0.433 0.258-0.561 0.258-0.708 0-0.173-0.066-0.305-1.333-0.305h-0.544v-2.786h12.606l4.493 11.061zM124.247 8.604h3.885l-1.79-4.322h-0.156l-1.939 4.322z"></path>
	<path d="M23.661 31.861v-8.301h1.114v7.322h4.139v0.979z"></path>
	<path d="M35.185 31.861l3.228-8.301h1.201l3.439 8.301h-1.267l-0.979-2.515h-3.516l-0.924 2.515h-1.182zM37.611 28.452h2.85l-0.879-2.298c-0.269-0.698-0.465-1.274-0.595-1.724-0.111 0.533-0.26 1.060-0.452 1.587l-0.924 2.434z"></path>
	<path d="M55.326 23.561h1.111v4.794c0 0.836-0.096 1.498-0.286 1.988-0.194 0.491-0.535 0.89-1.035 1.199-0.501 0.309-1.154 0.459-1.963 0.459-0.787 0-1.429-0.134-1.931-0.401-0.499-0.265-0.858-0.657-1.071-1.161-0.215-0.508-0.32-1.203-0.32-2.084v-4.794h1.109v4.789c0 0.719 0.070 1.252 0.205 1.591 0.134 0.341 0.373 0.606 0.702 0.791s0.734 0.277 1.212 0.277c0.817 0 1.399-0.183 1.747-0.55 0.346-0.365 0.521-1.069 0.521-2.11v-4.789z"></path>
	<path d="M64.151 31.861v-8.301h1.143l4.412 6.515v-6.515h1.067v8.301h-1.141l-4.412-6.524v6.524z"></path>
	<path d="M78.515 31.859v-8.299h2.891c0.659 0 1.156 0.041 1.498 0.119 0.484 0.113 0.892 0.305 1.231 0.595 0.446 0.369 0.779 0.843 1.001 1.419 0.22 0.576 0.326 1.231 0.326 1.971 0 0.631-0.073 1.19-0.222 1.677-0.147 0.486-0.339 0.89-0.576 1.21-0.233 0.316-0.489 0.57-0.762 0.753-0.282 0.183-0.614 0.322-1.007 0.412-0.39 0.096-0.841 0.141-1.353 0.141h-3.027zM79.629 30.882h1.792c0.557 0 0.992-0.049 1.306-0.151 0.314-0.105 0.567-0.247 0.755-0.433 0.262-0.258 0.469-0.608 0.614-1.050 0.149-0.435 0.222-0.971 0.222-1.6 0-0.866-0.141-1.534-0.429-1.999-0.292-0.469-0.644-0.783-1.056-0.939-0.299-0.111-0.774-0.169-1.44-0.169h-1.762v6.34z"></path>
	<path d="M92.883 31.861v-8.301h3.727c0.749 0 1.318 0.073 1.709 0.222 0.393 0.147 0.702 0.41 0.934 0.789 0.233 0.378 0.35 0.794 0.35 1.252 0 0.587-0.192 1.088-0.578 1.487-0.384 0.405-0.981 0.663-1.788 0.77 0.294 0.141 0.514 0.277 0.668 0.412 0.326 0.297 0.636 0.666 0.926 1.105l1.463 2.261h-1.397l-1.114-1.728c-0.324-0.495-0.591-0.881-0.804-1.143-0.209-0.265-0.397-0.45-0.563-0.555l-0.506-0.222c-0.128-0.026-0.333-0.038-0.623-0.038h-1.289v3.686h-1.116zM93.993 27.223h2.394c0.506 0 0.905-0.051 1.193-0.154 0.288-0.107 0.503-0.273 0.655-0.497 0.149-0.228 0.222-0.48 0.222-0.747 0-0.393-0.143-0.715-0.431-0.966-0.292-0.254-0.747-0.38-1.372-0.38h-2.66v2.743z"></path>
	<path d="M109.372 31.861v-3.514l-3.241-4.785h1.355l1.658 2.502c0.307 0.469 0.589 0.934 0.851 1.404 0.254-0.435 0.559-0.924 0.917-1.468l1.63-2.438h1.293l-3.351 4.785v3.514h-1.111z"></path>
</symbol>
<symbol id="ratora-retail" viewBox="0 0 139 32">
	<path d="M11.11 0.369c7.226 0 8.117 2.758 8.117 4.469 0 1.481-1.148 2.711-2.991 3.345l1.843 2.208c0.86 1.045 1.404 2.221 3.153 2.368v2.799h-10.315v-2.799c0.668-0.021 1.175-0.107 1.175-0.542 0-0.239-0.19-0.499-0.542-0.975l-1.242-1.628h-1.777v2.298c0 0.412 0.062 0.934 1.047 0.847v2.799h-9.581v-2.799h0.89c0.826 0 1.116 0.043 1.116-1.195v-7.202c0-0.909 0-1.214-1.116-1.214h-0.89v-2.78h11.11zM8.533 6.579h0.7c1.749 0 2.575-0.7 2.575-1.741 0-1.382-1.619-1.429-2.703-1.429h-0.572v3.17z"></path>
	<path d="M45.329 11.484c0.316 0.823 0.542 1.278 1.626 1.278h0.478v2.799h-10.633v-2.801h0.766c0.284 0 0.853 0.043 0.853-0.348 0-0.147-0.158-0.542-0.254-0.736h-6.526c-0.096 0.151-0.224 0.41-0.224 0.542 0 0.521 0.544 0.542 0.924 0.542h0.318v2.799h-8.533v-2.799h0.512c1.21 0 1.495-0.435 2.129-1.843l3.091-6.726c0.19-0.435 0.254-0.563 0.254-0.715 0-0.175-0.064-0.307-1.338-0.307h-0.54v-2.799h12.606l4.491 11.115zM33.011 8.638h3.881l-1.781-4.337h-0.158l-1.941 4.337z"></path>
	<path d="M68.023 0.369v5.103h-3.753c-0.704-2.323-0.386-2.063-2.074-2.063h-0.7v8.529c0 0.823 0.446 0.847 1.116 0.847h1.21v2.799h-11.337v-2.799h1.207c0.702 0 1.152-0.026 1.152-0.847v-8.529h-0.704c-1.498 0-1.591-0.201-2.069 2.063h-3.753v-5.103h19.703z"></path>
	<path d="M88.111 2.758c1.975 1.911 2.195 4.055 2.195 5.205 0 1.931-0.668 3.949-2.067 5.299-1.53 1.453-4.075 2.662-8.245 2.662-4.715 0-7.134-1.579-8.277-2.662-2.101-2.020-2.037-4.821-2.037-5.299 0-1.257 0.16-3.234 2.195-5.205 2.138-2.063 5.158-2.758 8.122-2.758 4.617 0 7.031 1.696 8.115 2.758zM77.097 7.249v1.455c0 2.059 0.222 4.188 2.897 4.188s2.895-2.108 2.895-4.188v-1.455c0-2.044-0.222-4.211-2.895-4.211-2.803 0.002-2.897 2.413-2.897 4.211z"></path>
	<path d="M103.008 0.369c7.228 0 8.122 2.758 8.122 4.469 0 1.481-1.146 2.711-2.995 3.345l1.85 2.208c0.855 1.045 1.399 2.221 3.153 2.368v2.799h-10.319v-2.799c0.668-0.021 1.182-0.107 1.182-0.542 0-0.239-0.194-0.499-0.54-0.975l-1.244-1.63h-1.781v2.298c0 0.412 0.062 0.934 1.050 0.847v2.799h-9.583v-2.797h0.89c0.832 0 1.111 0.043 1.111-1.195v-7.202c0-0.909 0-1.214-1.111-1.214h-0.89v-2.78h11.106zM100.433 6.579h0.698c1.751 0 2.579-0.7 2.579-1.741 0-1.382-1.623-1.429-2.707-1.429h-0.572v3.17z"></path>
	<path d="M136.565 11.484c0.318 0.823 0.54 1.278 1.626 1.278h0.476v2.799h-10.63v-2.801h0.762c0.288 0 0.86 0.043 0.86-0.348 0-0.147-0.16-0.542-0.254-0.736h-6.526c-0.098 0.151-0.222 0.41-0.222 0.542 0 0.521 0.54 0.542 0.922 0.542h0.318v2.799h-8.533v-2.799h0.512c1.207 0 1.495-0.435 2.133-1.843l3.083-6.726c0.192-0.435 0.256-0.563 0.256-0.715 0-0.175-0.064-0.307-1.335-0.307h-0.542v-2.799h12.606l4.491 11.115zM124.247 8.638h3.885l-1.788-4.337h-0.158l-1.939 4.337z"></path>
	<path d="M34.605 32v-8.333h3.727c0.749 0 1.318 0.073 1.709 0.222 0.393 0.149 0.7 0.414 0.934 0.794 0.233 0.38 0.35 0.798 0.35 1.257 0 0.591-0.194 1.090-0.58 1.493-0.384 0.407-0.981 0.666-1.788 0.774 0.294 0.139 0.518 0.279 0.67 0.414 0.322 0.297 0.631 0.666 0.926 1.109l1.461 2.27h-1.397l-1.114-1.734c-0.324-0.499-0.591-0.883-0.802-1.15-0.211-0.265-0.399-0.45-0.567-0.557-0.166-0.107-0.333-0.181-0.503-0.222-0.13-0.026-0.333-0.041-0.621-0.041h-1.289v3.703h-1.116zM35.718 27.343h2.389c0.51 0 0.907-0.051 1.195-0.156s0.503-0.273 0.655-0.499c0.147-0.23 0.222-0.48 0.222-0.749 0-0.395-0.143-0.719-0.433-0.973s-0.745-0.38-1.367-0.38h-2.66v2.756z"></path>
	<path d="M48.962 32v-8.333h6.078v0.983h-4.964v2.549h4.651v0.981h-4.651v2.835h5.161v0.983h-6.274z"></path>
	<path d="M64.783 32v-7.349h-2.773v-0.983h6.665v0.983h-2.782v7.349h-1.109z"></path>
	<path d="M73.892 32l3.228-8.333h1.199l3.441 8.333h-1.269l-0.979-2.526h-3.516l-0.924 2.526h-1.18zM76.318 28.578h2.85l-0.879-2.306c-0.267-0.704-0.467-1.28-0.595-1.73-0.109 0.533-0.258 1.062-0.452 1.591l-0.924 2.445z"></path>
	<path d="M88.708 32v-8.333h1.111v8.333h-1.111z"></path>
	<path d="M97.602 32v-8.333h1.114v7.349h4.139v0.983h-5.252z"></path>
</symbol>
<symbol id="tablet" viewBox="0 0 38 32">
	<path d="M29.877 1.829v19.243c0.347 0.246 0.648 0.546 0.914 0.876v-21.033h-6.4v0.914h5.486z"></path>
	<path d="M29.877 28.529v2.557h-22.857v-29.257h5.486v-0.914h-6.4v31.086h24.686v-4.347c-0.266 0.331-0.567 0.631-0.914 0.876z"></path>
	<path d="M9.763 26.514v-22.857h2.743v-0.914h-3.657v24.686h14.671c-0.2-0.284-0.371-0.588-0.503-0.914h-13.254z"></path>
	<path d="M27.134 3.657v16.583c0.039-0.001 0.075-0.012 0.114-0.012 0.274 0 0.539 0.035 0.8 0.081v-17.566h-3.657v0.914h2.743z"></path>
	<path d="M23.477 1.829h0.914v0.914h-0.914v-0.914z"></path>
	<path d="M23.477 0.914h0.914v-0.914h-11.886v0.914h0.914z"></path>
	<path d="M23.477 5.486h0.914v-1.828h-0.914v0.914z"></path>
	<path d="M23.477 0.914h0.914v0.914h-0.914v-0.914z"></path>
	<path d="M23.477 2.743h0.914v0.914h-0.914v-0.914z"></path>
	<path d="M23.477 5.486v-0.914h-10.057v-0.914h-0.914v1.828z"></path>
	<path d="M12.506 1.829h0.914v0.914h-0.914v-0.914z"></path>
	<path d="M12.506 0.914h0.914v0.914h-0.914v-0.914z"></path>
	<path d="M12.506 2.743h0.914v0.914h-0.914v-0.914z"></path>
	<path d="M14.709 9.265l-1.278 1.186-0.603-0.603c-0.179-0.179-0.468-0.179-0.647 0s-0.179 0.468 0 0.647l0.914 0.914c0.089 0.089 0.207 0.134 0.324 0.134 0.111 0 0.223-0.040 0.311-0.122l1.6-1.486c0.185-0.171 0.196-0.46 0.024-0.645-0.171-0.187-0.462-0.197-0.645-0.024z"></path>
	<path d="M14.709 14.636l-1.278 1.186-0.603-0.603c-0.179-0.179-0.468-0.179-0.647 0s-0.179 0.468 0 0.647l0.914 0.914c0.089 0.089 0.207 0.135 0.324 0.135 0.111 0 0.223-0.040 0.311-0.123l1.6-1.486c0.185-0.171 0.196-0.46 0.024-0.645-0.171-0.185-0.462-0.197-0.645-0.024z"></path>
	<path d="M14.709 20.008l-1.278 1.186-0.603-0.603c-0.179-0.178-0.468-0.178-0.647 0s-0.179 0.468 0 0.647l0.914 0.914c0.089 0.089 0.207 0.135 0.324 0.135 0.111 0 0.223-0.040 0.311-0.123l1.6-1.486c0.185-0.171 0.196-0.46 0.024-0.645-0.171-0.186-0.462-0.197-0.645-0.024z"></path>
	<path d="M17.077 10.972h7.315c0.252 0 0.457-0.205 0.457-0.457 0-0.253-0.204-0.457-0.457-0.457h-7.315c-0.252 0-0.457 0.204-0.457 0.457s0.205 0.457 0.457 0.457z"></path>
	<path d="M17.077 16.457h7.315c0.252 0 0.457-0.204 0.457-0.457s-0.204-0.457-0.457-0.457h-7.315c-0.252 0-0.457 0.204-0.457 0.457s0.205 0.457 0.457 0.457z"></path>
	<path d="M20.734 21.028h-3.657c-0.252 0-0.457 0.205-0.457 0.457 0 0.253 0.204 0.457 0.457 0.457h3.657c0.253 0 0.457-0.204 0.457-0.457s-0.204-0.457-0.457-0.457z"></path>
	<path d="M27.010 26.514h0.124v-0.11l-0.107 0.099c-0.005 0.005-0.011 0.007-0.017 0.011z"></path>
	<path d="M30.905 24.8c0-0.299-0.046-0.585-0.114-0.864v1.729c0.068-0.279 0.114-0.566 0.114-0.865z"></path>
	<path d="M28.049 20.766c0.691 0.136 1.309 0.457 1.829 0.893v-0.588c-0.536-0.379-1.156-0.642-1.829-0.761v0.456z"></path>
	<path d="M27.249 28.914c-1.268 0-2.386-0.585-3.141-1.486h-0.587c0.828 1.172 2.187 1.943 3.729 1.943 0.979 0 1.884-0.316 2.629-0.843v-0.587c-0.714 0.599-1.623 0.974-2.629 0.974z"></path>
	<path d="M31.363 24.8c0 0.754-0.217 1.451-0.571 2.059v0.794c0.633-0.784 1.028-1.769 1.028-2.853s-0.395-2.068-1.028-2.852v0.794c0.354 0.606 0.571 1.304 0.571 2.057z"></path>
	<path d="M27.134 20.697v-0.457c-2.467 0.062-4.457 2.079-4.457 4.559 0 0.607 0.124 1.184 0.34 1.715h0.502c-0.241-0.523-0.385-1.1-0.385-1.715-0.001-2.233 1.782-4.041 3.999-4.103z"></path>
	<path d="M29.877 27.941v0.587c0.347-0.245 0.648-0.545 0.914-0.876v-0.794c-0.241 0.414-0.549 0.777-0.914 1.083z"></path>
	<path d="M29.877 21.071v0.588c0.365 0.306 0.673 0.668 0.914 1.082v-0.794c-0.266-0.33-0.567-0.63-0.914-0.876z"></path>
	<path d="M23.017 26.514c0.132 0.326 0.303 0.63 0.503 0.914h0.587c-0.233-0.279-0.434-0.58-0.588-0.914h-0.502z"></path>
	<path d="M27.134 20.24v0.457c0.039-0.001 0.075-0.012 0.114-0.012 0.274 0 0.541 0.030 0.8 0.081v-0.457c-0.26-0.046-0.526-0.081-0.8-0.081-0.039 0.001-0.075 0.011-0.114 0.012z"></path>
	<path d="M27.134 21.154v-0.457c-2.217 0.062-4 1.87-4 4.103 0 0.615 0.144 1.192 0.385 1.715h0.519c-0.276-0.513-0.447-1.092-0.447-1.715 0.001-1.977 1.58-3.584 3.543-3.646z"></path>
	<path d="M30.905 24.8c0 0.299-0.046 0.585-0.114 0.865v1.195c0.354-0.607 0.571-1.305 0.571-2.059 0-0.753-0.217-1.451-0.571-2.059v1.195c0.068 0.278 0.114 0.565 0.114 0.864z"></path>
	<path d="M27.249 28.457c-0.984 0-1.874-0.395-2.532-1.028h-0.609c0.755 0.901 1.874 1.486 3.141 1.486 1.005 0 1.914-0.375 2.629-0.974v-0.609c-0.667 0.691-1.596 1.125-2.629 1.125z"></path>
	<path d="M28.049 21.237c0.71 0.159 1.34 0.524 1.829 1.031v-0.609c-0.52-0.436-1.138-0.756-1.829-0.893v0.471z"></path>
	<path d="M29.877 27.332v0.609c0.365-0.306 0.673-0.668 0.914-1.082v-1.195c-0.156 0.638-0.473 1.21-0.914 1.668z"></path>
	<path d="M30.792 23.936v-1.195c-0.241-0.414-0.549-0.776-0.914-1.082v0.609c0.441 0.458 0.759 1.030 0.914 1.668z"></path>
	<path d="M24.038 26.514h-0.519c0.154 0.334 0.356 0.635 0.588 0.914h0.609c-0.274-0.264-0.497-0.577-0.678-0.914z"></path>
	<path d="M27.134 20.697v0.457c0.039-0.001 0.075-0.012 0.114-0.012 0.276 0 0.542 0.037 0.8 0.094v-0.471c-0.259-0.051-0.526-0.081-0.8-0.081-0.039 0.001-0.075 0.011-0.114 0.012z"></path>
	<path d="M25.626 24.437c-0.177-0.177-0.464-0.177-0.641 0-0.178 0.177-0.178 0.464 0 0.641l1.412 1.413c0.010 0.010 0.023 0.013 0.034 0.023h0.579c0.005-0.005 0.012-0.007 0.017-0.011l0.107-0.099v-1.239l-0.405 0.376-1.104-1.104z"></path>
	<path d="M29.5 24.207c0.183-0.171 0.194-0.457 0.023-0.641-0.171-0.183-0.458-0.194-0.641-0.023l-0.834 0.775v1.239l1.452-1.349z"></path>
	<path d="M28.049 25.556v-1.239l-0.914 0.849v1.239z"></path>
	<path d="M26.718 26.625c0.105 0 0.207-0.038 0.292-0.111h-0.579c0.083 0.069 0.184 0.111 0.287 0.111z"></path>
</symbol>
<symbol id="operator" viewBox="0 0 38 32">
	<path d="M23.746 22.28l-0.058-0.011v-0.676l0.027-0.021c0.159-0.13 0.316-0.274 0.471-0.428 1.217-1.338 1.969-2.997 2.176-4.796l0.005-0.053 0.053-0.008c1.084-0.164 2.047-0.736 2.71-1.611 0.912-1.287 0.988-3.123 0.225-5.456-0.040-0.12-0.121-0.225-0.226-0.293l-0.382-0.259 0.002-0.039c0.051-2.105-0.674-4.146-2.040-5.748-1.687-1.897-4.295-2.868-7.749-2.881-3.435 0-6.042 0.962-7.749 2.859-1.367 1.6-2.090 3.641-2.038 5.745v0.039l-0.382 0.259c-0.107 0.070-0.185 0.174-0.226 0.295-0.759 2.335-0.684 4.172 0.226 5.461 0.663 0.878 1.625 1.456 2.708 1.624l0.052 0.009 0.007 0.053c0.209 1.8 0.963 3.463 2.184 4.804 0.14 0.142 0.299 0.286 0.469 0.426l0.026 0.021v0.676l-0.057 0.011c-2.836 0.548-12.075 2.825-11.915 9.153 0 0.313 0.255 0.567 0.565 0.567h32.265c0.312 0 0.567-0.254 0.567-0.565 0.159-6.331-9.080-8.608-11.915-9.155zM11.085 15.003c-0.556-0.185-1.033-0.535-1.38-1.008l-0.108-0.15 0.047 0.011c-0.568-0.956-0.582-2.334-0.044-4.099l0.008-0.024 0.021-0.013 0.463-0.312c0.174-0.115 0.27-0.317 0.248-0.527-0.108-1.923 0.51-3.795 1.742-5.273 1.441-1.632 3.754-2.463 6.878-2.476h0.079c3.054 0 5.348 0.833 6.823 2.474 1.235 1.48 1.854 3.352 1.744 5.272-0.020 0.212 0.075 0.414 0.249 0.529l0.484 0.327 0.008 0.024c0.572 1.873 0.526 3.301-0.137 4.243-0.348 0.475-0.827 0.823-1.387 1.007l-0.246 0.081 0.171-0.193c0.751-0.85 1.122-1.988 1.018-3.121-0.114-0.672-0.468-1.288-0.998-1.729l-0.024-0.020-0.001-0.031c-0.27-6.309-4.684-6.991-6.568-6.991l-0.037-0.001c-0.384 0-0.777 0.030-1.166 0.087l-0.010 0.001-0.010-0.001c-0.387-0.057-0.78-0.087-1.166-0.087l-0.036 0.001c-1.879 0-6.282 0.681-6.572 6.99l-0.001 0.031-0.025 0.020c-0.53 0.436-0.888 1.050-1.009 1.728-0.103 1.125 0.267 2.263 1.017 3.117l0.171 0.194-0.245-0.082zM12.439 9.731l-0.081 0.005 0.006-0.081c0.349-4.571 3.137-5.53 5.414-5.53h0.034c0.359 0 0.717 0.031 1.065 0.092 0.076 0.014 0.154 0.014 0.23 0 0.349-0.062 0.706-0.092 1.065-0.092h0.033c2.268 0 5.038 0.964 5.38 5.543l0.412 1.207 0.031-0.005 0.025 0.021c0.324 0.276 0.535 0.661 0.596 1.083 0.111 0.763-0.297 1.7-1.179 2.711-0.092 0.105-0.143 0.239-0.14 0.377v0.374l-0.037 0.021-3.739 2.004-0.037-0.035c-0.329-0.311-0.758-0.482-1.21-0.482-0.487 0-0.941 0.194-1.276 0.548-0.667 0.703-0.636 1.819 0.067 2.487 0.327 0.31 0.757 0.482 1.208 0.482 0.489 0 0.942-0.196 1.279-0.551 0.309-0.328 0.48-0.757 0.48-1.208 0.004-0.059 0.004-0.113 0-0.169l-0.002-0.044 3.085-1.652-0.029 0.145c-0.255 1.267-0.85 2.437-1.72 3.385-1.074 1.036-2.484 1.605-3.976 1.605-0.096 0-0.191-0.004-0.287-0.008l-0.314 0.001c-0.092 0.004-0.188 0.007-0.284 0.007-1.483 0-2.892-0.567-3.966-1.595-1.985-1.976-1.985-5.182-1.985-5.317l0.001-0.089 0.018 0.004c-0.015-0.107-0.062-0.206-0.133-0.288-0.882-1.009-1.289-1.946-1.18-2.711 0.055-0.434 0.267-0.831 0.602-1.116l0.020-0.017h0.025l0.5-1.112zM20.934 18.702c0 0.35-0.285 0.635-0.633 0.635-0.351 0-0.636-0.285-0.636-0.635 0-0.351 0.284-0.636 0.636-0.636 0.348-0.001 0.633 0.284 0.633 0.636zM18.395 30.833h-14.987l0.007-0.078c0.507-4.809 8.343-6.83 10.732-7.335l0.085-0.017v1.223c0 1.377 1.686 2.468 4.099 2.652l0.065 0.005v3.551zM15.36 24.625v-2.301l0.1 0.047c0.994 0.462 2.104 0.706 3.207 0.706 0.044 0 0.088-0.001 0.133-0.002h0.32c0.046 0.001 0.090 0.002 0.135 0.002 1.103 0 2.212-0.245 3.205-0.706l0.101-0.047v2.301c0 0.644-1.371 1.543-3.601 1.543s-3.6-0.899-3.6-1.543zM19.526 30.852v-3.578l0.063-0.004c2.413-0.165 4.099-1.254 4.099-2.653v-1.197l0.086 0.017c2.383 0.495 10.203 2.488 10.731 7.335l0.009 0.079h-14.988z"></path>
	<path d="M11.566 10.997c-0.181 0-0.356-0.1-0.441-0.273-0.122-0.244-0.023-0.54 0.22-0.661 1.301-0.652 3.823-2.414 4.046-4.423 0.021-0.192 0.153-0.354 0.336-0.414s0.385-0.008 0.516 0.135c1.051 1.138 4.117 3.787 9.871 3.787 0.273 0 0.493 0.22 0.493 0.493s-0.22 0.492-0.493 0.492c-5.248 0-8.431-2.094-9.957-3.474-0.887 2.476-3.983 4.091-4.372 4.285-0.070 0.035-0.145 0.052-0.219 0.052z"></path>
</symbol>
<symbol id="map-spot" viewBox="0 0 38 32">
	<path d="M4.929 28.039l0.462-1.118h3.275l-1.697 4.109h-3.275l0.492-1.191 0.743-1.801zM8.042 20.505h3.275l-1.195 2.891h-3.275l1.195-2.891zM10.856 31.030l3.007-7.28 8.558 7.28h-11.565zM14.766 19.534h-7.044c-0.194 0-0.37 0.118-0.444 0.299l-4.749 11.496c-0.062 0.149-0.046 0.321 0.044 0.456 0.089 0.134 0.239 0.215 0.401 0.215h31.981c0.161 0 0.312-0.081 0.401-0.216s0.106-0.306 0.044-0.456l-4.749-11.495c-0.075-0.181-0.251-0.299-0.444-0.299h-7.413l-0.945 0.971h8.038l1.195 2.891h-8.921l-0.991 0.971h10.312l0.655 1.586h-9.914c-0.2 0-0.381 0.126-0.451 0.314-0.070 0.19-0.016 0.404 0.136 0.536l4.834 4.228h-2.827l-9.93-8.449c-0.118-0.1-0.275-0.137-0.424-0.1s-0.272 0.142-0.331 0.284l-3.413 8.264h-1.803l1.821-4.408c0.062-0.15 0.045-0.32-0.043-0.455s-0.239-0.216-0.4-0.216h-3.596l0.654-1.587h3.996c0.195 0 0.371-0.117 0.444-0.298l1.471-3.564h3.233l-0.826-0.968zM28.208 31.030l-4.699-4.109h9.026l1.697 4.109h-6.024z"></path>
	<path d="M19.166 14.872c-2.994 0-5.429-2.435-5.429-5.429s2.435-5.429 5.429-5.429c2.994 0 5.429 2.435 5.429 5.429s-2.435 5.429-5.429 5.429zM19.166 4.957c-2.473 0-4.485 2.012-4.485 4.485s2.012 4.485 4.485 4.485c2.473 0 4.485-2.012 4.485-4.485s-2.012-4.485-4.485-4.485z"></path>
	<path d="M18.576 24.903c-0.005 0-0.011 0-0.015 0-0.126-0.004-0.245-0.058-0.331-0.151-0.372-0.4-9.096-9.864-9.096-15.074 0.001-5.336 4.501-9.678 10.033-9.678s10.032 4.341 10.032 9.678c0 5.226-9.876 14.695-10.296 15.096-0.088 0.084-0.205 0.129-0.326 0.129zM19.166 0.944c-5.012 0-9.088 3.918-9.088 8.734 0 4.305 6.923 12.289 8.52 14.073 1.765-1.741 9.656-9.767 9.656-14.073 0-4.816-4.076-8.734-9.088-8.734z"></path>
</symbol>
<symbol id="lorry" viewBox="0 0 38 32">
	<path d="M35.196 17.497l-0.076-0.012-1.095-4.379 0.117-0.024c0.237-0.050 0.409-0.263 0.409-0.507v-0.675c0-1.403-1.141-2.543-2.543-2.543h-4.882v-3.768c0-0.657-0.535-1.192-1.192-1.192h-22.042c-0.657 0-1.192 0.535-1.192 1.192v13.739c0 0.285 0.232 0.517 0.517 0.517 0.284 0 0.517-0.232 0.517-0.517v-13.739c0-0.087 0.071-0.158 0.158-0.158h22.041c0.087 0 0.157 0.071 0.157 0.158v13.74c0 0.284 0.233 0.516 0.518 0.516s0.517-0.232 0.517-0.516v-0.834h7.58c0.952 0 1.788 0.609 2.080 1.516l0.048 0.151h-2.124c-0.285 0-0.517 0.232-0.517 0.517v1.35c0 1.030 0.837 1.868 1.867 1.868h0.831v3.017h-1.852l-0.027-0.078c-0.544-1.569-2.022-2.624-3.679-2.624s-3.135 1.054-3.678 2.623l-0.027 0.078h-0.503v-4.884c0-0.285-0.232-0.517-0.517-0.517s-0.517 0.232-0.517 0.517v4.885h-12.197l-0.027-0.077c-0.543-1.57-2.021-2.625-3.679-2.625s-3.136 1.054-3.679 2.623l-0.027 0.079h-2.59c-0.087 0-0.158-0.071-0.158-0.158v-1.509h1.729c0.284 0 0.516-0.232 0.516-0.518 0-0.284-0.232-0.516-0.516-0.516h-4.947c-0.285 0-0.517 0.231-0.517 0.515 0 0.286 0.232 0.518 0.518 0.518h2.183v1.509c0 0.657 0.535 1.192 1.192 1.192h2.408l-0.004 0.121c0 1.054 0.405 2.044 1.14 2.785 0.734 0.74 1.711 1.147 2.751 1.147 2.146 0 3.892-1.746 3.892-3.894v-0.133l0.115-0.025h13.255l-0.007 0.126c0 2.165 1.745 3.927 3.89 3.927 2.146 0 3.892-1.746 3.892-3.894v-0.132l0.116-0.026h2.068c0.284 0 0.516-0.232 0.516-0.517v-6.752c0.001-1.577-1.172-2.945-2.729-3.182zM34.047 17.461h-6.92v-4.369h5.829l1.092 4.369zM27.127 12.057v-1.667h4.882c0.831 0 1.508 0.677 1.508 1.509v0.133l-0.116 0.025h-6.275zM36.893 22.862h-0.833c-0.459 0-0.834-0.374-0.834-0.833v-0.833h1.667v1.665zM31.334 30.965c-1.575 0-2.857-1.282-2.857-2.859 0-1.576 1.282-2.858 2.857-2.858s2.858 1.282 2.858 2.858c0 1.577-1.282 2.859-2.858 2.859zM10.188 30.965c-1.576 0-2.859-1.282-2.859-2.859 0-1.576 1.282-2.858 2.859-2.858s2.857 1.282 2.857 2.858c0 1.577-1.282 2.859-2.857 2.859z"></path>
	<path d="M11.381 28.107c0 0.659-0.534 1.193-1.193 1.193s-1.193-0.534-1.193-1.193c0-0.659 0.534-1.193 1.193-1.193s1.193 0.534 1.193 1.193z"></path>
	<path d="M32.527 28.107c0 0.659-0.534 1.193-1.193 1.193s-1.193-0.534-1.193-1.193c0-0.659 0.534-1.193 1.193-1.193s1.193 0.534 1.193 1.193z"></path>
	<path d="M15.073 24.728c0 0.286 0.231 0.518 0.516 0.518h9.451c0.284 0 0.516-0.232 0.516-0.518 0-0.284-0.232-0.516-0.516-0.516h-9.452c-0.284 0-0.516 0.231-0.516 0.516z"></path>
	<path d="M1.867 22.547h6.971c0.284 0 0.517-0.232 0.517-0.517s-0.232-0.517-0.517-0.517h-6.971c-0.285 0-0.517 0.232-0.517 0.517s0.232 0.517 0.517 0.517z"></path>
	<path d="M19.947 11.755l-5.708 5.713-3.010-3.011c-0.197-0.197-0.532-0.199-0.732 0-0.2 0.201-0.2 0.53 0.001 0.731l3.376 3.378c0.093 0.092 0.226 0.145 0.364 0.145s0.273-0.053 0.367-0.146l6.076-6.079c0.199-0.201 0.199-0.529 0-0.731-0.188-0.188-0.545-0.187-0.733 0z"></path>
</symbol>
<symbol id="handshake" viewBox="0 0 38 32">
	<path d="M29.203 5.512l0.852 1.964c-0.87 0.491-1.829 1-2.089 0.796-0.587-0.35-1.344-0.744-2.252-1.335l-2.172-1.522c-1.701-1.302-4.055-1.591-6.44-0.468-1.468-0.407-2.508-0.457-3.167-0.153-1.884 0.867-4.023 3.122-4.763 3.48-0.373 0.181-0.686-0.149-1.295-0.6l0.947-2.161-8.824-0.14v15.24h2.405l1.738-4.139 1.618 0.321 1.775 2.248c-0.465 0.417-0.485 0.425-0.571 0.515-0.295 0.312-0.494 0.683-0.593 1.080l-0.008 1.143c0.26 1.12 1.275 1.922 2.46 1.882-0.212 1.505 0.978 2.831 2.499 2.78-0.212 1.504 0.978 2.831 2.498 2.779-0.321 2.284 2.388 3.65 4.049 2.157l1.221-1.097c1.548 1.295 3.996 0.325 4.128-1.778 1.543 0.434 3.048-0.634 3.189-2.196 1.716 0.415 3.316-1 3.095-2.762 1.149 0.053 2.184-0.672 2.524-1.768l0.083-1.144c-0.076-0.48-0.292-0.921-0.605-1.275l0.072 0.057 2.091-2.673 0.394-0.034 1.68 3.905h2.183v-15.24l-8.723 0.142zM1.763 19.638h-0.791v-13.279l6.388 0.181-5.597 13.098zM7.502 20.839c0.071-0.231 0.203-0.433 0.37-0.584 1.496-1.346 1.621-1.53 2.031-1.639 1.274-0.347 2.233 1.23 1.209 2.216l-1.505 1.351c-0.961 0.866-2.488-0.071-2.105-1.345zM10.276 24.867c-0.479-0.533-0.435-1.354 0.097-1.832 0.058-0.052-0.209 0.188 1.505-1.352 0.532-0.479 1.355-0.433 1.832 0.097h0.001c0.401 0.446 0.48 1.147-0.002 1.736-0.084 0.092-0.013 0.018-1.601 1.448-0.532 0.479-1.354 0.435-1.831-0.097zM12.774 27.646c-0.478-0.532-0.434-1.353 0.098-1.832 1.582-1.417 1.669-1.589 2.165-1.669 0.457-0.073 0.893 0.105 1.171 0.413 0.476 0.529 0.438 1.352-0.098 1.832l-1.504 1.352c-0.532 0.479-1.355 0.436-1.832-0.097zM18.689 29.093c-0.087 0.093 0.007-0.003-1.584 1.431-0.532 0.478-1.354 0.434-1.833-0.098-0.478-0.531-0.433-1.353 0.099-1.832 1.537-1.374 1.646-1.573 2.133-1.663 0.013 0.003 0.684-0.169 1.202 0.408 0.438 0.486 0.45 1.252-0.017 1.753zM28.84 22.159c-0.542-0.374-1.183 0.321-0.77 0.832 0.456 0.56 0.399 1.383-0.127 1.874-0.527 0.49-1.351 0.49-1.877 0.001-0.455-0.425-1.166 0.085-0.912 0.652 0.251 0.56 0.097 1.227-0.376 1.621-0.561 0.468-1.4 0.403-1.913-0.147l-0.143-0.155c-0.205-0.22-0.545-0.244-0.778-0.055-0.234 0.188-0.281 0.526-0.11 0.772 0.39 0.557 0.309 1.33-0.189 1.794-0.501 0.468-1.263 0.488-1.787 0.078 0.965-1.652-0.303-3.732-2.194-3.664 0.207-1.484-0.972-2.825-2.504-2.778 0.211-1.5-0.976-2.827-2.498-2.779 0.101-0.728-0.121-1.438-0.602-1.972-0.895-0.998-2.439-1.092-3.447-0.185-0.136 0.123-0.246 0.222-0.359 0.323l-1.947-2.488-1.779-0.395 2.828-6.603c0.942 0.844 1.579 0.77 2.312 0.415 0.967-0.468 2.997-2.667 4.744-3.47 0.132-0.061 0.474-0.151 1.243-0.035-1.813 1.284-2.893 2.853-4.262 4.204-1.345 1.452-0.301 3.873 2.002 3.861 0.696-0.004 1.366-0.262 1.883-0.732l2.837-2.58c0.071-0.043 0.158-0.043 0.228 0 1.278 1.346 3.547 2.46 6.056 2.569 6.768 7.57 6.247 6.984 6.321 7.079 0.202 0.27 0.268 0.961 0.268 0.953-0.1 1.065-1.304 1.592-2.151 1.008zM33.102 15.898l-2.185 2.791c-6.411-7.221-5.945-6.7-6.242-6.706-3.518-0.065-5.504-2.223-5.523-2.244-0.38-0.427-1.285-0.509-1.775-0.063l-2.867 2.608c-0.334 0.303-0.764 0.449-1.189 0.433-1.247-0.046-1.747-1.225-1.086-1.939 1.652-1.783 2.036-2.197 2.103-2.268-0.017 0.019-0.044 0.046 0.011-0.012 1.657-1.801 3.012-2.393 3.067-2.43 1.741-0.876 3.8-0.993 5.432 0.257l2.241 1.573c2.078 1.353 2.68 1.648 3.428 1.648l2.018-0.955 3.138 7.146-0.569 0.162zM36.953 19.638h-0.578l-5.695-13.098 6.273-0.181v13.279z"></path>
</symbol>
<symbol id="full-equip" viewBox="0 0 38 32">
	<path d="M29.894 28.933c0.908 0 1.647-0.739 1.647-1.649 0-0.908-0.74-1.647-1.647-1.647-0.91 0-1.65 0.739-1.65 1.647 0 0.91 0.74 1.649 1.65 1.649zM29.892 26.613c0.372 0 0.673 0.302 0.673 0.672s-0.3 0.673-0.673 0.673c-0.37 0-0.67-0.302-0.67-0.673s0.3-0.672 0.67-0.672z"></path>
	<path d="M12.978 13.739c-0.134-0.148-0.344-0.197-0.532-0.128-2.388 0.891-5.096 0.303-6.897-1.497-1.636-1.636-2.268-4.007-1.71-6.215l3.268 3.267c0.297 0.299 0.695 0.462 1.115 0.462s0.818-0.164 1.116-0.462l2.489-2.489c0.299-0.299 0.463-0.695 0.463-1.116s-0.164-0.818-0.463-1.115l-3.268-3.268c2.21-0.559 4.581 0.075 6.215 1.71 1.847 1.847 2.415 4.607 1.446 7.035-0.076 0.19-0.025 0.408 0.127 0.544l1.3 1.173 0.692-0.691-1.092-0.985c0.942-2.709 0.261-5.724-1.782-7.767-2.091-2.091-5.228-2.759-7.993-1.698-0.155 0.059-0.269 0.192-0.303 0.354s0.015 0.331 0.133 0.447l3.836 3.835c0.112 0.114 0.175 0.264 0.175 0.424s-0.062 0.312-0.175 0.425l-2.491 2.491c-0.113 0.113-0.264 0.175-0.425 0.175-0.16 0-0.311-0.062-0.424-0.175l-3.835-3.835c-0.116-0.117-0.285-0.167-0.447-0.133s-0.295 0.148-0.355 0.303c-1.060 2.764-0.394 5.902 1.699 7.994 1.991 1.992 4.948 2.693 7.615 1.831l1.041 1.138 0.692-0.692-1.228-1.342z"></path>
	<path d="M24.387 17.716l7.855 7.084c0.695 0.628 1.092 1.488 1.115 2.424 0.025 0.937-0.327 1.817-0.99 2.481-0.659 0.659-1.538 1.010-2.468 0.99-0.932-0.020-1.791-0.411-2.421-1.099l-7.151-7.821-0.692 0.692 7.121 7.788c0.812 0.887 1.919 1.391 3.122 1.416 0.033 0.001 0.066 0.002 0.1 0.002 1.164 0 2.255-0.452 3.080-1.278 0.853-0.853 1.307-1.988 1.275-3.196-0.031-1.206-0.543-2.317-1.438-3.125l-7.816-7.049-0.616 0.614-0.078 0.076z"></path>
	<path d="M20.139 21.568l0.19 0.207 4.059-4.059-0.492-0.444-4.025 4.001z"></path>
	<path d="M31.68 10.423c0.001-0.001 2.849-2.849 2.849-2.849 0.473-0.472 0.734-1.106 0.734-1.779s-0.261-1.305-0.734-1.78l-2.847-2.847c-0.476-0.475-1.106-0.735-1.781-0.735-0.674 0-1.305 0.261-1.779 0.735l-9.781 9.779 0.412 0.372 7.016-6.972 5.49 5.605-6.67 6.63 0.491 0.443 6.6-6.601zM26.343 4.37l2.491-2.491c0.283-0.283 0.663-0.44 1.067-0.44 0.405 0 0.786 0.157 1.068 0.44l2.848 2.847c0.589 0.589 0.589 1.546 0 2.135l-2.491 2.492-4.983-4.984z"></path>
	<path d="M17.649 11.637l-3.444 3.443 0.363 0.397 3.492-3.469z"></path>
	<path d="M19.175 21.963l-6.675 6.633-5.49-5.605 6.866-6.824-0.361-0.395-6.824 6.825c-0.012 0.014-0.025 0.027-0.036 0.041-0.003 0.004-0.007 0.007-0.009 0.012-0.008 0.011-0.015 0.021-0.023 0.034-0.002 0.004-0.006 0.009-0.009 0.012-0.007 0.014-0.012 0.024-0.019 0.037-0.002 0.005-0.004 0.009-0.007 0.014-0.005 0.012-0.010 0.025-0.015 0.037 0 0.004-0.001 0.007-0.002 0.009l-2.849 8.542c-0.061 0.181-0.012 0.381 0.121 0.516 0.097 0.095 0.225 0.148 0.356 0.148 0.053 0 0.107-0.009 0.16-0.026l8.543-2.849c0.002 0 0.005-0.002 0.009-0.002 0.012-0.005 0.024-0.010 0.036-0.015 0.007-0.002 0.011-0.005 0.015-0.008 0.012-0.007 0.024-0.012 0.036-0.018 0.005-0.003 0.010-0.005 0.014-0.008 0.012-0.007 0.024-0.016 0.034-0.023 0.004-0.003 0.007-0.007 0.012-0.010 0.013-0.011 0.028-0.023 0.042-0.037l6.537-6.537-0.219-0.239-0.243-0.264zM4.996 30.7l0.847-2.542 1.695 1.693-2.543 0.849zM8.605 29.496l-2.407-2.408 1.068-3.202 4.542 4.542-3.204 1.067z"></path>
	<path d="M17.649 11.637l0.411 0.371 0.693-0.69-0.412-0.372-0.286 0.284z"></path>
	<path d="M20.139 21.568l-0.27-0.296-0.695 0.69 0.462 0.504 0.692-0.692z"></path>
	<path d="M14.568 15.477l-0.363-0.397-0.692 0.692 0.361 0.395z"></path>
	<path d="M23.895 17.271l0.492 0.444 0.077-0.077 0.616-0.614-0.491-0.444z"></path>
	<path d="M9.715 22.898c-0.197 0.197-0.197 0.514 0 0.712 0.097 0.098 0.226 0.147 0.356 0.147 0.128 0 0.258-0.049 0.356-0.147l5.356-5.358-0.68-0.743-5.388 5.388z"></path>
	<path d="M20.146 13.89l-0.268-0.242-0.481-0.433-3.602 3.603 0.68 0.745z"></path>
	<path d="M23.732 6.981l0.887 1.012-4.529 4.53 0.749 0.676 4.492-4.492 2.315 2.19c0.1 0.099 0.228 0.148 0.357 0.148s0.258-0.049 0.356-0.148c0.197-0.197 0.197-0.514 0-0.711l-1.422-1.425-2.492-2.491 1.187-1.187 4.983 4.983-6.283 6.283 0.26 0.233 6.67-6.631-5.49-5.605-7.016 6.972 0.338 0.304 4.641-4.641z"></path>
	<path d="M18.398 12.314l-0.338-0.306-3.492 3.469 0.319 0.348z"></path>
	<path d="M19.647 21.031l0.222 0.242 4.025-4.001-0.256-0.232z"></path>
	<path d="M12.742 27.936l-4.983-4.983 6.437-6.437-0.321-0.35-6.866 6.824 5.49 5.605 6.675-6.633-0.219-0.241z"></path>
	<path d="M23.639 17.039l0.256 0.232 0.695-0.69-0.259-0.233z"></path>
	<path d="M18.398 12.314l0.693-0.692-0.338-0.303-0.693 0.69z"></path>
	<path d="M19.878 13.648l0.268 0.242 0.692-0.692-0.268-0.242-0.481-0.434-0.692 0.692z"></path>
	<path d="M15.783 18.253l0.692-0.69-0.68-0.745-0.692 0.692z"></path>
	<path d="M14.887 15.826l-0.319-0.348-0.693 0.69 0.321 0.35z"></path>
	<path d="M18.955 21.722l0.219 0.241 0.695-0.69-0.222-0.242z"></path>
</symbol>
<symbol id="arrow-left" viewBox="0 0 18 32">
	<path d="M15.834 32l1.173-1.171-14.829-14.829 14.827-14.829-1.171-1.171-15.834 16z"></path>
</symbol>
<symbol id="arrow-right" viewBox="0 0 18 32">
	<path d="M1.171 0l-1.171 1.171 14.829 14.829-14.827 14.829 1.171 1.171 15.834-16z"></path>
</symbol>
<symbol id="arrow-up" viewBox="0 0 32 32">
	<path d="M0 23.332l1.171 1.171 14.829-14.829 14.829 14.827 1.171-1.171-16-15.834z"></path>
</symbol>
<symbol id="arrow-down" viewBox="0 0 32 32">
	<path d="M0 8.668l1.171-1.171 14.829 14.829 14.829-14.827 1.171 1.171-16 15.834z"></path>
</symbol>
<symbol id="arrow-top" viewBox="0 0 32 32">
	<path d="M0 28.571h32v3.429h-32v-3.429z"></path>
	<path d="M18.424 2.857l-2.424-2.424-15.954 15.954 2.424 2.424 13.53-13.53 13.53 13.53 2.424-2.424z"></path>
</symbol>
<symbol id="checkpoint" viewBox="0 0 32 32">
	<path d="M15.999 1.137c5.517 0 11.457 3.677 11.457 11.751 0 7.016-8.843 15.316-11.457 17.616-2.612-2.3-11.455-10.6-11.455-17.616 0-8.075 5.937-11.751 11.455-11.751zM15.999 0c-6.060 0-12.589 4.051-12.589 12.887s12.589 19.113 12.589 19.113 12.592-10.277 12.592-19.113-6.531-12.887-12.592-12.887v0z"></path>
	<path d="M16.001 18.903c-3.435 0-6.228-2.795-6.228-6.228s2.793-6.227 6.228-6.227c3.432 0 6.225 2.793 6.225 6.227s-2.793 6.228-6.225 6.228zM16.001 7.813c-2.681 0-4.861 2.18-4.861 4.861 0 2.68 2.181 4.861 4.861 4.861 2.679 0 4.86-2.181 4.86-4.861 0-2.681-2.181-4.861-4.86-4.861z"></path>
</symbol>
<symbol id="location" viewBox="0 0 32 32">
	<path d="M16.002 17.746c3.309 0 6-2.692 6-6s-2.691-6-6-6c-3.309 0-6 2.691-6 6s2.691 6 6 6zM16.002 6.746c2.758 0 5 2.242 5 5s-2.242 5-5 5c-2.758 0-5-2.242-5-5s2.242-5 5-5z"></path>
	<path d="M16 0c-6.618 0-12 5.316-12 12.001 0 7 6.001 14.161 10.376 19.194 0.016 0.020 0.718 0.805 1.586 0.805 0.002 0 0.073 0 0.077 0 0.867 0 1.57-0.785 1.586-0.805 4.377-5.033 10.377-12.193 10.377-19.194 0-6.685-5.383-12.001-12.002-12.001zM16.117 29.883c-0.021 0.020-0.082 0.064-0.135 0.098-0.010-0.027-0.084-0.086-0.129-0.133-3.665-4.217-9.853-11.334-9.853-17.847 0-5.514 4.487-10.001 10-10.001 5.516 0 10.002 4.487 10.002 10.002 0 6.512-6.188 13.629-9.885 17.881z"></path>
</symbol>
<symbol id="email" viewBox="0 0 32 32">
	<path d="M29.421 4.625h-26.841c-1.42 0-2.58 1.16-2.58 2.579v17.591c0 1.427 1.16 2.58 2.58 2.58h26.841c1.42 0 2.579-1.153 2.579-2.58v-17.591c0-1.419-1.159-2.579-2.579-2.579zM29.421 5.659c0.265 0 0.503 0.084 0.72 0.201l-12.924 11.272c-0.66 0.575-1.773 0.575-2.433 0l-12.92-11.273c0.217-0.116 0.453-0.2 0.716-0.2h26.841zM30.968 24.795c0 0.856-0.691 1.545-1.547 1.545h-26.841c-0.852 0-1.547-0.691-1.547-1.545v-17.591c0-0.211 0.044-0.409 0.12-0.592l10.492 9.152-5.912 5.54c-0.205 0.195-0.216 0.524-0.020 0.729 0.1 0.107 0.237 0.161 0.377 0.161 0.127 0 0.251-0.045 0.353-0.14l5.94-5.568c0.015-0.015 0.021-0.032 0.033-0.048l1.691 1.473c0.519 0.455 1.203 0.681 1.895 0.681 0.685 0 1.369-0.227 1.895-0.687l1.696-1.479c0.015 0.017 0.009 0.043 0.027 0.059l5.936 5.568c0.1 0.095 0.227 0.14 0.352 0.14 0.141 0 0.277-0.055 0.379-0.161 0.195-0.205 0.187-0.533-0.021-0.729l-5.912-5.54 10.493-9.151c0.077 0.183 0.12 0.383 0.12 0.592v17.589z"></path>
</symbol>
<symbol id="persone" viewBox="0 0 32 32">
	<path d="M16 32c-8.821 0-16-7.177-16-16 0-8.821 7.179-16 16-16s16 7.179 16 16c0 8.823-7.177 16-16 16v0zM16 0.971c-8.285 0-15.029 6.743-15.029 15.029 0 8.292 6.744 15.035 15.029 15.035 8.292 0 15.033-6.744 15.033-15.035 0.001-8.287-6.741-15.029-15.033-15.029v0z"></path>
	<path d="M16 32c-3.329 0-6.529-1.023-9.257-2.963-0.147-0.105-0.227-0.285-0.203-0.46 0.024-0.18 0.147-0.332 0.312-0.393 4.020-1.488 4.669-2.695 4.669-5.011 0-0.617-0.139-0.813-0.384-1.179-0.332-0.479-0.781-1.137-1.093-2.852-0.047-0.247-0.089-0.264-0.307-0.368-0.588-0.284-1.128-0.692-1.269-2.552 0-0.9 0.307-1.397 0.568-1.652-0.056-0.323-0.151-0.876-0.237-1.477-0.44-2.689-0.459-5.991 3.329-7.525 3.301-1.335 5.939-0.607 6.767 0.267 0.583 0.019 2.093 0.175 3.143 1.396 1.621 1.88 1.104 6.169 0.928 7.329 0.256 0.256 0.569 0.749 0.569 1.629-0.139 1.895-0.677 2.303-1.268 2.585-0.219 0.104-0.261 0.123-0.308 0.368-0.312 1.715-0.763 2.372-1.093 2.852-0.247 0.364-0.384 0.561-0.384 1.179 0 2.315 0.648 3.523 4.669 5.011 0.171 0.061 0.289 0.213 0.312 0.393s-0.052 0.355-0.199 0.46c-2.728 1.94-5.931 2.963-9.264 2.963v0zM8.064 28.757c2.391 1.491 5.113 2.277 7.936 2.277 2.821 0 5.549-0.787 7.936-2.277-3.367-1.387-4.427-2.78-4.427-5.584 0-0.915 0.269-1.305 0.559-1.724 0.293-0.431 0.657-0.967 0.937-2.481 0.137-0.728 0.559-0.932 0.843-1.069 0.299-0.143 0.612-0.295 0.72-1.749 0-0.743-0.336-0.941-0.347-0.951-0.18-0.099-0.293-0.317-0.255-0.523 0.237-1.287 0.635-5.307-0.663-6.817-0.885-1.027-2.283-1.056-2.547-1.047-0.043-0.005-0.085-0.005-0.129-0.015-0.128-0.032-0.34-0.143-0.407-0.256-0.26-0.449-2.559-1.36-5.731-0.075-3.133 1.271-3.139 3.989-2.731 6.479 0.132 0.928 0.279 1.732 0.279 1.732 0.037 0.224-0.071 0.436-0.275 0.531 0.005 0-0.327 0.204-0.327 0.976 0.109 1.419 0.417 1.567 0.72 1.713 0.28 0.133 0.705 0.336 0.839 1.069 0.279 1.512 0.648 2.047 0.943 2.476 0.289 0.417 0.553 0.815 0.553 1.725 0 2.809-1.056 4.207-4.428 5.589v0z"></path>
</symbol>
<symbol id="phone" viewBox="0 0 32 32">
	<path d="M25.723 32.001c-1.335 0-2.944-0.336-4.709-1.005-3.879-1.459-8.093-4.344-11.877-8.131-3.784-3.784-6.675-8.003-8.136-11.877-1.329-3.527-1.329-6.421-0.005-7.748 0.188-0.187 0.383-0.392 0.583-0.603 1.208-1.271 2.575-2.701 4.383-2.639 1.251 0.053 2.46 0.831 3.695 2.371 3.657 4.547 2.008 6.171 0.1 8.047l-0.336 0.336c-0.309 0.311-0.904 1.756 4.588 7.241 1.787 1.795 3.316 3.101 4.535 3.896 0.767 0.5 2.144 1.255 2.707 0.693l0.341-0.341c1.876-1.909 3.495-3.547 8.041 0.107 1.54 1.24 2.317 2.443 2.364 3.695 0.075 1.807-1.365 3.177-2.639 4.388-0.209 0.197-0.415 0.393-0.604 0.584-0.655 0.656-1.705 0.987-3.029 0.987v0zM5.835 1.077c-1.288 0-2.449 1.219-3.48 2.303-0.205 0.22-0.405 0.429-0.604 0.624-0.983 0.988-0.884 3.58 0.257 6.607 1.409 3.736 4.211 7.82 7.889 11.495 3.679 3.68 7.759 6.479 11.495 7.888 3.028 1.14 5.619 1.243 6.601 0.252 0.199-0.195 0.409-0.396 0.625-0.599 1.109-1.052 2.361-2.245 2.307-3.563-0.036-0.912-0.697-1.883-1.965-2.901-3.785-3.044-4.847-1.972-6.603-0.191l-0.347 0.347c-0.84 0.841-2.201 0.656-4.052-0.547-1.288-0.836-2.869-2.195-4.715-4.036-4.556-4.556-6.012-7.34-4.587-8.769l0.347-0.337c1.787-1.756 2.864-2.817-0.184-6.607-1.020-1.265-1.997-1.929-2.901-1.965-0.032 0-0.057 0-0.084 0v0z"></path>
</symbol>
<symbol id="phonecall" viewBox="0 0 32 32">
	<path d="M25.304 19.822c-0.656-0.682-1.447-1.046-2.285-1.046-0.833 0-1.631 0.357-2.314 1.040l-2.137 2.127c-0.177-0.095-0.352-0.183-0.521-0.27-0.244-0.121-0.475-0.236-0.671-0.358-2.001-1.27-3.821-2.925-5.565-5.064-0.846-1.068-1.414-1.966-1.827-2.878 0.555-0.506 1.069-1.034 1.569-1.54 0.19-0.189 0.379-0.385 0.568-0.574 1.421-1.418 1.421-3.255 0-4.674l-1.847-1.843c-0.208-0.21-0.425-0.427-0.628-0.642-0.405-0.42-0.832-0.851-1.271-1.256-0.656-0.65-1.44-0.993-2.266-0.993s-1.623 0.343-2.3 0.993l-0.013 0.013-2.3 2.316c-0.866 0.865-1.36 1.918-1.468 3.141-0.161 1.972 0.42 3.81 0.866 5.011 1.096 2.952 2.732 5.688 5.174 8.618 2.963 3.533 6.527 6.322 10.6 8.288 1.555 0.736 3.632 1.607 5.951 1.755 0.142 0.007 0.291 0.014 0.426 0.014 1.562 0 2.874-0.561 3.902-1.674 0.007-0.014 0.021-0.021 0.026-0.034 0.353-0.426 0.759-0.811 1.184-1.223 0.292-0.277 0.59-0.568 0.88-0.871 0.67-0.696 1.021-1.507 1.021-2.338 0-0.836-0.358-1.641-1.041-2.315l-3.713-3.723zM27.726 26.935c-0.008 0-0.008 0.006 0 0-0.265 0.283-0.535 0.54-0.826 0.824-0.438 0.418-0.886 0.856-1.305 1.351-0.684 0.729-1.488 1.073-2.543 1.073-0.102 0-0.21 0-0.312-0.007-2.009-0.128-3.876-0.912-5.275-1.581-3.829-1.85-7.19-4.478-9.983-7.807-2.307-2.776-3.849-5.342-4.869-8.099-0.63-1.682-0.86-2.992-0.758-4.228 0.067-0.791 0.371-1.445 0.933-2.007l2.307-2.302c0.332-0.312 0.683-0.48 1.028-0.48 0.426 0 0.771 0.258 0.987 0.474l0.020 0.021c0.412 0.385 0.805 0.783 1.217 1.209 0.211 0.215 0.427 0.432 0.643 0.656l1.847 1.843c0.717 0.716 0.717 1.378 0 2.094-0.196 0.196-0.386 0.393-0.582 0.581-0.567 0.581-1.108 1.121-1.696 1.648-0.015 0.014-0.027 0.021-0.034 0.033-0.582 0.581-0.474 1.148-0.353 1.532l0.021 0.062c0.48 1.162 1.157 2.257 2.185 3.56l0.007 0.007c1.867 2.297 3.835 4.087 6.006 5.457 0.278 0.176 0.562 0.317 0.833 0.452 0.243 0.122 0.473 0.237 0.669 0.359 0.027 0.014 0.054 0.033 0.081 0.047 0.229 0.114 0.446 0.168 0.67 0.168 0.562 0 0.913-0.351 1.028-0.466l2.313-2.311c0.229-0.229 0.595-0.506 1.021-0.506 0.419 0 0.765 0.264 0.974 0.493l3.74 3.735c0.696 0.689 0.696 1.399 0.006 2.115v0z"></path>
	<path d="M17.296 7.611c1.771 0.298 3.381 1.136 4.666 2.419 1.286 1.282 2.117 2.891 2.422 4.66 0.074 0.445 0.46 0.757 0.899 0.757 0.055 0 0.103-0.008 0.156-0.015 0.5-0.081 0.832-0.553 0.751-1.054-0.365-2.14-1.38-4.093-2.93-5.639-1.549-1.547-3.503-2.56-5.647-2.925-0.5-0.081-0.967 0.25-1.056 0.743-0.087 0.493 0.238 0.974 0.739 1.054v0z"></path>
	<path d="M31.986 14.116c-0.601-3.525-2.265-6.733-4.821-9.286-2.558-2.555-5.77-4.215-9.301-4.815-0.493-0.089-0.96 0.249-1.048 0.742-0.081 0.5 0.25 0.966 0.75 1.054 3.152 0.533 6.026 2.026 8.313 4.303 2.286 2.282 3.774 5.152 4.309 8.3 0.074 0.446 0.46 0.756 0.899 0.756 0.054 0 0.102-0.006 0.155-0.014 0.495-0.074 0.833-0.548 0.744-1.040v0z"></path>
</symbol>
<symbol id="equip-wc" viewBox="0 0 38 32">
	<path d="M37.996 11.665c-0.084-0.12-0.219-0.11-0.365-0.11h-13.335c-0.146 0-0.283-0.011-0.366 0.11s-0.101 0.189-0.050 0.327l6.667 17.778c0.065 0.174 0.231 0.288 0.415 0.288 0.185 0 0.351-0.094 0.416-0.267l6.667-17.757c0.051-0.137 0.033-0.248-0.050-0.368zM30.963 28.512l-6.025-16.068h12.051l-6.026 16.068z"></path>
	<path d="M30.836 8.724c1.961 0 3.556-1.595 3.556-3.555 0-1.961-1.594-3.556-3.556-3.556s-3.556 1.595-3.556 3.556c0 1.96 1.595 3.555 3.556 3.555zM30.836 2.502c1.47 0 2.667 1.197 2.667 2.667s-1.196 2.666-2.667 2.666-2.667-1.196-2.667-2.666c0-1.471 1.196-2.667 2.667-2.667z"></path>
	<path d="M7.369 11.662c-0.13-0.347-0.7-0.337-0.831 0.011l-6.659 17.824c-0.051 0.137-0.032 0.332 0.050 0.452s0.219 0.274 0.364 0.274h13.318c0.006 0 0.012 0 0.017 0 0.245 0 0.443-0.28 0.443-0.526 0-0.098-0.031-0.27-0.086-0.343l-6.617-17.692zM0.935 29.333l6.018-16.092 6.018 16.092h-12.037z"></path>
	<path d="M6.836 8.724c1.961 0 3.556-1.595 3.556-3.555 0-1.961-1.595-3.556-3.556-3.556s-3.556 1.595-3.556 3.556c0 1.96 1.595 3.555 3.556 3.555zM6.836 2.502c1.47 0 2.667 1.197 2.667 2.667s-1.196 2.666-2.667 2.666-2.667-1.196-2.667-2.666c0-1.471 1.196-2.667 2.667-2.667z"></path>
	<path d="M18.519 0h0.889v32h-0.889v-32z"></path>
</symbol>
<symbol id="equip-retail" viewBox="0 0 38 32">
	<path d="M31.852 19.556v1.778h-12.444v-8.889h10.667v-2.667h-0.889v1.778h-9.778v-8.889h8v-2.667h-0.889v1.778h-7.111v-1.778h-0.889v1.778h-7.111v-1.778h-0.889v2.667h8v8.889h-9.778v-1.778h-0.889v2.667h10.667v8.889h-12.444v-1.778h-0.889v2.667h13.333v6.222h-10.667v3.556h22.222v-3.556h-10.667v-6.222h13.333v-2.667h-0.889zM29.185 29.333v1.778h-20.444v-1.778h20.444z"></path>
</symbol>
<symbol id="equip-pizza" viewBox="0 0 38 32">
	<path d="M33.955 5.16c0.29 0 0.526-0.232 0.526-0.517 0-0.286-0.235-0.519-0.526-0.519h-10.846v-3.618c0-0.279-0.226-0.505-0.504-0.505h-7.284c-0.279 0-0.505 0.226-0.505 0.505v3.618h-10.844c-0.29 0-0.526 0.233-0.526 0.519 0 0.285 0.235 0.517 0.526 0.517h0.48v23.989l-0.113 0.024c-0.24 0.051-0.415 0.264-0.415 0.507 0 0.286 0.235 0.519 0.523 0.519h1.035v1.279c0 0.289 0.233 0.524 0.519 0.524 0.284 0 0.517-0.235 0.517-0.523v-1.279h24.73v1.279c0 0.289 0.233 0.523 0.52 0.523s0.519-0.235 0.519-0.523v-1.279h1.393c0.29 0 0.526-0.233 0.526-0.519 0-0.284-0.235-0.517-0.526-0.517h-0.363v-24.003h0.638zM15.826 1.009h6.274v3.114h-6.274v-3.114zM32.279 29.16h-26.791v-6.576h26.791v6.576zM23.026 21.229c0.639-0.886 0.985-1.988 0.978-3.104-0.018-2.508-1.752-4.785-1.949-5.036-0.101-0.123-0.256-0.197-0.414-0.197-0.172 0.005-0.328 0.087-0.423 0.222l-0.27 0.379-0.104-0.225c-0.286-0.622-0.761-1.502-1.405-2.164-0.177-0.184-0.578-0.185-0.751-0.002-0.649 0.667-1.123 1.545-1.407 2.167l-0.103 0.227-0.27-0.383c-0.094-0.133-0.25-0.215-0.414-0.217-0.167 0-0.322 0.070-0.422 0.194-0.198 0.249-1.93 2.506-1.951 5.038-0.008 1.116 0.34 2.218 0.98 3.106l0.164 0.227h-5.656v-10.18l0.331-0.031c0.375-0.207 4.053-2.127 8.99-2.127 4.856 0 8.526 1.867 9.017 2.129l0.209 0.041v10.165h-5.294l0.163-0.226zM21.436 21.39c0 0.004-0.010 0.015-0.023 0.028l-0.041 0.038h-4.61l-0.068-0.067c-0.959-0.72-1.533-1.941-1.523-3.255 0.012-1.463 0.756-2.897 1.198-3.622l0.113-0.185 0.28 0.396c0.203 0.284 0.297 0.401 0.558 0.401 0.217 0 0.415-0.14 0.492-0.348l0.013-0.037c0.103-0.308 0.487-1.391 1.121-2.3l0.117-0.169 0.117 0.169c0.625 0.897 1.018 1.991 1.124 2.306l0.015 0.049c0.073 0.194 0.271 0.329 0.489 0.329 0.259 0 0.351-0.116 0.555-0.401l0.28-0.396 0.113 0.185c0.54 0.882 1.188 2.227 1.199 3.623 0.011 1.307-0.557 2.524-1.52 3.256zM32.279 21.546h-3.085v-10.571c0-0.227-0.274-0.411-0.328-0.446-0.162-0.1-4.091-2.456-9.762-2.456-5.795 0-9.964 2.432-10.005 2.458-0.021 0.014-0.054 0.033-0.089 0.052-0.193 0.11-0.435 0.245-0.435 0.391v10.571h-3.087v-16.386h26.791v16.386z"></path>
	<path d="M15.288 26.535h7.351c0.288 0 0.523-0.232 0.523-0.516 0-0.287-0.235-0.52-0.523-0.52h-7.351c-0.287 0-0.522 0.233-0.522 0.52 0 0.285 0.235 0.516 0.522 0.516z"></path>
</symbol>
<symbol id="equip-pack" viewBox="0 0 38 32">
	<path d="M29.271 1.173l-2.558-0.853-2.583 0.861-2.583-0.861-2.583 0.861-2.583-0.861-2.583 0.861-2.585-0.862-2.459 0.854-2.706-1.16v31.987l2.606-1.173 2.559 0.853 2.583-0.861 2.583 0.861 2.583-0.86 2.583 0.861 2.583-0.861 2.585 0.862 2.456-0.854 2.706 1.16v-31.988l-2.605 1.173zM31.016 30.681l-1.814-0.778-2.494 0.868-2.58-0.86-2.583 0.86-2.583-0.859-2.583 0.86-2.583-0.86-2.583 0.86-2.606-0.868-1.698 0.764v-1.593h24.105v1.607zM31.016 28.213h-24.105v-24.104h24.105v24.104zM31.016 3.247h-24.105v-1.928l1.813 0.778 2.494-0.868 2.58 0.86 2.583-0.861 2.583 0.861 2.583-0.861 2.583 0.861 2.583-0.861 2.605 0.869 1.698-0.765v1.915z"></path>
	<path d="M14.561 20.873c0.16 0.436 0.504 1.313 0.916 1.973 0.526 0.84 1.53 2.006 2.188 2.401 0.258 0.155 0.479 0.217 0.674 0.217 0.29 0 0.521-0.142 0.734-0.324 0.789 0.372 2.627 1.132 3.495 1.241 0.163 0.020 0.322 0.030 0.475 0.030 0.858 0 1.545-0.315 1.885-0.881 0.281-0.469 0.466-1.213-0.248-2.105-0.399-0.5-1.168-1.655-1.5-2.369 0.095-0.364 0.046-0.743-0.188-1.135-0.191-0.317-0.247-0.648-0.3-0.971-0.013-0.079-0.029-0.151-0.043-0.225 0.078-0.165 0.115-0.357 0.076-0.589-0.104-0.622-0.203-3.79-0.11-4.258 0.030-0.146 0.027-0.269 0.012-0.383 0.024-0.108 0.046-0.22 0.065-0.338 0.054-0.322 0.11-0.654 0.3-0.972 0.235-0.391 0.284-0.769 0.188-1.135 0.333-0.714 1.101-1.87 1.5-2.369 0.713-0.892 0.529-1.637 0.248-2.105-0.4-0.668-1.282-0.988-2.36-0.852-0.868 0.108-2.701 0.868-3.492 1.24-0.357-0.305-0.77-0.49-1.41-0.105-0.658 0.395-1.663 1.56-2.188 2.401-0.425 0.68-0.777 1.589-0.93 2.011-0.628 0.062-0.93 0.665-1.146 1.169-0.064 0.149-0.141 0.302-0.223 0.465-0.329 0.655-0.78 1.552-0.78 2.933 0 1.693 0.969 3.977 1.229 4.496 0.165 0.333 0.484 0.508 0.933 0.539zM18.766 24.25c-0.408 0.408-0.407 0.408-0.658 0.258-0.475-0.284-1.398-1.314-1.901-2.119-0.309-0.493-0.584-1.148-0.752-1.586 0.044-0.008 0.090-0.014 0.135-0.021 0.674-0.112 5.193-1.082 5.63-1.191 0.161-0.040 0.417-0.107 0.673-0.217 0.060 0.303 0.154 0.645 0.361 0.991 0.175 0.293 0.203 0.517-0.151 0.873-0.206 0.207-0.94 0.857-1.65 1.49-0.753 0.667-1.462 1.299-1.687 1.522zM22.648 21.905c0.409 0.737 0.999 1.607 1.359 2.058 0.434 0.542 0.326 0.885 0.183 1.123-0.217 0.362-0.796 0.531-1.515 0.441-0.644-0.081-2.065-0.642-2.921-1.022 0.331-0.3 0.804-0.721 1.27-1.135 0.705-0.626 1.358-1.208 1.623-1.464zM22.676 6.58c0.718-0.092 1.297 0.079 1.515 0.44 0.143 0.238 0.251 0.581-0.183 1.124-0.361 0.451-0.95 1.321-1.359 2.057-0.265-0.257-0.918-0.837-1.623-1.464-0.466-0.414-0.939-0.835-1.27-1.135 0.855-0.38 2.277-0.942 2.921-1.022zM16.207 9.717c0.503-0.805 1.426-1.835 1.901-2.119 0.251-0.15 0.249-0.151 0.658 0.258 0.225 0.224 0.934 0.856 1.687 1.524 0.709 0.631 1.444 1.283 1.65 1.489 0.354 0.354 0.326 0.58 0.151 0.873-0.206 0.342-0.3 0.681-0.359 0.983-0.129-0.046-0.253-0.078-0.351-0.102-0.383-0.096-4.9-0.986-6.123-1.224 0.162-0.434 0.454-1.148 0.788-1.682zM13.948 13.292c0.090-0.18 0.175-0.348 0.245-0.513 0.238-0.556 0.343-0.665 0.441-0.665 0.037 0 0.103 0.008 0.263 0.057 2.081 0.408 6.104 1.204 6.436 1.286 0.138 0.035 0.398 0.1 0.441 0.154 0 0 0.009 0.027-0.006 0.098-0.121 0.605-0.004 3.911 0.105 4.567 0.042 0.254-0.616 0.418-0.863 0.481-0.414 0.103-4.929 1.071-5.563 1.176-0.267 0.045-0.542 0.090-0.756 0.090-0.001 0-0.001 0-0.001 0-0.096 0-0.261-0.009-0.293-0.073-0.187-0.374-1.138-2.596-1.138-4.112-0.001-1.176 0.366-1.903 0.689-2.545z"></path>
</symbol>
<symbol id="equip-neutral" viewBox="0 0 38 32">
	<path d="M32.741 0h-8c-0.343 0-0.653 0.134-0.889 0.347-0.236-0.213-0.546-0.347-0.889-0.347h-8c-0.343 0-0.653 0.134-0.889 0.347-0.236-0.213-0.546-0.347-0.889-0.347h-8c-0.735 0-1.333 0.598-1.333 1.333v27.556c0 0.579 0.373 1.068 0.889 1.252v1.86h0.889v-1.778h7.111v1.778h0.889v-1.86c0.165-0.059 0.316-0.149 0.444-0.265 0.129 0.116 0.279 0.207 0.444 0.265v1.86h0.889v-1.778h7.111v1.778h0.889v-1.86c0.165-0.059 0.316-0.149 0.444-0.265 0.129 0.116 0.279 0.207 0.444 0.265v1.86h0.889v-1.778h7.111v1.778h0.889v-1.86c0.516-0.184 0.889-0.673 0.889-1.252v-27.556c0-0.735-0.599-1.333-1.333-1.333zM13.185 29.333h-8c-0.245 0-0.444-0.2-0.444-0.444v-27.556c0-0.245 0.2-0.444 0.444-0.444h8c0.245 0 0.444 0.199 0.444 0.444v27.556c0 0.245-0.2 0.444-0.444 0.444zM22.963 29.333h-8c-0.245 0-0.444-0.2-0.444-0.444v-27.556c0-0.245 0.2-0.444 0.444-0.444h8c0.245 0 0.444 0.199 0.444 0.444v27.556c0 0.245-0.2 0.444-0.444 0.444zM33.185 28.889c0 0.245-0.2 0.444-0.444 0.444h-8c-0.245 0-0.444-0.2-0.444-0.444v-27.556c0-0.245 0.2-0.444 0.444-0.444h8c0.245 0 0.444 0.199 0.444 0.444v27.556z"></path>
	<path d="M6.963 17.333c0.245 0 0.444-0.199 0.444-0.444v-2.667c0-0.246-0.199-0.444-0.444-0.444s-0.444 0.199-0.444 0.444v2.667c0 0.245 0.199 0.444 0.444 0.444z"></path>
	<path d="M6.519 24.889h5.333v0.889h-5.333v-0.889z"></path>
	<path d="M6.519 26.667h5.333v0.889h-5.333v-0.889z"></path>
	<path d="M16.296 24.889h5.333v0.889h-5.333v-0.889z"></path>
	<path d="M16.296 26.667h5.333v0.889h-5.333v-0.889z"></path>
	<path d="M26.074 24.889h5.333v0.889h-5.333v-0.889z"></path>
	<path d="M26.074 26.667h5.333v0.889h-5.333v-0.889z"></path>
	<path d="M16.741 17.333c0.245 0 0.444-0.199 0.444-0.444v-2.667c0-0.246-0.199-0.444-0.444-0.444s-0.444 0.199-0.444 0.444v2.667c0 0.245 0.199 0.444 0.444 0.444z"></path>
	<path d="M26.519 17.333c0.245 0 0.444-0.199 0.444-0.444v-2.667c0-0.246-0.199-0.444-0.444-0.444s-0.444 0.199-0.444 0.444v2.667c0 0.245 0.199 0.444 0.444 0.444z"></path>
</symbol>
<symbol id="equip-laundary" viewBox="0 0 38 32">
	<path d="M31.852 0h-25.778c-0.735 0-1.333 0.598-1.333 1.333v29.333c0 0.735 0.598 1.333 1.333 1.333h25.778c0.735 0 1.333-0.599 1.333-1.333v-29.333c0-0.735-0.599-1.333-1.333-1.333zM32.296 30.667c0 0.245-0.2 0.444-0.444 0.444h-25.778c-0.245 0-0.444-0.2-0.444-0.444v-29.333c0-0.245 0.2-0.444 0.444-0.444h25.778c0.245 0 0.444 0.199 0.444 0.444v29.333z"></path>
	<path d="M18.963 8.889c-5.391 0-9.778 4.386-9.778 9.778s4.386 9.778 9.778 9.778 9.778-4.386 9.778-9.778-4.386-9.778-9.778-9.778zM18.963 27.556c-4.901 0-8.889-3.988-8.889-8.889s3.988-8.889 8.889-8.889 8.889 3.988 8.889 8.889-3.988 8.889-8.889 8.889z"></path>
	<path d="M18.963 11.556c-3.921 0-7.111 3.19-7.111 7.111s3.19 7.111 7.111 7.111 7.111-3.19 7.111-7.111-3.19-7.111-7.111-7.111zM18.963 24.889c-2.793 0-5.162-1.851-5.946-4.391 0.74-0.6 1.645-0.943 2.61-0.943 1.115 0 2.163 0.434 2.952 1.224 0.956 0.958 2.228 1.484 3.58 1.484 0.781 0 1.527-0.194 2.209-0.528-1.071 1.881-3.091 3.153-5.405 3.153zM25.185 18.667c0 0.556-0.080 1.090-0.217 1.603-0.772 0.707-1.757 1.105-2.809 1.105-1.115 0-2.162-0.434-2.951-1.224-0.958-0.956-2.229-1.484-3.58-1.484-1.020 0-1.992 0.301-2.821 0.859-0.038-0.282-0.066-0.568-0.066-0.859 0-0.233 0.015-0.462 0.040-0.689 0.777-0.728 1.778-1.136 2.847-1.136 1.115 0 2.163 0.434 2.952 1.224 0.956 0.956 2.228 1.484 3.58 1.484 1.107 0 2.149-0.37 3.019-1.023 0.001 0.047 0.007 0.092 0.007 0.139zM22.159 18.661c-1.115 0-2.162-0.434-2.951-1.224-0.958-0.958-2.229-1.485-3.58-1.485-0.914 0-1.781 0.258-2.549 0.709 0.836-2.449 3.155-4.217 5.884-4.217 3.023 0 5.546 2.168 6.105 5.029-0.785 0.763-1.814 1.188-2.909 1.188z"></path>
	<path d="M30.519 4.889c0 0.736-0.597 1.333-1.333 1.333s-1.333-0.597-1.333-1.333c0-0.736 0.597-1.333 1.333-1.333s1.333 0.597 1.333 1.333z"></path>
	<path d="M26.074 6.667v-3.556c0-0.246-0.199-0.444-0.444-0.444h-17.778c-0.246 0-0.444 0.199-0.444 0.444v3.556c0 0.246 0.199 0.444 0.444 0.444h17.778c0.245 0 0.444-0.199 0.444-0.444zM25.185 6.222h-16.889v-2.667h16.889v2.667z"></path>
</symbol>
<symbol id="equip-heat" viewBox="0 0 38 32">
	<path d="M31.852 1.778h-25.778c-0.735 0-1.333 0.598-1.333 1.333v24.889c0 0.735 0.599 1.333 1.333 1.333h0.444v2.222c0 0.245 0.199 0.444 0.444 0.444h24c0.245 0 0.444-0.199 0.444-0.444v-2.222h0.444c0.735 0 1.333-0.599 1.333-1.333v-24.889c0-0.735-0.599-1.333-1.333-1.333zM5.63 3.111c0-0.245 0.2-0.444 0.444-0.444h25.778c0.245 0 0.444 0.2 0.444 0.444v1.333h-26.667v-1.333zM30.519 31.111h-23.111v-1.778h23.111v1.778zM32.296 28c0 0.245-0.2 0.444-0.444 0.444h-25.778c-0.245 0-0.444-0.2-0.444-0.444v-22.667h26.667v22.667z"></path>
	<path d="M21.614 8.889h0.004c0.236 0 0.457-0.073 0.625-0.241 0.17-0.169 0.264-0.385 0.264-0.626 0-0.238-0.092-0.473-0.26-0.639s-0.393-0.272-0.631-0.272c-0.005 0-0.007 0-0.009 0-0.491 0-0.876 0.408-0.88 0.898-0.002 0.239 0.090 0.455 0.259 0.625 0.166 0.169 0.39 0.255 0.628 0.255z"></path>
	<path d="M16.614 8.889h0.004c0.236 0 0.457-0.073 0.625-0.241 0.17-0.169 0.264-0.385 0.264-0.626 0-0.238-0.092-0.473-0.26-0.639-0.167-0.167-0.391-0.272-0.631-0.272h-0.009c-0.489 0-0.876 0.408-0.88 0.898-0.002 0.239 0.090 0.455 0.259 0.625 0.167 0.169 0.391 0.255 0.628 0.255z"></path>
	<path d="M11.614 8.889h0.004c0.235 0 0.457-0.073 0.625-0.241 0.17-0.169 0.264-0.385 0.264-0.626 0-0.238-0.092-0.473-0.26-0.639s-0.392-0.272-0.631-0.272c-0.002 0-0.009 0-0.009 0-0.49 0-0.876 0.408-0.88 0.898-0.002 0.239 0.090 0.455 0.258 0.625 0.167 0.169 0.391 0.255 0.629 0.255z"></path>
	<path d="M26.614 8.889h0.004c0.235 0 0.457-0.073 0.625-0.241 0.17-0.169 0.264-0.385 0.264-0.626 0-0.238-0.092-0.473-0.26-0.639s-0.392-0.272-0.631-0.272c-0.001 0-0.009 0-0.009 0-0.49 0-0.878 0.408-0.88 0.898-0.002 0.239 0.090 0.455 0.258 0.625 0.167 0.169 0.39 0.255 0.629 0.255z"></path>
	<path d="M14.519 14.222h8.889c0.245 0 0.444-0.199 0.444-0.444s-0.199-0.444-0.444-0.444h-8.889c-0.245 0-0.444 0.199-0.444 0.444s0.199 0.444 0.444 0.444z"></path>
	<path d="M9.63 25.778h18.667c0.735 0 1.333-0.599 1.333-1.333v-12.444c0-0.735-0.599-1.333-1.333-1.333h-18.667c-0.735 0-1.333 0.599-1.333 1.333v12.444c0 0.735 0.599 1.333 1.333 1.333zM9.185 12c0-0.245 0.2-0.444 0.444-0.444h18.667c0.245 0 0.444 0.2 0.444 0.444v12.444c0 0.245-0.2 0.444-0.444 0.444h-18.667c-0.245 0-0.444-0.2-0.444-0.444v-12.444z"></path>
	<path d="M10.074 0.889h6.222c0.245 0 0.444-0.199 0.444-0.444s-0.199-0.444-0.444-0.444h-6.222c-0.245 0-0.444 0.199-0.444 0.444s0.199 0.444 0.444 0.444z"></path>
	<path d="M22.519 0.889h6.222c0.245 0 0.444-0.199 0.444-0.444s-0.199-0.444-0.444-0.444h-6.222c-0.245 0-0.444 0.199-0.444 0.444s0.199 0.444 0.444 0.444z"></path>
</symbol>
<symbol id="equip-emechanical" viewBox="0 0 38 32">
	<path d="M6.519 25.778c0.245 0 0.444-0.199 0.444-0.444v-4.444c0-0.245-0.199-0.444-0.444-0.444s-0.444 0.199-0.444 0.444v4.444c0 0.245 0.199 0.444 0.444 0.444z"></path>
	<path d="M9.185 25.778c0.245 0 0.444-0.199 0.444-0.444v-4.444c0-0.245-0.199-0.444-0.444-0.444s-0.444 0.199-0.444 0.444v4.444c0 0.245 0.199 0.444 0.444 0.444z"></path>
	<path d="M11.852 25.778c0.245 0 0.444-0.199 0.444-0.444v-4.444c0-0.245-0.199-0.444-0.444-0.444s-0.444 0.199-0.444 0.444v4.444c0 0.245 0.199 0.444 0.444 0.444z"></path>
	<path d="M34.963 10.667h-3.556c-0.245 0-0.444 0.199-0.444 0.444v2.222h-1.778v-8.151l4.174-1.774c0.164-0.069 0.271-0.231 0.271-0.409v-2.111h0.444c0.245 0 0.444-0.199 0.444-0.444s-0.199-0.444-0.444-0.444h-20.444c-0.245 0-0.444 0.199-0.444 0.444s0.199 0.444 0.444 0.444h0.444v2.111c0 0.216 0.155 0.4 0.367 0.437l10.3 1.817v8.079h-0.889c-0.055 0-0.105 0.012-0.154 0.031-1.65-2.113-3.697-3.587-6.18-3.587h-13.666c-0.735 0-1.333 0.599-1.333 1.333v16.889c0 0.735 0.599 1.333 1.333 1.333h0.444v2.222c0 0.245 0.199 0.444 0.444 0.444h4.444c0.191 0 0.361-0.123 0.422-0.304l0.788-2.363h11.803l0.788 2.363c0.061 0.181 0.231 0.304 0.422 0.304h4.444c0.245 0 0.444-0.199 0.444-0.444v-2.292c0.419-0.116 0.833-0.427 0.833-1.264 0-1.092-0.668-4.713-2.099-8.444h3.932v2.222c0 0.245 0.199 0.444 0.444 0.444h3.556c0.245 0 0.444-0.199 0.444-0.444v-10.667c0-0.245-0.199-0.444-0.444-0.444zM14.963 0.889h17.778v1.817l-4.091 1.739h-3.426l-10.261-1.817v-1.739zM25.63 5.333h2.667v8h-2.667v-8zM3.407 28v-16.889c0-0.245 0.2-0.444 0.444-0.444h9.333c7.123 0 10.722 14.407 10.722 17.333 0 0.428-0.069 0.444-0.611 0.444h-19.445c-0.245 0-0.444-0.2-0.444-0.444zM8.865 31.111h-3.679v-1.778h4.273l-0.593 1.778zM27.407 31.111h-3.679l-0.593-1.778h4.273v1.778zM27.63 28.444h-2.881c0.030-0.129 0.047-0.276 0.047-0.444 0-2.139-2.568-13.986-8.411-17.333h1.134c7.123 0 10.722 14.407 10.722 17.333-0.001 0.428-0.070 0.444-0.612 0.444zM26.675 18.667c-0.648-1.554-1.427-3.094-2.348-4.444h6.636v4.444h-4.288zM34.519 21.333h-2.667v-9.778h2.667v9.778z"></path>
</symbol>
<symbol id="equip-dishes" viewBox="0 0 38 32">
	<path d="M35.493 14.588c0-3.077-1.297-5.851-3.365-7.823-2.136-4.019-6.363-6.764-11.224-6.764-4.060 0-7.672 1.921-10 4.894v-1.6c0-0.26-0.21-0.471-0.471-0.471h-7.529c-0.26 0-0.471 0.21-0.471 0.471v6.588c0 3.031 2.265 4.041 3.77 4.207 0 0.011-0.005 0.018-0.005 0.028v5.647h-3.765v12.235h3.765v-2.824h25.412v2.824h3.765v-12.235h-1.204c0.841-1.538 1.321-3.303 1.321-5.177zM20.904 0.941c3.585 0 6.795 1.617 8.954 4.153-1.542-0.846-3.31-1.33-5.189-1.33-5.968 0-10.824 4.855-10.824 10.823 0 3.172 1.378 6.018 3.559 8h-1.51l-2.803-2.824h-1.576c-1.353-1.796-2.2-3.985-2.34-6.366 0.956-0.621 1.73-1.707 1.73-3.516v-3.343c2.076-3.352 5.776-5.597 10-5.597zM3.375 9.882v-6.117h6.588v6.117c0 1.097-0.348 1.825-0.798 2.313-0.297 0.324-0.638 0.544-0.958 0.689-0.574 0.26-1.068 0.292-1.068 0.292h-0.252c-0.135 0-3.513-0.055-3.513-3.294zM7.135 14.094c0.353-0.035 0.736-0.112 1.122-0.247 0.194 2.175 0.935 4.195 2.091 5.917h-3.208v-5.647c0-0.009-0.005-0.015-0.005-0.024zM5.257 31.059h-1.882v-1.883h1.882v1.883zM34.433 31.059h-1.882v-1.883h1.883v1.883zM34.433 20.706v7.529h-31.058v-7.529h9.324l2.804 2.823h7.522l2.347-2.824h9.061zM24.93 19.765l-0.341 0.41c-3.045-0.043-5.511-2.531-5.511-5.587 0-3.083 2.507-5.591 5.591-5.591 3.081 0 5.589 2.508 5.589 5.591 0 2.338-1.444 4.344-3.486 5.176h-1.842zM31.461 19.765h-2.897c1.57-1.185 2.593-3.061 2.593-5.176 0-3.577-2.911-6.488-6.488-6.488-3.578 0-6.489 2.911-6.489 6.488 0 3.311 2.494 6.046 5.703 6.436l-1.3 1.564h-3.692c-2.481-1.797-4.104-4.709-4.104-8 0-5.449 4.433-9.882 9.883-9.882 2.583 0 4.928 1.003 6.691 2.631 0.734 0.679 1.366 1.463 1.867 2.334 0.837 1.45 1.323 3.127 1.323 4.917 0 1.899-0.548 3.669-1.48 5.176h-1.61z"></path>
</symbol>
<symbol id="equip-cookware" viewBox="0 0 38 32">
	<path d="M34.708 20.68c-0.156-0.158-0.369-0.236-0.634-0.236h-2.703c-0.234-1.724-1.83-3.048-4.408-3.785v-5.992h2.667v-0.889h-2.695c-0.226-3.326-2.952-5.833-7.083-6.738v-1.707c0-0.735-0.598-1.333-1.333-1.333h-4.444c-0.735 0-1.333 0.598-1.333 1.333v1.707c-4.133 0.904-6.857 3.412-7.083 6.738h-2.695v0.889h2.667v13.777c0 1.225 0.997 2.223 2.222 2.223h4v3.111c0 1.224 0.997 2.222 2.222 2.222h15.111c1.225 0 2.222-0.998 2.222-2.222v-5.778h2.667c0.265 0 0.478-0.080 0.634-0.236 0.26-0.264 0.255-0.629 0.255-0.983v-1.118c0-0.354 0.005-0.719-0.255-0.983zM30.473 20.444h-17.687c0.383-1.835 3.16-3.556 8.843-3.556 1.753 0 3.228 0.165 4.444 0.446 0.315 0.073 0.609 0.154 0.889 0.242 2.14 0.67 3.276 1.747 3.51 2.868zM23.407 16.065c-0.57-0.040-1.159-0.065-1.777-0.065s-1.208 0.025-1.778 0.065v-1.399c0-0.245 0.2-0.444 0.444-0.444h2.667c0.245 0 0.444 0.199 0.444 0.444v1.399zM13.63 1.333c0-0.245 0.199-0.444 0.444-0.444h4.444c0.245 0 0.444 0.2 0.444 0.444v1.543c-0.844-0.132-1.731-0.209-2.667-0.209-0.935 0-1.822 0.077-2.666 0.209v-1.543zM16.296 3.556c5.538 0 9.468 2.536 9.761 6.222h-19.521c0.292-3.687 4.223-6.222 9.76-6.222zM7.852 25.778c-0.735 0-1.333-0.599-1.333-1.334v-13.777h19.555v5.769c-0.556-0.121-1.148-0.217-1.778-0.288v-1.481c0-0.735-0.598-1.334-1.333-1.334h-2.667c-0.735 0-1.333 0.599-1.333 1.334v1.481c-4.126 0.465-6.769 2.038-7.074 4.296h-2.259c-0.735 0-1.334 0.599-1.334 1.334v0.889c0 0.735 0.599 1.333 1.334 1.333h2.222v1.778h-4zM11.852 23.111h-2.222c-0.245 0-0.444-0.199-0.444-0.444v-0.889c0-0.245 0.2-0.445 0.444-0.445h2.222v1.778zM30.519 29.778c0 0.735-0.599 1.333-1.333 1.333h-15.111c-0.735 0-1.333-0.598-1.333-1.333v-8.445h17.778v8.445zM34.073 21.778v1.010c0 0.1 0.003 0.239-0.007 0.322h-2.66v-1.777l2.66 0.004c0.009 0.084 0.007 0.22 0.007 0.318v0.122z"></path>
</symbol>
<symbol id="equip-cold" viewBox="0 0 38 32">
	<path d="M32.343 0h-26.76c-0.961 0-1.743 0.782-1.743 1.743v26.622c0 0.96 0.781 1.742 1.742 1.742h0.15v0.466c0 0.786 0.641 1.426 1.427 1.426h1.892c0.788 0 1.428-0.64 1.428-1.426v-0.466h16.967v0.466c0 0.786 0.64 1.426 1.428 1.426h1.892c0.787 0 1.427-0.64 1.427-1.426v-0.466h0.15c0.961 0 1.742-0.782 1.742-1.742v-26.622c0.002-0.961-0.78-1.743-1.741-1.743zM4.802 3.486h6.993v0.78c0 0.431-0.35 0.78-0.78 0.78h-6.213v-1.561zM9.518 30.574c0 0.251-0.213 0.465-0.466 0.465h-1.892c-0.252 0-0.465-0.213-0.465-0.465v-0.466h2.823v0.466zM31.231 30.574c0 0.251-0.213 0.465-0.465 0.465h-1.892c-0.252 0-0.465-0.213-0.465-0.465v-0.466h2.823v0.466zM33.124 28.365c0 0.431-0.35 0.781-0.78 0.781h-26.76c-0.431 0-0.78-0.351-0.78-0.781v-22.356h6.213c0.961 0 1.742-0.782 1.742-1.743v-0.78h20.366v24.879zM33.124 2.523h-28.321v-0.78c0-0.431 0.35-0.78 0.78-0.78h26.76c0.431 0 0.78 0.35 0.78 0.78v0.78z"></path>
	<path d="M16.073 16.315l-1.688 1.399c-0.204 0.169-0.232 0.473-0.063 0.678 0.087 0.105 0.229 0.169 0.376 0.169 0.113 0 0.22-0.037 0.301-0.105l2.002-1.659h1.481v1.48l-0.034 0.041-1.624 1.962c-0.082 0.098-0.121 0.223-0.109 0.352s0.073 0.243 0.171 0.325c0.193 0.156 0.524 0.125 0.678-0.063l1.399-1.688 1.399 1.688c0.087 0.105 0.228 0.169 0.374 0.169 0.114 0 0.222-0.037 0.304-0.105 0.098-0.082 0.159-0.196 0.171-0.325s-0.027-0.254-0.109-0.352l-1.658-2.003v-1.481h1.481l0.041 0.035 1.96 1.624c0.082 0.068 0.189 0.105 0.303 0.105 0.147 0 0.287-0.063 0.374-0.169 0.084-0.099 0.121-0.223 0.11-0.351s-0.073-0.244-0.172-0.327l-1.688-1.399 1.688-1.399c0.204-0.168 0.232-0.472 0.063-0.678-0.087-0.105-0.227-0.167-0.375-0.167-0.114 0-0.222 0.037-0.304 0.105l-2.001 1.658h-1.481v-1.481l0.034-0.041 1.624-1.96c0.082-0.099 0.121-0.223 0.109-0.352-0.012-0.127-0.073-0.243-0.171-0.325-0.082-0.068-0.19-0.105-0.303-0.105-0.148 0-0.287 0.063-0.375 0.169l-1.399 1.688-1.399-1.688c-0.088-0.105-0.229-0.169-0.376-0.169-0.113 0-0.22 0.037-0.302 0.105-0.098 0.082-0.159 0.198-0.171 0.325-0.012 0.129 0.027 0.253 0.109 0.352l1.658 2.001v1.481h-1.482l-0.041-0.036-1.959-1.622c-0.082-0.068-0.19-0.106-0.304-0.106-0.148 0-0.287 0.063-0.375 0.168-0.082 0.1-0.12 0.225-0.108 0.353 0.012 0.127 0.073 0.243 0.171 0.324l1.688 1.399z"></path>
	<path d="M18.963 11.047c0.265 0 0.481-0.216 0.481-0.481v-0.036c0-0.265-0.215-0.481-0.481-0.481s-0.481 0.216-0.481 0.481v0.036c0 0.265 0.216 0.481 0.481 0.481z"></path>
	<path d="M13.177 16.796h0.036c0.265 0 0.481-0.215 0.481-0.481 0-0.265-0.215-0.481-0.481-0.481h-0.036c-0.265 0-0.481 0.215-0.481 0.481s0.216 0.481 0.481 0.481z"></path>
	<path d="M18.963 21.585c-0.265 0-0.481 0.215-0.481 0.481v0.036c0 0.265 0.215 0.48 0.481 0.48s0.481-0.215 0.481-0.48v-0.036c0-0.266-0.216-0.481-0.481-0.481z"></path>
	<path d="M24.712 16.796h0.036c0.265 0 0.481-0.215 0.481-0.481 0-0.265-0.215-0.481-0.481-0.481h-0.036c-0.265 0-0.481 0.215-0.481 0.481s0.216 0.481 0.481 0.481z"></path>
</symbol>
<symbol id="equip-coffee" viewBox="0 0 38 32">
	<path d="M29.169 23.604c2.125 0 3.79-1.639 3.79-3.732 0-2.074-1.636-3.7-3.732-3.729v-2.802h-22.392v4.665c0 2.854 1.769 6.661 5.052 8.396h-6.918v0.466c0 2.83 2.302 5.131 5.132 5.131h15.86c2.829 0 5.131-2.301 5.131-5.131v-0.466h-6.902c1.303-0.69 2.361-1.713 3.17-2.87v0.071h1.809zM32.025 19.871c0 1.569-1.255 2.799-2.856 2.799h-1.262c0.868-1.539 1.319-3.223 1.319-4.665v-0.927c1.573 0.029 2.799 1.244 2.799 2.793zM30.133 27.336c-0.233 2.097-2.015 3.732-4.173 3.732h-15.861c-2.158 0-3.94-1.635-4.173-3.732h24.207zM20.39 26.402h-4.692c-5.28 0-7.93-5.383-7.93-8.396v-3.732h20.525v3.732c0 3.015-2.641 8.397-7.903 8.397z"></path>
	<path d="M15.434 7.116c0.557 0.242 0.73 0.36 0.73 0.627v2.332c0 0.258 0.209 0.467 0.466 0.467s0.466-0.209 0.466-0.467v-2.332c0-0.922-0.777-1.259-1.292-1.482-0.397-0.172-0.574-0.269-0.574-0.383v-1.161c0-0.529 0.27-0.66 1.040-0.9 0.7-0.219 1.759-0.549 1.759-1.899v-1.451c0-0.258-0.209-0.467-0.467-0.467s-0.466 0.209-0.466 0.466v1.451c0 0.606-0.302 0.758-1.103 1.008-0.716 0.224-1.696 0.529-1.696 1.791v1.16c0 0.748 0.657 1.032 1.136 1.24z"></path>
	<path d="M21.049 8.451c0.482 0.302 0.713 0.47 0.713 1.004v1.451c0 0.258 0.209 0.466 0.466 0.466s0.466-0.209 0.466-0.466v-1.451c0-1.075-0.666-1.49-1.153-1.795-0.482-0.302-0.713-0.47-0.713-1.004v-2.332c0-0.258-0.209-0.466-0.466-0.466s-0.466 0.209-0.466 0.466v2.332c-0.001 1.075 0.665 1.49 1.153 1.795z"></path>
</symbol>
<symbol id="equip-catering" viewBox="0 0 38 32">
	<path d="M33.185 8h-0.444v-2.777c0-2.978-5.922-5.223-13.778-5.223s-13.778 2.245-13.778 5.223v2.777h-0.444c-1.225 0-2.222 0.997-2.222 2.222v4.444c0 1.225 0.997 2.222 2.222 2.222h0.444v10.222c0 1.073 0.765 1.97 1.778 2.177v1.378c0 0.735 0.599 1.333 1.333 1.333h1.778c0.735 0 1.333-0.599 1.333-1.333v-1.333h15.111v1.333c0 0.735 0.599 1.333 1.333 1.333h1.778c0.735 0 1.333-0.599 1.333-1.333v-1.378c1.013-0.207 1.778-1.104 1.778-2.177v-10.222h0.444c1.225 0 2.222-0.997 2.222-2.222v-4.444c0-1.225-0.997-2.222-2.222-2.222zM6.074 5.223c0-2.093 5.179-4.334 12.889-4.334s12.889 2.241 12.889 4.334v2.777h-2.667v-1.333c0-0.735-0.599-1.333-1.333-1.333h-4.444c-0.735 0-1.333 0.599-1.333 1.333v1.333h-6.222v-1.333c0-0.735-0.599-1.333-1.333-1.333h-4.444c-0.735 0-1.333 0.599-1.333 1.333v1.333h-2.667v-2.777zM22.963 8v-1.333c0-0.245 0.2-0.444 0.444-0.444h4.444c0.245 0 0.444 0.2 0.444 0.444v1.333h-5.333zM28.296 8.889v4c0 0.245-0.2 0.444-0.444 0.444h-4.444c-0.245 0-0.444-0.2-0.444-0.444v-4h5.333zM22.074 8.889v2.667h-6.222v-2.667h6.222zM9.63 8v-1.333c0-0.245 0.2-0.444 0.444-0.444h4.444c0.245 0 0.444 0.2 0.444 0.444v1.333h-5.333zM14.963 8.889v4c0 0.245-0.2 0.444-0.444 0.444h-4.444c-0.245 0-0.444-0.2-0.444-0.444v-4h5.333zM3.407 10.222c0-0.735 0.599-1.333 1.333-1.333h4v2.667h-5.333v-1.333zM10.519 30.667c0 0.245-0.2 0.444-0.444 0.444h-1.778c-0.245 0-0.444-0.2-0.444-0.444v-1.333h2.667v1.333zM30.074 30.667c0 0.245-0.2 0.444-0.444 0.444h-1.778c-0.245 0-0.444-0.2-0.444-0.444v-1.333h2.667v1.333zM34.519 14.667c0 0.735-0.599 1.333-1.333 1.333h-1.333v11.111c0 0.735-0.599 1.333-1.333 1.333h-23.111c-0.735 0-1.333-0.599-1.333-1.333v-11.111h-1.333c-0.735 0-1.333-0.599-1.333-1.333v-2.222h5.333v0.444c0 0.735 0.599 1.333 1.333 1.333h4.444c0.735 0 1.333-0.599 1.333-1.333v-0.444h6.222v0.444c0 0.735 0.599 1.333 1.333 1.333h4.444c0.735 0 1.333-0.599 1.333-1.333v-0.444h5.333v2.222zM34.519 11.556h-5.333v-2.667h4c0.735 0 1.333 0.599 1.333 1.333v1.333z"></path>
	<path d="M22.963 25.778h7.111v0.889h-7.111v-0.889z"></path>
</symbol>
<symbol id="equip-bar" viewBox="0 0 38 32">
	<path d="M36.976 4.512l-7.111-4.444c-0.203-0.127-0.472-0.071-0.605 0.13l-4.016 6.024h-14.725c0-2.667-2.194-4.722-4.889-4.722s-4.889 2.36-4.889 5.055c0 2.696 2.194 4.889 4.889 4.889 0.876 0 1.716-0.25 2.462-0.691l8.649 12.257v5.571l-6.823 2.558c-0.201 0.076-0.319 0.284-0.281 0.497s0.223 0.365 0.438 0.365h14.222c0.215 0 0.399-0.153 0.437-0.364s-0.080-0.42-0.281-0.497l-6.823-2.558v-5.71l11.829-15.983c0.080-0.137 0.080-0.307 0-0.444s-0.226-0.222-0.385-0.222h-2.762l3.448-5.173 6.746 4.216c0.207 0.131 0.482 0.069 0.612-0.141 0.13-0.207 0.067-0.482-0.142-0.612zM5.63 10.514c-2.206 0-4-1.836-4-4.041s1.794-4.084 4-4.084 4 2.056 4 3.833h-3.881c-0.159 0-0.306 0.085-0.385 0.222-0.080 0.137-0.080 0.307 0 0.444l2.209 3.129c-0.593 0.327-1.254 0.495-1.943 0.495zM6.519 7.111h18.133l-2.964 4.444h-11.982l-3.188-4.444zM21.846 31.111h-9.321l4.661-1.747 4.661 1.747zM17.134 21.911l-6.79-9.467h10.752l-4.281 6.42c-0.136 0.205-0.081 0.48 0.123 0.616 0.076 0.050 0.161 0.075 0.247 0.075 0.143 0 0.284-0.069 0.37-0.198l4.609-6.913h2.115l-7.144 9.467zM28.305 7.111l-3.354 4.444h-2.194l2.963-4.444h2.585z"></path>
</symbol>
<symbol id="equip-bakery" viewBox="0 0 38 32">
	<path d="M29.63 0h-21.333c-0.735 0-1.333 0.598-1.333 1.333v26.667c0 0.735 0.599 1.333 1.333 1.333h1.333v2.667h4.444v-2.667h9.778v2.667h4.444v-2.667h1.333c0.735 0 1.333-0.599 1.333-1.333v-26.667c0-0.735-0.599-1.333-1.333-1.333zM8.296 28.444c-0.245 0-0.444-0.2-0.444-0.444v-23.556h3.556v24h-3.111zM13.185 31.111h-2.667v-1.778h2.667v1.778zM27.407 31.111h-2.667v-1.778h2.667v1.778zM30.074 28c0 0.245-0.2 0.444-0.444 0.444h-17.333v-24h17.778v23.556zM7.852 3.556v-2.222c0-0.245 0.2-0.444 0.444-0.444h21.333c0.245 0 0.444 0.199 0.444 0.444v2.222h-22.222z"></path>
	<path d="M10.519 8.889c0 0.491-0.398 0.889-0.889 0.889s-0.889-0.398-0.889-0.889c0-0.491 0.398-0.889 0.889-0.889s0.889 0.398 0.889 0.889z"></path>
	<path d="M10.519 12.444c0 0.491-0.398 0.889-0.889 0.889s-0.889-0.398-0.889-0.889c0-0.491 0.398-0.889 0.889-0.889s0.889 0.398 0.889 0.889z"></path>
	<path d="M13.185 13.333h0.889v7.111h-0.889v-7.111z"></path>
	<path d="M16.296 26.667h10.667c0.735 0 1.333-0.599 1.333-1.333v-17.778c0-0.735-0.599-1.333-1.333-1.333h-10.667c-0.735 0-1.333 0.598-1.333 1.333v17.778c0 0.735 0.599 1.333 1.333 1.333zM15.852 7.556c0-0.245 0.2-0.444 0.444-0.444h10.667c0.245 0 0.444 0.199 0.444 0.444v3.111h-11.556v-3.111zM15.852 11.556h11.556v4.444h-11.556v-4.444zM15.852 16.889h11.556v4.444h-11.556v-4.444zM27.407 22.222v3.111c0 0.245-0.2 0.444-0.444 0.444h-10.667c-0.245 0-0.444-0.2-0.444-0.444v-3.111h11.556z"></path>
</symbol>
<symbol id="facebook" viewBox="0 0 32 32">
	<path d="M19 6h5v-6h-5c-3.86 0-7 3.14-7 7v3h-4v6h4v16h6v-16h5l1-6h-6v-3c0-0.542 0.458-1 1-1z"></path>
</symbol>
<symbol id="instagram" viewBox="0 0 32 32">
	<path d="M16 2.881c4.275 0 4.781 0.019 6.462 0.094 1.563 0.069 2.406 0.331 2.969 0.55 0.744 0.288 1.281 0.638 1.837 1.194 0.563 0.563 0.906 1.094 1.2 1.838 0.219 0.563 0.481 1.412 0.55 2.969 0.075 1.688 0.094 2.194 0.094 6.463s-0.019 4.781-0.094 6.463c-0.069 1.563-0.331 2.406-0.55 2.969-0.288 0.744-0.637 1.281-1.194 1.837-0.563 0.563-1.094 0.906-1.837 1.2-0.563 0.219-1.413 0.481-2.969 0.55-1.688 0.075-2.194 0.094-6.463 0.094s-4.781-0.019-6.463-0.094c-1.563-0.069-2.406-0.331-2.969-0.55-0.744-0.288-1.281-0.637-1.838-1.194-0.563-0.563-0.906-1.094-1.2-1.837-0.219-0.563-0.481-1.413-0.55-2.969-0.075-1.688-0.094-2.194-0.094-6.463s0.019-4.781 0.094-6.463c0.069-1.563 0.331-2.406 0.55-2.969 0.288-0.744 0.638-1.281 1.194-1.838 0.563-0.563 1.094-0.906 1.838-1.2 0.563-0.219 1.412-0.481 2.969-0.55 1.681-0.075 2.188-0.094 6.463-0.094zM16 0c-4.344 0-4.887 0.019-6.594 0.094-1.7 0.075-2.869 0.35-3.881 0.744-1.056 0.412-1.95 0.956-2.837 1.85-0.894 0.888-1.438 1.781-1.85 2.831-0.394 1.019-0.669 2.181-0.744 3.881-0.075 1.713-0.094 2.256-0.094 6.6s0.019 4.887 0.094 6.594c0.075 1.7 0.35 2.869 0.744 3.881 0.413 1.056 0.956 1.95 1.85 2.837 0.887 0.887 1.781 1.438 2.831 1.844 1.019 0.394 2.181 0.669 3.881 0.744 1.706 0.075 2.25 0.094 6.594 0.094s4.888-0.019 6.594-0.094c1.7-0.075 2.869-0.35 3.881-0.744 1.050-0.406 1.944-0.956 2.831-1.844s1.438-1.781 1.844-2.831c0.394-1.019 0.669-2.181 0.744-3.881 0.075-1.706 0.094-2.25 0.094-6.594s-0.019-4.887-0.094-6.594c-0.075-1.7-0.35-2.869-0.744-3.881-0.394-1.063-0.938-1.956-1.831-2.844-0.887-0.887-1.781-1.438-2.831-1.844-1.019-0.394-2.181-0.669-3.881-0.744-1.712-0.081-2.256-0.1-6.6-0.1v0z"></path>
	<path d="M16 7.781c-4.537 0-8.219 3.681-8.219 8.219s3.681 8.219 8.219 8.219 8.219-3.681 8.219-8.219c0-4.537-3.681-8.219-8.219-8.219zM16 21.331c-2.944 0-5.331-2.387-5.331-5.331s2.387-5.331 5.331-5.331c2.944 0 5.331 2.387 5.331 5.331s-2.387 5.331-5.331 5.331z"></path>
	<path d="M26.462 7.456c0 1.060-0.859 1.919-1.919 1.919s-1.919-0.859-1.919-1.919c0-1.060 0.859-1.919 1.919-1.919s1.919 0.859 1.919 1.919z"></path>
</symbol>
<symbol id="vk" viewBox="0 0 32 32">
	<path d="M28.483 19.677c0 0 2.587 2.555 3.227 3.738 0.018 0.026 0.026 0.045 0.029 0.056 0.261 0.437 0.325 0.779 0.197 1.032-0.216 0.418-0.947 0.627-1.195 0.645 0 0-4.445 0-4.573 0-0.318 0-0.981-0.083-1.787-0.64-0.616-0.43-1.229-1.139-1.822-1.832-0.886-1.029-1.653-1.922-2.429-1.922-0.099 0-0.195 0.016-0.288 0.048-0.587 0.186-1.333 1.022-1.333 3.251 0 0.698-0.55 1.094-0.936 1.094 0 0-1.997 0-2.094 0-0.714 0-4.429-0.25-7.723-3.723-4.037-4.253-7.662-12.784-7.698-12.859-0.226-0.552 0.248-0.853 0.76-0.853h4.618c0.619 0 0.821 0.374 0.962 0.71 0.163 0.386 0.768 1.928 1.76 3.661 1.606 2.819 2.594 3.966 3.382 3.966 0.149 0 0.29-0.037 0.422-0.112 1.030-0.566 0.838-4.246 0.79-5.005 0-0.147-0.002-1.643-0.53-2.366-0.378-0.518-1.021-0.72-1.41-0.794 0.104-0.15 0.325-0.381 0.608-0.517 0.706-0.352 1.981-0.403 3.246-0.403h0.702c1.373 0.019 1.728 0.107 2.227 0.234 1.005 0.24 1.024 0.891 0.936 3.109-0.026 0.634-0.053 1.347-0.053 2.187 0 0.179-0.008 0.379-0.008 0.582-0.030 1.138-0.070 2.419 0.733 2.946 0.102 0.064 0.222 0.099 0.347 0.099 0.278 0 1.112 0 3.373-3.88 0.992-1.714 1.76-3.734 1.813-3.886 0.045-0.085 0.179-0.323 0.342-0.419 0.125-0.077 0.291-0.090 0.378-0.090h5.432c0.592 0 0.994 0.090 1.072 0.314 0.131 0.363-0.026 1.472-2.506 4.826-0.418 0.558-0.784 1.042-1.106 1.464-2.248 2.95-2.248 3.099 0.133 5.339z"></path>
</symbol>
<symbol id="youtube" viewBox="0 0 32 32">
	<path d="M31.681 9.6c0 0-0.313-2.206-1.275-3.175-1.219-1.275-2.581-1.281-3.206-1.356-4.475-0.325-11.194-0.325-11.194-0.325h-0.012c0 0-6.719 0-11.194 0.325-0.625 0.075-1.987 0.081-3.206 1.356-0.963 0.969-1.269 3.175-1.269 3.175s-0.319 2.588-0.319 5.181v2.425c0 2.587 0.319 5.181 0.319 5.181s0.313 2.206 1.269 3.175c1.219 1.275 2.819 1.231 3.531 1.369 2.563 0.244 10.881 0.319 10.881 0.319s6.725-0.012 11.2-0.331c0.625-0.075 1.988-0.081 3.206-1.356 0.962-0.969 1.275-3.175 1.275-3.175s0.319-2.587 0.319-5.181v-2.425c-0.006-2.588-0.325-5.181-0.325-5.181zM12.694 20.15v-8.994l8.644 4.513-8.644 4.481z"></path>
</symbol>
<symbol id="twitter" viewBox="0 0 32 32">
	<path d="M32 7.075c-1.175 0.525-2.444 0.875-3.769 1.031 1.356-0.813 2.394-2.1 2.887-3.631-1.269 0.75-2.675 1.3-4.169 1.594-1.2-1.275-2.906-2.069-4.794-2.069-3.625 0-6.563 2.938-6.563 6.563 0 0.512 0.056 1.012 0.169 1.494-5.456-0.275-10.294-2.888-13.531-6.862-0.563 0.969-0.887 2.1-0.887 3.3 0 2.275 1.156 4.287 2.919 5.463-1.075-0.031-2.087-0.331-2.975-0.819 0 0.025 0 0.056 0 0.081 0 3.181 2.263 5.838 5.269 6.437-0.55 0.15-1.131 0.231-1.731 0.231-0.425 0-0.831-0.044-1.237-0.119 0.838 2.606 3.263 4.506 6.131 4.563-2.25 1.762-5.075 2.813-8.156 2.813-0.531 0-1.050-0.031-1.569-0.094 2.913 1.869 6.362 2.95 10.069 2.95 12.075 0 18.681-10.006 18.681-18.681 0-0.287-0.006-0.569-0.019-0.85 1.281-0.919 2.394-2.075 3.275-3.394z"></path>
</symbol>
<symbol id="pinterest" viewBox="0 0 32 32">
	<path d="M13.787 21.163c-0.842 4.406-1.867 8.63-4.909 10.837-0.938-6.659 1.378-11.659 2.454-16.968-1.835-3.088 0.221-9.299 4.088-7.768 4.76 1.882-4.122 11.475 1.84 12.675 6.226 1.25 8.766-10.8 4.906-14.718-5.576-5.661-16.234-0.133-14.922 7.971 0.318 1.981 2.365 2.581 0.818 5.315-3.57-0.79-4.635-3.606-4.498-7.36 0.221-6.144 5.518-10.443 10.834-11.040 6.722-0.754 13.030 2.469 13.902 8.79 0.981 7.138-3.034 14.869-10.222 14.312-1.949-0.152-2.765-1.118-4.291-2.046z"></path>
</symbol>
<symbol id="city" viewBox="0 0 32 32">
	<path d="M0 32h16v-32h-16v32zM10 4h4v4h-4v-4zM10 12h4v4h-4v-4zM10 20h4v4h-4v-4zM2 4h4v4h-4v-4zM2 12h4v4h-4v-4zM2 20h4v4h-4v-4zM18 10h14v2h-14zM18 32h4v-8h6v8h4v-18h-14z"></path>
</symbol>
<symbol id="firm" viewBox="0 0 32 32">
	<path d="M29.181 19.070c-1.679-2.908-0.669-6.634 2.255-8.328l-3.145-5.447c-0.898 0.527-1.943 0.829-3.058 0.829-3.361 0-6.085-2.742-6.085-6.125h-6.289c0.008 1.044-0.252 2.103-0.811 3.070-1.679 2.908-5.411 3.897-8.339 2.211l-3.144 5.447c0.905 0.515 1.689 1.268 2.246 2.234 1.676 2.903 0.672 6.623-2.241 8.319l3.145 5.447c0.895-0.522 1.935-0.82 3.044-0.82 3.35 0 6.067 2.725 6.084 6.092h6.289c-0.003-1.034 0.259-2.080 0.811-3.038 1.676-2.903 5.399-3.894 8.325-2.219l3.145-5.447c-0.899-0.515-1.678-1.266-2.232-2.226zM16 22.479c-3.578 0-6.479-2.901-6.479-6.479s2.901-6.479 6.479-6.479c3.578 0 6.479 2.901 6.479 6.479s-2.901 6.479-6.479 6.479z"></path>
</symbol>
<symbol id="web" viewBox="0 0 32 32">
	<path d="M16 0c-8.837 0-16 7.163-16 16s7.163 16 16 16 16-7.163 16-16-7.163-16-16-16zM16 30c-1.967 0-3.84-0.407-5.538-1.139l7.286-8.197c0.163-0.183 0.253-0.419 0.253-0.664v-3c0-0.552-0.448-1-1-1-3.531 0-7.256-3.671-7.293-3.707-0.188-0.188-0.442-0.293-0.707-0.293h-4c-0.552 0-1 0.448-1 1v6c0 0.379 0.214 0.725 0.553 0.894l3.447 1.724v5.871c-3.627-2.53-6-6.732-6-11.489 0-2.147 0.484-4.181 1.348-6h3.652c0.265 0 0.52-0.105 0.707-0.293l4-4c0.188-0.188 0.293-0.442 0.293-0.707v-2.419c1.268-0.377 2.61-0.581 4-0.581 2.2 0 4.281 0.508 6.134 1.412-0.13 0.109-0.256 0.224-0.376 0.345-1.133 1.133-1.757 2.64-1.757 4.243s0.624 3.109 1.757 4.243c1.139 1.139 2.663 1.758 4.239 1.758 0.099 0 0.198-0.002 0.297-0.007 0.432 1.619 1.211 5.833-0.263 11.635-0.014 0.055-0.022 0.109-0.026 0.163-2.541 2.596-6.084 4.208-10.004 4.208z"></path>
</symbol>
<symbol id="clock" viewBox="0 0 32 32">
	<path d="M16 1.333c-8.133 0-14.667 6.533-14.667 14.667s6.533 14.667 14.667 14.667 14.667-6.533 14.667-14.667-6.533-14.667-14.667-14.667zM16 28c-6.667 0-12-5.333-12-12s5.333-12 12-12c6.667 0 12 5.333 12 12s-5.333 12-12 12z"></path>
	<path d="M21.867 17.467l-4.533-2.267v-7.2c0-0.8-0.533-1.333-1.333-1.333s-1.333 0.533-1.333 1.333v8c0 0.533 0.267 0.933 0.8 1.2l5.333 2.667c0.133 0.133 0.267 0.133 0.533 0.133 0.533 0 0.933-0.267 1.2-0.8s0-1.333-0.667-1.733z"></path>
</symbol>
<symbol id="store" viewBox="0 0 32 32">
	<path d="M31.4 11.2l-3-3.998c-0.117-0.157-0.256-0.293-0.4-0.423v-4.779c0-1.104-0.896-2-2-2h-20c-1.105 0-2 0.896-2 2v4.78c-0.144 0.129-0.283 0.264-0.4 0.42l-2.999 3.999c-0.388 0.516-0.601 1.155-0.601 1.801v1c0 1.654 1.346 3 3 3v0 13c0 1.104 0.896 2 2 2h22c1.104 0 2-0.896 2-2v-13c1.654 0 3-1.346 3-3v-1c0-0.646-0.213-1.285-0.6-1.8zM26 2v4h-20v-4h20zM10.193 15h-4.189l4-7h2.189l-2 7zM13.234 8h2.266v7h-4.266l2-7zM16.5 8h2.266l2 7h-4.266v-7zM19.805 8h2.189l4 7h-4.189l-2-7zM2 14v-1c0-0.217 0.070-0.427 0.2-0.6l3-4c0.189-0.252 0.485-0.4 0.8-0.4h2.852l-4 7h-1.852c-0.552 0-1-0.447-1-1zM20 30h-7.5v-10h7.5v10zM27 30h-6v-10c0-0.553-0.449-1-1-1h-7.5c-0.552 0-1 0.447-1 1v10h-6.5v-13h22v13zM30 14c0 0.553-0.447 1-1 1h-1.854l-4-7h2.854c0.314 0 0.611 0.148 0.799 0.4l3 4c0.131 0.173 0.201 0.383 0.201 0.6v1z"></path>
</symbol>
<symbol id="comment" viewBox="0 0 32 32">
	<path d="M16 7c0.276 0 0.5 0.224 0.5 0.5s-0.225 0.5-0.5 0.5c-5.327 0-10 2.804-10 6 0 0.276-0.224 0.5-0.5 0.5s-0.5-0.224-0.5-0.5c0-3.794 5.037-7 11-7zM16 2c-8.837 0-16 5.373-16 12 0 4.127 2.779 7.766 7.008 9.926 0 0.027-0.008 0.045-0.008 0.074 0 1.793-1.339 3.723-1.928 4.736 0.001 0 0.002 0 0.002 0-0.047 0.11-0.074 0.231-0.074 0.358 0 0.5 0.405 0.906 0.906 0.906 0.094 0 0.259-0.025 0.255-0.014 3.125-0.512 6.069-3.383 6.753-4.215 0.999 0.147 2.029 0.229 3.086 0.229 8.835 0 16-5.373 16-12s-7.164-12-16-12zM16 24c-0.917 0-1.858-0.070-2.796-0.207-0.097-0.016-0.194-0.021-0.29-0.021-0.594 0-1.163 0.264-1.546 0.73-0.428 0.521-1.646 1.684-3.085 2.539 0.39-0.895 0.695-1.898 0.716-2.932 0.006-0.064 0.009-0.129 0.009-0.184 0-0.752-0.421-1.439-1.090-1.781-3.706-1.892-5.918-4.937-5.918-8.144 0-5.514 6.28-10 14-10 7.718 0 14 4.486 14 10s-6.281 10-14 10z"></path>
</symbol>
<symbol id="flag-ru" viewBox="0 0 43 32">
	<path fill="#fff" d="M0 0h42.667v32h-42.667z"></path>
	<path fill="#0039a6" d="M0 10.667h42.667v21.333h-42.667z"></path>
	<path fill="#d52b1e" d="M0 21.333h42.667v10.667h-42.667z"></path>
</symbol>
<symbol id="flag-gb" viewBox="0 0 43 32">
	<path fill="#006" d="M-10.709 0h64.171v32.085h-64.171z"></path>
	<path fill="#fff" d="M-10.709 0v3.585l56.995 28.501h7.175v-3.585l-56.995-28.501h-7.175zM53.461 0v3.585l-56.995 28.501h-7.175v-3.585l56.995-28.501h7.175z"></path>
	<path fill="#fff" d="M16.031 0v32.085h10.691v-32.085h-10.691zM-10.709 10.697v10.691h64.171v-10.691h-64.171z"></path>
	<path fill="#c00" d="M-10.709 12.834v6.417h64.171v-6.417h-64.171zM18.167 0v32.085h6.417v-32.085h-6.417zM-10.709 32.085l21.388-10.697h4.788l-21.394 10.697h-4.781zM-10.709 0l21.388 10.697h-4.781l-16.607-8.303v-2.394zM27.292 10.697l21.388-10.697h4.781l-21.388 10.697h-4.781zM53.461 32.085l-21.388-10.697h4.781l16.607 8.303v2.394z"></path>
</symbol>
<symbol id="flad-it" viewBox="0 0 43 32">
	<path fill="#fff" d="M0 0h42.667v32h-42.667z"></path>
	<path fill="#009246" d="M0 0h14.22v32h-14.22z"></path>
	<path fill="#ce2b37" d="M28.447 0h14.22v32h-14.22z"></path>
</symbol>
<symbol id="flag-cn" viewBox="0 0 43 32">
	<path fill="#de2910" d="M0 0h42.667v32h-42.667z"></path>
	<path fill="#000" d="M5.12 11.84l2.88-8.64 2.88 8.64-7.68-5.28h9.6z"></path>
	<path fill="#000" d="M17.611 3.366l-2.964 0.657 1.977-2.304-0.194 3.101-1.645-2.745z"></path>
	<path fill="#000" d="M20.603 7.157l-2.987-0.544 2.716-1.357-1.381 2.783-0.451-3.168z"></path>
	<path fill="#000" d="M20.167 12.475l-2.505-1.715 3.033-0.131-2.396 1.977 0.88-3.077z"></path>
	<path fill="#000" d="M16.399 15.949l-1.648-2.549 2.848 1.050-2.974 0.899 2-2.498z"></path>
</symbol>
</defs>
</svg>