<svg width="15" height="12" xmlns="http://www.w3.org/2000/svg" viewBox="0 0 16 10.95">
<defs>
	<style>.contacts{fill:#fff;}</style>
</defs>
<title>MAIL</title>
<path class="contacts" d="M1.54,3.38l1.83,1.1L5.71,5.9l.37.24.49.3L7,6.69a3.45,3.45,0,0,0,.51.21A1.55,1.55,0,0,0,8,7H8a1.55,1.55,0,0,0,.45-.07A3.45,3.45,0,0,0,9,6.69l.46-.25.48-.3.38-.24,4.18-2.52a4.07,4.07,0,0,0,1.09-1A1.9,1.9,0,0,0,16,1.24a1.11,1.11,0,0,0-.42-.87,1.48,1.48,0,0,0-1-.37H1.43A1.37,1.37,0,0,0,.37.4a1.44,1.44,0,0,0-.37,1A1.68,1.68,0,0,0,.49,2.48a4.34,4.34,0,0,0,1.05.9Z"/>
<path class="contacts" d="M15.11,4.21q-2.94,1.73-4.45,2.68c-.34.22-.61.39-.83.51A4.93,4.93,0,0,1,9,7.77,2.83,2.83,0,0,1,8,8H8a2.83,2.83,0,0,1-1-.19,5.48,5.48,0,0,1-.85-.37c-.21-.12-.48-.29-.82-.51C4.54,6.38,3.06,5.48.9,4.21A4.43,4.43,0,0,1,0,3.53V9.71a1.14,1.14,0,0,0,.42.88,1.51,1.51,0,0,0,1,.36H14.57a1.51,1.51,0,0,0,1-.36A1.14,1.14,0,0,0,16,9.71V3.53a4.75,4.75,0,0,1-.89.68Z"/>
</svg>
