<svg width="14" height="14" xmlns="http://www.w3.org/2000/svg" viewBox="0 0 15.67 15.66">
	<defs>
		<style>.contacts{fill:#fff;}</style>
	</defs>
	<title>phone</title>
			<path class="contacts" d="M15.66,12.36a.79.79,0,0,1-.23.66l-2.21,2.19a1.3,1.3,0,0,1-.39.28,1.51,1.51,0,0,1-.47.15H12a8.1,8.1,0,0,1-1-.11A7.71,7.71,0,0,1,9.3,15,14.53,14.53,0,0,1,7,13.75a16.81,16.81,0,0,1-2.76-2.32A19.76,19.76,0,0,1,2.31,9.24,15.89,15.89,0,0,1,1.08,7.31,11.41,11.41,0,0,1,.38,5.7,8.35,8.35,0,0,1,.07,4.45,3.89,3.89,0,0,1,0,3.63c0-.2,0-.31,0-.33a1.51,1.51,0,0,1,.15-.47,1.3,1.3,0,0,1,.28-.39L2.66.23A.74.74,0,0,1,3.19,0a.64.64,0,0,1,.38.12,1.38,1.38,0,0,1,.28.31L5.63,3.8a.88.88,0,0,1,.08.58,1.09,1.09,0,0,1-.28.53l-.82.81a.23.23,0,0,0-.05.11.35.35,0,0,0,0,.12,2.66,2.66,0,0,0,.3.8,7.22,7.22,0,0,0,.61,1A11.32,11.32,0,0,0,6.62,9,10.55,10.55,0,0,0,8,10.22a7.29,7.29,0,0,0,1,.63,3,3,0,0,0,.59.24l.21,0,.11,0a.23.23,0,0,0,.11,0l.94-1a1,1,0,0,1,.7-.26.83.83,0,0,1,.45.1h0l3.2,1.89a.81.81,0,0,1,.42.55Z"/>
</svg>
