<svg version="1.1" width="100" height="100" xmlns="http://www.w3.org/2000/svg" xmlns:xlink="http://www.w3.org/1999/xlink" x="0px" y="0px"
	 viewBox="0 0 283.5 283.5" style="enable-background:new 0 0 283.5 283.5;" xml:space="preserve">
<style type="text/css">
	.services{fill: #292929;}
</style>
<g>
	<path class="services" d="M201.2,128l-8.8-7.9c-0.7-0.7-1.6-1-2.6-1h-15c-2.2,0-3.9,1.8-3.9,3.9v24c0,2.2,1.8,3.9,3.9,3.9h23.8
		c2.2,0,3.9-1.8,3.9-3.9v-16.1C202.5,129.8,202,128.7,201.2,128z M194.7,132.6V143h-16v-16.2h9.6L194.7,132.6z"/>
	<path class="services" d="M116.9,163.7c-3.8,0-7.4,1.5-10.1,4.2c-2.7,2.7-4.2,6.3-4.2,10c0,3.8,1.5,7.3,4.2,10c2.7,2.7,6.3,4.1,10.1,4.1
		c7.8,0,14.1-6.4,14.1-14.2S124.6,163.7,116.9,163.7z M123.1,177.8c0,3.5-2.8,6.3-6.2,6.3c-3.5,0-6.4-2.9-6.4-6.3s2.9-6.3,6.4-6.3
		C120.3,171.5,123.1,174.3,123.1,177.8z"/>
	<path class="services" d="M97.3,167.3h-4.9v-6.8c0-2.2-1.8-3.9-3.9-3.9c-2.2,0-3.9,1.8-3.9,3.9v10.7c0,2.2,1.8,3.9,3.9,3.9h8.8
		c2.2,0,3.9-1.8,3.9-3.9C101.3,169,99.5,167.3,97.3,167.3z"/>
	<path class="services" d="M113.2,152.3c0-2.2-1.8-3.9-3.9-3.9H73.8c-2.2,0-3.9,1.8-3.9,3.9s1.8,3.9,3.9,3.9h35.5
		C111.4,156.2,113.2,154.5,113.2,152.3z"/>
	<path class="services" d="M79.7,142.7l35.5,0.2c2.1,0,3.9-1.7,4-3.9c0-1.1-0.4-2.1-1.1-2.8c-0.7-0.8-1.7-1.2-2.8-1.2l-35.5-0.2
		c-2.2,0-3.9,1.7-3.9,3.9c0,1.1,0.4,2.1,1.1,2.8C77.6,142.3,78.6,142.7,79.7,142.7z"/>
	<path class="services" d="M85.7,129.4h35.5c2.2,0,3.9-1.8,3.9-3.9c0-2.2-1.8-3.9-3.9-3.9H85.7c-2.2,0-3.9,1.8-3.9,3.9
		C81.7,127.7,83.5,129.4,85.7,129.4z"/>
	<path class="services" d="M214.1,123.7l-21-17.4c-0.7-0.6-1.6-0.9-2.5-0.9H167v-9.5c0-2.2-1.8-3.9-3.9-3.9H88.5c-2.2,0-3.9,1.8-3.9,3.9v21.4
		c0,2.2,1.8,3.9,3.9,3.9c2.2,0,3.9-1.8,3.9-3.9V99.8h66.7v67.4h-23c-2.2,0-3.9,1.8-3.9,3.9c0,2.2,1.8,3.9,3.9,3.9h35.7
		c1,0,2-0.4,2.7-1.1c-0.3,1.2-0.5,2.5-0.5,3.8c0,3.8,1.5,7.3,4.2,10c2.7,2.7,6.3,4.1,10.1,4.1c7.8,0,14.1-6.4,14.1-14.2
		s-6.3-14.2-14.1-14.2c-3.8,0-7.4,1.5-10.1,4.2c-1,1-1.8,2.1-2.4,3.2c-0.1-2.1-1.8-3.8-3.9-3.8H167v-53.9h22.2l18.4,15.3l-0.2,38.6
		h-2c-2.2,0-3.9,1.8-3.9,3.9c0,2.2,1.8,3.9,3.9,3.9h5.9c2.2,0,3.9-1.7,3.9-3.9l0.2-44.4C215.5,125.5,215,124.4,214.1,123.7z
		 M181.9,177.8c0-3.4,2.9-6.3,6.4-6.3c3.4,0,6.2,2.8,6.2,6.3c0,3.5-2.8,6.3-6.2,6.3C184.9,184.1,181.9,181.2,181.9,177.8z"/>
</g>
</svg>
