<?xml version="1.0" encoding="UTF-8"?>
<!DOCTYPE svg PUBLIC "-//W3C//DTD SVG 1.1//EN" "http://www.w3.org/Graphics/SVG/1.1/DTD/svg11.dtd">
<svg xmlns="http://www.w3.org/2000/svg">
	<defs>
		<symbol id="logo" viewBox="0 0 121 32">
			<path d="M45.728 9.488c4.254 0 4.779 1.637 4.779 2.653 0 .878-.675 1.61-1.76 1.986l1.085 1.311c.505.62.825 1.319 1.856 1.406v1.661h-6.07v-1.661c.393-.014.692-.065.692-.323 0-.141-.113-.296-.319-.578l-.731-.968h-1.048v1.366c0 .246.037.555.618.503v1.661h-5.641v-1.661h.526c.486 0 .658.023.658-.709v-4.276c0-.541 0-.722-.658-.722h-.526V9.488h6.538zm-1.517 3.685h.413c1.031 0 1.517-.413 1.517-1.032 0-.823-.953-.85-1.591-.85h-.34v1.881zM65.873 16.084c.187.49.317.759.955.759h.283v1.661h-6.259v-1.661h.451c.167 0 .504.023.504-.206 0-.09-.094-.321-.15-.438h-3.842c-.056.092-.132.244-.132.321 0 .31.321.323.545.323h.187v1.661h-5.022v-1.661h.302c.712 0 .879-.258 1.252-1.096l1.821-3.993c.11-.257.148-.334.148-.425 0-.103-.037-.18-.786-.18h-.319V9.488h7.419l2.644 6.596zm-7.25-1.687h2.285l-1.05-2.576h-.094l-1.141 2.576zM79.233 9.488v3.029h-2.209c-.415-1.379-.229-1.225-1.223-1.225h-.409v5.063c0 .49.263.503.656.503h.714v1.661h-6.675v-1.661h.713c.412 0 .677-.014.677-.503v-5.063h-.415c-.881 0-.938-.118-1.217 1.225h-2.212V9.488h11.6zM91.058 10.905c1.16 1.134 1.291 2.409 1.291 3.092 0 1.146-.391 2.344-1.215 3.145-.901.861-2.398 1.58-4.856 1.58-2.774 0-4.197-.938-4.873-1.58-1.237-1.199-1.198-2.861-1.198-3.145 0-.748.094-1.919 1.292-3.092 1.257-1.225 3.035-1.636 4.778-1.636 2.717 0 4.14 1.005 4.779 1.636zm-6.486 2.666v.865c0 1.222.133 2.486 1.706 2.486 1.576 0 1.706-1.251 1.706-2.486v-.865c0-1.211-.13-2.499-1.706-2.499-1.649 0-1.706 1.431-1.706 2.499zM99.825 9.488c4.254 0 4.778 1.637 4.778 2.653 0 .878-.672 1.61-1.762 1.986l1.09 1.311c.504.62.825 1.319 1.856 1.406v1.661h-6.075v-1.661c.393-.014.694-.065.694-.323 0-.141-.113-.296-.317-.578l-.731-.968h-1.051v1.366c0 .246.037.555.618.503v1.661h-5.641v-1.661h.522c.491 0 .656.023.656-.709v-4.276c0-.541 0-.722-.656-.722h-.522V9.488h6.539zm-1.517 3.685h.413c1.031 0 1.517-.413 1.517-1.032 0-.823-.955-.85-1.593-.85h-.337v1.881zM119.579 16.084c.186.49.316.759.955.759h.283v1.661h-6.26v-1.661h.449c.169 0 .505.023.505-.206 0-.09-.093-.321-.15-.438h-3.842c-.056.092-.13.244-.13.321 0 .31.317.323.543.323h.187v1.661h-5.022v-1.661h.302c.712 0 .879-.258 1.255-1.096l1.816-3.993c.113-.257.15-.334.15-.425 0-.103-.037-.18-.786-.18h-.319V9.488h7.42l2.644 6.596zm-7.25-1.687h2.286l-1.051-2.576h-.093l-1.142 2.576zM29.906 11.298c0-.846-.005-2.415-1.537-3.103-1.669-.748-3.032.449-4.607 1.837-.564.494-7.184 5.804-7.184 5.804l3.664 2.836 5.105-4.131v11.404L12.723 15.9l9.664-7.81c4.217-3.405 4.784-4.28 4.025-6.262-.734-1.915-2.587-1.883-5.962-1.851-.628.008-15.737 0-15.737 0-2.653 0-4.715.317-4.715 4.222v21.987l4.487-3.676v-7.282l6.445 5.113-10.931 8.752h6.872l7.686-5.895s9.85 7.766 10.292 8.087c.997.793 2.221.966 3.287.458 1.114-.528 1.77-1.681 1.77-3.086v-17.36zM4.487 4.512l15.171-.004-10.643 8.599-4.528-3.409V4.511zM62.697 26.315v-.581l2.095-.004v1.836c-.322.258-.654.449-.995.579s-.692.194-1.053.194c-.486 0-.928-.103-1.326-.311a2.07 2.07 0 0 1-.898-.904 2.833 2.833 0 0 1-.304-1.32c0-.482.1-.931.302-1.348.202-.418.491-.727.869-.929s.814-.304 1.307-.304c.357 0 .681.057.97.174.288.117.515.278.68.485.165.206.288.476.374.81l-.59.162a1.818 1.818 0 0 0-.278-.594 1.112 1.112 0 0 0-.473-.346 1.726 1.726 0 0 0-.681-.13c-.3 0-.558.045-.776.136a1.5 1.5 0 0 0-.53.36 1.779 1.779 0 0 0-.312.49 2.604 2.604 0 0 0-.189.995c0 .442.076.81.229 1.107s.373.518.663.662c.291.144.599.215.925.215.284 0 .56-.055.83-.163.27-.11.475-.227.615-.35v-.921h-1.454zM69.224 28.257v-4.949h2.193c.441 0 .776.044 1.006.133.229.089.412.247.55.471.137.226.206.474.206.746 0 .351-.114.647-.341.887-.227.242-.578.394-1.053.459.173.084.306.166.395.247.19.176.372.394.543.658l.86 1.347h-.823l-.656-1.029a9.023 9.023 0 0 0-.473-.682 1.45 1.45 0 0 0-.332-.33.97.97 0 0 0-.298-.133 2.142 2.142 0 0 0-.364-.023h-.76v2.198h-.653zm.654-2.765h1.407c.299 0 .532-.031.702-.093s.296-.162.385-.296a.817.817 0 0 0 .131-.445c0-.233-.085-.427-.255-.577s-.439-.226-.805-.226h-1.565v1.637zM77.461 25.846c0-.822.221-1.464.662-1.929s1.01-.697 1.708-.697c.457 0 .868.11 1.235.328s.647.522.839.912c.194.391.289.833.289 1.328 0 .502-.102.951-.304 1.346a2.079 2.079 0 0 1-.861.901 2.454 2.454 0 0 1-1.202.304c-.466 0-.881-.113-1.249-.338a2.164 2.164 0 0 1-.833-.921 2.789 2.789 0 0 1-.284-1.235zm.675.01c0 .596.161 1.067.481 1.409.321.343.722.516 1.207.516.493 0 .899-.174 1.216-.52.319-.346.478-.837.478-1.475a2.54 2.54 0 0 0-.204-1.055 1.563 1.563 0 0 0-.599-.697 1.608 1.608 0 0 0-.882-.248 1.68 1.68 0 0 0-1.198.477c-.333.318-.5.85-.5 1.594zM89.74 23.308h.654v2.858c0 .498-.057.892-.168 1.184-.112.293-.315.53-.61.714-.292.184-.678.275-1.155.275-.464 0-.843-.08-1.138-.239s-.505-.392-.631-.694c-.126-.302-.189-.717-.189-1.241v-2.858h.654v2.855c0 .43.04.746.121.95s.217.361.411.471c.195.11.434.165.714.165.481 0 .825-.109 1.03-.327s.307-.639.307-1.26v-2.855zM94.941 28.257v-4.949h1.866c.329 0 .581.016.752.046.243.042.447.118.612.232s.296.272.397.477c.098.204.15.429.15.675 0 .421-.135.776-.402 1.068s-.751.437-1.451.437h-1.269v2.013h-.654zm.655-2.596h1.279c.423 0 .724-.08.901-.236.179-.157.267-.378.267-.665a.888.888 0 0 0-.157-.53.728.728 0 0 0-.413-.292c-.111-.03-.314-.044-.612-.044h-1.266v1.768z"/>
		</symbol>
		<symbol id="shot-logo" viewBox="0 0 32 32">
			<path d="M30.923 11.305c.002-.842-.003-2.409-1.532-3.097-1.667-.745-3.025.448-4.599 1.835-.562.493-7.169 5.793-7.169 5.793l3.657 2.831 5.095-4.123v11.381L13.777 15.9l9.643-7.795c4.209-3.397 4.776-4.272 4.018-6.249-.733-1.913-2.583-1.879-5.95-1.847-.627.007-15.707 0-15.707 0-2.647 0-4.705.315-4.705 4.214v21.943l4.478-3.669V15.23l6.433 5.103-10.91 8.734h6.859l7.671-5.883s9.83 7.751 10.273 8.07c.995.793 2.215.965 3.281.459 1.113-.526 1.764-1.678 1.764-3.081V11.305zM5.555 4.535l15.143-.004-10.624 8.583-4.519-3.403V4.534z"/>
		</symbol>
		<symbol id="ratora-bakery" viewBox="0 0 139 32">
			<path d="M11.11.367c7.226 0 8.117 2.758 8.117 4.471 0 1.478-1.148 2.714-2.991 3.347l1.843 2.208c.86 1.045 1.404 2.223 3.153 2.37v2.799H10.917v-2.799c.668-.023 1.175-.107 1.175-.544 0-.237-.19-.497-.542-.975l-1.242-1.63H8.531v2.302c0 .412.062.934 1.047.847v2.799H-.003v-2.799h.89c.826 0 1.116.043 1.116-1.197V4.362c0-.913 0-1.216-1.116-1.216h-.89V.366h11.11zM8.533 6.579h.7c1.749 0 2.575-.698 2.575-1.741 0-1.387-1.619-1.429-2.703-1.429h-.572v3.17zM45.329 11.484c.316.828.542 1.282 1.626 1.282h.478v2.799H36.8v-2.801h.766c.284 0 .853.043.853-.348 0-.149-.158-.542-.254-.738h-6.526c-.096.154-.224.412-.224.542 0 .521.544.544.924.544h.318v2.799h-8.533v-2.799h.512c1.21 0 1.495-.435 2.129-1.847l3.091-6.729c.19-.433.254-.563.254-.717 0-.173-.064-.305-1.338-.305h-.54V.367h12.606l4.491 11.117zM33.011 8.642h3.881l-1.781-4.341h-.158l-1.941 4.341zM68.023.367v5.105H64.27c-.704-2.325-.386-2.063-2.074-2.063h-.7v8.531c0 .826.446.847 1.116.847h1.21v2.801H52.485v-2.801h1.207c.702 0 1.152-.023 1.152-.847V3.409h-.704c-1.498 0-1.591-.201-2.069 2.063h-3.753V.367h19.703zM88.111 2.756c1.975 1.911 2.195 4.058 2.195 5.21 0 1.931-.668 3.951-2.067 5.299-1.53 1.453-4.075 2.667-8.245 2.667-4.715 0-7.134-1.583-8.277-2.667-2.101-2.02-2.037-4.821-2.037-5.299 0-1.261.16-3.236 2.195-5.21C74.013.691 77.033 0 79.997 0c4.617 0 7.031 1.692 8.115 2.756zM77.097 7.247v1.459c0 2.061.222 4.19 2.897 4.19s2.895-2.108 2.895-4.19V7.247c0-2.042-.222-4.211-2.895-4.211-2.803.002-2.897 2.415-2.897 4.211zM103.008.367c7.228 0 8.122 2.758 8.122 4.471 0 1.478-1.146 2.714-2.995 3.347l1.85 2.208c.855 1.045 1.399 2.223 3.153 2.37v2.799h-10.319v-2.799c.668-.023 1.182-.107 1.182-.544 0-.237-.194-.497-.54-.975l-1.244-1.632h-1.781v2.302c0 .412.062.934 1.05.847v2.799h-9.583v-2.797h.89c.832 0 1.111.043 1.111-1.197V4.362c0-.913 0-1.216-1.111-1.216h-.89V.366h11.106zm-2.575 6.212h.698c1.751 0 2.579-.698 2.579-1.741 0-1.387-1.623-1.429-2.707-1.429h-.572v3.17zM136.565 11.484c.318.828.54 1.282 1.626 1.282h.476v2.799h-10.63v-2.801h.762c.288 0 .86.043.86-.348 0-.149-.16-.542-.254-.738h-6.526c-.098.154-.222.412-.222.542 0 .521.54.544.922.544h.318v2.799h-8.533v-2.799h.512c1.207 0 1.495-.435 2.133-1.847l3.083-6.729c.192-.433.256-.563.256-.717 0-.173-.064-.305-1.335-.305h-.542V.367h12.606l4.491 11.117zm-12.318-2.842h3.885l-1.788-4.341h-.158l-1.939 4.341zM30.835 32v-8.339h3.153c.642 0 1.156.083 1.547.252.388.171.691.429.911.779.222.35.329.719.329 1.101 0 .358-.096.695-.292 1.009-.194.314-.489.567-.881.762.506.147.898.401 1.171.755s.41.777.41 1.263c0 .39-.083.753-.25 1.09-.166.335-.371.593-.617.774-.243.183-.55.318-.922.414a5.635 5.635 0 0 1-1.353.141h-3.206zm1.112-4.836h1.82c.491 0 .845-.034 1.06-.098.282-.083.497-.222.64-.414.143-.194.215-.435.215-.727 0-.279-.066-.523-.203-.734a1.003 1.003 0 0 0-.572-.429c-.25-.079-.676-.117-1.28-.117h-1.681v2.519zm0 3.853h2.093c.358 0 .61-.015.755-.043a1.89 1.89 0 0 0 .644-.226c.171-.109.311-.26.422-.465a1.44 1.44 0 0 0 .166-.702c0-.311-.081-.578-.239-.811a1.304 1.304 0 0 0-.67-.486c-.284-.09-.693-.134-1.229-.134h-1.943v2.867zM43.661 32l3.23-8.339h1.197L51.529 32H50.26l-.979-2.528h-3.514L44.843 32h-1.182zm2.425-3.424h2.85l-.879-2.31c-.267-.7-.465-1.278-.595-1.73a10.502 10.502 0 0 1-.452 1.594l-.924 2.447zM58.24 32v-8.339h1.111v4.134l4.175-4.134h1.508l-3.526 3.377L65.19 32h-1.468l-2.993-4.222-1.378 1.331V32H58.24zM72.013 32v-8.339h6.078v.986h-4.962v2.551h4.649v.979h-4.649v2.839h5.156v.983h-6.272zM85.711 32v-8.339h3.725c.751 0 1.321.075 1.711.222.39.149.7.414.934.796.233.38.35.798.35 1.259 0 .589-.196 1.088-.58 1.491-.386.407-.981.668-1.788.774.294.139.518.279.67.416.322.294.631.668.924 1.109L93.12 32h-1.399l-1.111-1.737a15.362 15.362 0 0 0-.804-1.15c-.209-.265-.397-.45-.563-.555a1.66 1.66 0 0 0-.508-.222 3.177 3.177 0 0 0-.619-.043h-1.289v3.706h-1.116zm1.114-4.663h2.389c.51 0 .907-.047 1.195-.154a1.286 1.286 0 0 0 .877-1.246c0-.397-.143-.721-.433-.973-.29-.256-.745-.384-1.37-.384h-2.658v2.756zM102.199 32v-3.531l-3.241-4.809h1.357l1.653 2.515c.307.469.591.939.853 1.41.254-.437.559-.93.919-1.474l1.628-2.449h1.297l-3.354 4.809V32h-1.114z"/>
		</symbol>
		<symbol id="ratora-horeca" viewBox="0 0 139 32">
			<path d="M11.11.367c7.226 0 8.117 2.746 8.117 4.454 0 1.472-1.148 2.701-2.989 3.33l1.841 2.202c.86 1.041 1.404 2.21 3.155 2.359v2.786H10.919v-2.786c.668-.021 1.175-.109 1.175-.542 0-.237-.19-.495-.542-.971l-1.244-1.623H8.531v2.289c0 .412.062.932 1.047.845v2.786H-.003v-2.784h.89c.826 0 1.118.041 1.118-1.193V4.345c0-.907 0-1.212-1.118-1.212h-.89V.366h11.11zM8.533 6.554h.7c1.749 0 2.575-.695 2.575-1.734 0-1.38-1.619-1.427-2.703-1.427h-.572v3.162zM45.329 11.435c.318.823.542 1.278 1.626 1.278h.478v2.786H36.8v-2.786h.766c.282 0 .855.041.855-.346 0-.154-.158-.542-.252-.734h-6.528c-.096.151-.224.407-.224.538 0 .521.544.542.924.542h.32v2.786h-8.533v-2.786h.514c1.207 0 1.493-.433 2.129-1.837l3.091-6.709c.19-.427.252-.559.252-.708 0-.171-.062-.305-1.338-.305h-.54V.368h12.606l4.486 11.068zM33.011 8.604h3.881L35.111 4.28h-.158l-1.941 4.324zM68.023.367v5.084H64.27c-.704-2.317-.386-2.057-2.074-2.057h-.7v8.497c0 .821.446.843 1.116.843h1.21v2.795H52.485v-2.795h1.207c.702 0 1.152-.021 1.152-.843V3.394h-.702c-1.5 0-1.594-.198-2.071 2.057h-3.753V.367h19.703zM88.111 2.741c1.975 1.907 2.195 4.043 2.195 5.193 0 1.924-.666 3.934-2.067 5.276-1.527 1.449-4.075 2.66-8.245 2.66-4.715 0-7.134-1.579-8.277-2.66-2.101-2.007-2.037-4.8-2.037-5.276 0-1.257.16-3.221 2.195-5.193C74.013.689 77.033 0 79.997 0c4.617 0 7.031 1.683 8.115 2.741zm-11.014 4.48v1.451c0 2.052.222 4.166 2.897 4.166s2.895-2.093 2.895-4.166V7.221c0-2.033-.222-4.196-2.895-4.196-2.803 0-2.897 2.4-2.897 4.196zM103.008.367c7.23 0 8.122 2.746 8.122 4.454 0 1.472-1.146 2.701-2.995 3.33l1.85 2.202c.855 1.041 1.399 2.21 3.153 2.359v2.786h-10.319v-2.786c.668-.021 1.182-.109 1.182-.542 0-.237-.194-.495-.54-.971l-1.244-1.623h-1.781v2.289c0 .412.062.932 1.05.845v2.786h-9.583v-2.784h.89c.832 0 1.111.041 1.111-1.193V4.345c0-.907 0-1.212-1.111-1.212h-.89V.366h11.106zm-2.575 6.187h.698c1.754 0 2.579-.695 2.579-1.734 0-1.38-1.623-1.427-2.707-1.427h-.572v3.162zM136.565 11.435c.318.823.542 1.278 1.626 1.278h.476v2.786h-10.63v-2.786h.762c.288 0 .86.041.86-.346 0-.154-.16-.542-.254-.734h-6.526c-.098.151-.222.407-.222.538 0 .521.54.542.922.542h.318v2.786h-8.533v-2.786h.512c1.21 0 1.495-.433 2.133-1.837l3.083-6.709c.192-.427.256-.559.256-.708 0-.171-.064-.305-1.335-.305h-.542V.368h12.606l4.491 11.068zm-12.318-2.831h3.885l-1.788-4.324h-.158l-1.939 4.324zM29.758 31.859v-8.297h1.111v3.405h4.365v-3.405h1.111v8.297h-1.111v-3.91h-4.365v3.91h-1.111zM43.725 27.817c0-1.378.375-2.455 1.122-3.234.749-.781 1.717-1.171 2.899-1.171.774 0 1.472.183 2.095.55s1.099.877 1.423 1.534c.326.655.491 1.393.491 2.225 0 .843-.173 1.594-.516 2.259s-.828 1.167-1.459 1.508a4.21 4.21 0 0 1-2.039.512c-.791 0-1.498-.19-2.121-.567a3.668 3.668 0 0 1-1.414-1.547 4.621 4.621 0 0 1-.48-2.069zm1.145.017c0 1.001.273 1.788.817 2.362.546.576 1.227.862 2.048.862.838 0 1.525-.288 2.065-.87.54-.58.811-1.404.811-2.473 0-.674-.115-1.265-.348-1.769a2.636 2.636 0 0 0-1.015-1.171 2.764 2.764 0 0 0-1.495-.416 2.86 2.86 0 0 0-2.031.8c-.567.535-.851 1.427-.851 2.675zM59.074 31.859v-8.297h3.723c.749 0 1.318.073 1.709.222s.7.412.934.791c.233.375.35.794.35 1.25 0 .589-.194 1.086-.578 1.487-.386.403-.981.663-1.788.77.294.141.518.279.67.412.324.294.631.663.924 1.105l1.461 2.259h-1.397l-1.111-1.728a14.359 14.359 0 0 0-.802-1.141c-.209-.265-.399-.448-.563-.557a1.752 1.752 0 0 0-.508-.222 3.477 3.477 0 0 0-.619-.038H60.19v3.684h-1.116zm1.109-4.636h2.389c.508 0 .905-.051 1.193-.156a1.289 1.289 0 0 0 .877-1.242c0-.393-.143-.717-.433-.969-.288-.252-.745-.378-1.367-.378h-2.658v2.743zM73.421 31.859v-8.297h6.074v.977h-4.962v2.541h4.646v.973h-4.646v2.825h5.156v.979h-6.268zM93.082 28.949l1.111.275c-.23.902-.653 1.591-1.257 2.065s-1.346.71-2.221.71c-.905 0-1.643-.183-2.208-.546-.567-.367-1.001-.892-1.293-1.583a5.533 5.533 0 0 1-.444-2.225c0-.862.166-1.617.499-2.261s.811-1.131 1.427-1.466 1.295-.499 2.037-.499c.841 0 1.547.209 2.118.634.574.42.973 1.018 1.201 1.783l-1.097.254c-.196-.604-.48-1.043-.847-1.321-.373-.275-.838-.412-1.397-.412-.649 0-1.186.154-1.619.459s-.74.717-.915 1.231a4.857 4.857 0 0 0-.262 1.594c0 .704.105 1.321.311 1.847s.531.919.969 1.182c.442.258.915.388 1.427.388.623 0 1.15-.175 1.581-.529.431-.356.725-.883.877-1.581zM100.508 31.859l3.226-8.297h1.199l3.437 8.297h-1.267l-.979-2.513h-3.511l-.924 2.513h-1.18zm2.423-3.407h2.848l-.875-2.298c-.269-.7-.467-1.274-.597-1.722a10.779 10.779 0 0 1-.452 1.583l-.924 2.436z"/>
		</symbol>
		<symbol id="ratora-laundary" viewBox="0 0 139 32">
			<path d="M11.108.367c7.226 0 8.117 2.748 8.117 4.454 0 1.47-1.146 2.701-2.991 3.33l1.845 2.199c.858 1.041 1.402 2.212 3.151 2.359v2.786H10.917v-2.786c.668-.023 1.175-.111 1.175-.542 0-.237-.19-.495-.542-.969l-1.242-1.623H8.531v2.289c0 .41.06.93 1.047.845v2.786H-.003v-2.786h.89c.828 0 1.116.038 1.116-1.19V4.347c0-.911 0-1.212-1.116-1.212h-.89V.366h11.108zM8.533 6.551h.7c1.747 0 2.575-.695 2.575-1.732 0-1.382-1.619-1.427-2.701-1.427h-.574v3.159zM45.331 11.433c.314.821.54 1.278 1.623 1.278h.478v2.788H36.799v-2.788h.766c.286 0 .855.041.855-.348 0-.149-.16-.542-.254-.732H31.64l-.224.535c0 .523.544.544.926.544h.318v2.788h-8.533V12.71h.512c1.21 0 1.495-.433 2.129-1.839l3.091-6.701c.19-.433.254-.561.254-.708 0-.173-.064-.305-1.335-.305h-.54V.371h12.604l4.489 11.061zm-12.32-2.829h3.881l-1.781-4.322h-.158l-1.941 4.322zM68.023.367v5.084H64.27c-.704-2.313-.386-2.054-2.074-2.054h-.702v8.491c0 .823.446.845 1.118.845h1.21v2.793H52.488v-2.793h1.205c.702 0 1.152-.021 1.152-.845V3.397h-.704c-1.498 0-1.591-.198-2.071 2.054h-3.755V.367h19.708zM88.111 2.746c1.975 1.903 2.195 4.041 2.195 5.186 0 1.924-.668 3.936-2.067 5.28-1.53 1.444-4.07 2.654-8.245 2.654-4.717 0-7.132-1.572-8.277-2.654-2.101-2.01-2.039-4.802-2.039-5.28 0-1.254.162-3.219 2.197-5.186C74.013.692 77.033 0 79.997 0c4.617 0 7.027 1.687 8.115 2.746zM77.097 7.219v1.453c0 2.05.222 4.169 2.897 4.169 2.673 0 2.895-2.097 2.895-4.169V7.219c0-2.033-.222-4.19-2.895-4.19-2.803 0-2.897 2.396-2.897 4.19zM103.008.367c7.228 0 8.122 2.748 8.122 4.454 0 1.47-1.143 2.701-2.995 3.33l1.852 2.199c.853 1.041 1.397 2.212 3.151 2.359v2.786h-10.319v-2.786c.668-.023 1.182-.111 1.182-.542 0-.237-.194-.495-.54-.969l-1.244-1.623h-1.781v2.289c0 .41.062.93 1.05.845v2.786h-9.583v-2.786h.89c.834 0 1.111.038 1.111-1.19V4.347c0-.911 0-1.212-1.111-1.212h-.89V.366h11.106zm-2.575 6.184h.698c1.751 0 2.579-.695 2.579-1.732 0-1.382-1.623-1.427-2.707-1.427h-.572v3.159zM136.567 11.433c.316.821.538 1.278 1.621 1.278h.478v2.788h-10.633v-2.788h.764c.29 0 .86.041.86-.348 0-.149-.16-.542-.254-.732h-6.526l-.222.535c0 .523.54.544.924.544h.316v2.788h-8.533V12.71h.512c1.212 0 1.495-.433 2.133-1.839l3.081-6.701c.192-.433.258-.561.258-.708 0-.173-.066-.305-1.333-.305h-.544V.371h12.606l4.493 11.061zm-12.32-2.829h3.885l-1.79-4.322h-.156l-1.939 4.322zM23.661 31.861V23.56h1.114v7.322h4.139v.979zM35.185 31.861l3.228-8.301h1.201l3.439 8.301h-1.267l-.979-2.515h-3.516l-.924 2.515h-1.182zm2.426-3.409h2.85l-.879-2.298a21.68 21.68 0 0 1-.595-1.724c-.111.533-.26 1.06-.452 1.587l-.924 2.434zM55.326 23.561h1.111v4.794c0 .836-.096 1.498-.286 1.988-.194.491-.535.89-1.035 1.199-.501.309-1.154.459-1.963.459-.787 0-1.429-.134-1.931-.401a2.304 2.304 0 0 1-1.071-1.161c-.215-.508-.32-1.203-.32-2.084v-4.794h1.109v4.789c0 .719.07 1.252.205 1.591.134.341.373.606.702.791s.734.277 1.212.277c.817 0 1.399-.183 1.747-.55.346-.365.521-1.069.521-2.11V23.56zM64.151 31.861V23.56h1.143l4.412 6.515V23.56h1.067v8.301h-1.141l-4.412-6.524v6.524zM78.515 31.859V23.56h2.891c.659 0 1.156.041 1.498.119.484.113.892.305 1.231.595a3.38 3.38 0 0 1 1.001 1.419c.22.576.326 1.231.326 1.971 0 .631-.073 1.19-.222 1.677-.147.486-.339.89-.576 1.21-.233.316-.489.57-.762.753a3.098 3.098 0 0 1-1.007.412c-.39.096-.841.141-1.353.141h-3.027zm1.114-.977h1.792c.557 0 .992-.049 1.306-.151.314-.105.567-.247.755-.433.262-.258.469-.608.614-1.05.149-.435.222-.971.222-1.6 0-.866-.141-1.534-.429-1.999-.292-.469-.644-.783-1.056-.939-.299-.111-.774-.169-1.44-.169h-1.762v6.34zM92.883 31.861V23.56h3.727c.749 0 1.318.073 1.709.222.393.147.702.41.934.789.233.378.35.794.35 1.252 0 .587-.192 1.088-.578 1.487-.384.405-.981.663-1.788.77.294.141.514.277.668.412.326.297.636.666.926 1.105l1.463 2.261h-1.397l-1.114-1.728a14.774 14.774 0 0 0-.804-1.143c-.209-.265-.397-.45-.563-.555l-.506-.222a3.499 3.499 0 0 0-.623-.038h-1.289v3.686h-1.116zm1.11-4.638h2.394c.506 0 .905-.051 1.193-.154.288-.107.503-.273.655-.497.149-.228.222-.48.222-.747 0-.393-.143-.715-.431-.966-.292-.254-.747-.38-1.372-.38h-2.66v2.743zM109.372 31.861v-3.514l-3.241-4.785h1.355l1.658 2.502c.307.469.589.934.851 1.404.254-.435.559-.924.917-1.468l1.63-2.438h1.293l-3.351 4.785v3.514h-1.111z"/>
		</symbol>
		<symbol id="ratora-retail" viewBox="0 0 139 32">
			<path d="M11.11.369c7.226 0 8.117 2.758 8.117 4.469 0 1.481-1.148 2.711-2.991 3.345l1.843 2.208c.86 1.045 1.404 2.221 3.153 2.368v2.799H10.917v-2.799c.668-.021 1.175-.107 1.175-.542 0-.239-.19-.499-.542-.975l-1.242-1.628H8.531v2.298c0 .412.062.934 1.047.847v2.799H-.003v-2.799h.89c.826 0 1.116.043 1.116-1.195V4.362c0-.909 0-1.214-1.116-1.214h-.89V.368h11.11zm-2.577 6.21h.7c1.749 0 2.575-.7 2.575-1.741 0-1.382-1.619-1.429-2.703-1.429h-.572v3.17zM45.329 11.484c.316.823.542 1.278 1.626 1.278h.478v2.799H36.8V12.76h.766c.284 0 .853.043.853-.348 0-.147-.158-.542-.254-.736h-6.526c-.096.151-.224.41-.224.542 0 .521.544.542.924.542h.318v2.799h-8.533V12.76h.512c1.21 0 1.495-.435 2.129-1.843l3.091-6.726c.19-.435.254-.563.254-.715 0-.175-.064-.307-1.338-.307h-.54V.37h12.606l4.491 11.115zM33.011 8.638h3.881l-1.781-4.337h-.158l-1.941 4.337zM68.023.369v5.103H64.27c-.704-2.323-.386-2.063-2.074-2.063h-.7v8.529c0 .823.446.847 1.116.847h1.21v2.799H52.485v-2.799h1.207c.702 0 1.152-.026 1.152-.847V3.409h-.704c-1.498 0-1.591-.201-2.069 2.063h-3.753V.369h19.703zM88.111 2.758c1.975 1.911 2.195 4.055 2.195 5.205 0 1.931-.668 3.949-2.067 5.299-1.53 1.453-4.075 2.662-8.245 2.662-4.715 0-7.134-1.579-8.277-2.662-2.101-2.02-2.037-4.821-2.037-5.299 0-1.257.16-3.234 2.195-5.205C74.013.695 77.033 0 79.997 0c4.617 0 7.031 1.696 8.115 2.758zM77.097 7.249v1.455c0 2.059.222 4.188 2.897 4.188s2.895-2.108 2.895-4.188V7.249c0-2.044-.222-4.211-2.895-4.211-2.803.002-2.897 2.413-2.897 4.211zM103.008.369c7.228 0 8.122 2.758 8.122 4.469 0 1.481-1.146 2.711-2.995 3.345l1.85 2.208c.855 1.045 1.399 2.221 3.153 2.368v2.799h-10.319v-2.799c.668-.021 1.182-.107 1.182-.542 0-.239-.194-.499-.54-.975l-1.244-1.63h-1.781v2.298c0 .412.062.934 1.05.847v2.799h-9.583v-2.797h.89c.832 0 1.111.043 1.111-1.195V4.362c0-.909 0-1.214-1.111-1.214h-.89V.368h11.106zm-2.575 6.21h.698c1.751 0 2.579-.7 2.579-1.741 0-1.382-1.623-1.429-2.707-1.429h-.572v3.17zM136.565 11.484c.318.823.54 1.278 1.626 1.278h.476v2.799h-10.63V12.76h.762c.288 0 .86.043.86-.348 0-.147-.16-.542-.254-.736h-6.526c-.098.151-.222.41-.222.542 0 .521.54.542.922.542h.318v2.799h-8.533V12.76h.512c1.207 0 1.495-.435 2.133-1.843l3.083-6.726c.192-.435.256-.563.256-.715 0-.175-.064-.307-1.335-.307h-.542V.37h12.606l4.491 11.115zm-12.318-2.846h3.885l-1.788-4.337h-.158l-1.939 4.337zM34.605 32v-8.333h3.727c.749 0 1.318.073 1.709.222.393.149.7.414.934.794.233.38.35.798.35 1.257 0 .591-.194 1.09-.58 1.493-.384.407-.981.666-1.788.774.294.139.518.279.67.414.322.297.631.666.926 1.109L42.014 32h-1.397l-1.114-1.734a16.075 16.075 0 0 0-.802-1.15c-.211-.265-.399-.45-.567-.557a1.635 1.635 0 0 0-.503-.222 3.433 3.433 0 0 0-.621-.041h-1.289v3.703h-1.116zm1.113-4.657h2.389c.51 0 .907-.051 1.195-.156s.503-.273.655-.499c.147-.23.222-.48.222-.749 0-.395-.143-.719-.433-.973s-.745-.38-1.367-.38h-2.66v2.756zM48.962 32v-8.333h6.078v.983h-4.964v2.549h4.651v.981h-4.651v2.835h5.161v.983h-6.274zM64.783 32v-7.349H62.01v-.983h6.665v.983h-2.782V32h-1.109zM73.892 32l3.228-8.333h1.199L81.76 32h-1.269l-.979-2.526h-3.516L75.072 32h-1.18zm2.426-3.422h2.85l-.879-2.306a22.542 22.542 0 0 1-.595-1.73 11.02 11.02 0 0 1-.452 1.591l-.924 2.445zM88.708 32v-8.333h1.111V32h-1.111zM97.602 32v-8.333h1.114v7.349h4.139v.983h-5.252z"/>
		</symbol>
		<symbol id="tablet" viewBox="0 0 38 32">
			<path d="M29.877 1.829v19.243a4.6 4.6 0 0 1 .914.876V.915h-6.4v.914h5.486zM29.877 28.529v2.557H7.02V1.829h5.486V.915h-6.4v31.086h24.686v-4.347a4.545 4.545 0 0 1-.914.876z"/>
			<path d="M9.763 26.514V3.657h2.743v-.914H8.849v24.686H23.52a4.56 4.56 0 0 1-.503-.914H9.763zM27.134 3.657V20.24c.039-.001.075-.012.114-.012.274 0 .539.035.8.081V2.743h-3.657v.914h2.743zM23.477 1.829h.914v.914h-.914v-.914zM23.477.914h.914V0H12.505v.914h.914zM23.477 5.486h.914V3.658h-.914v.914zM23.477.914h.914v.914h-.914V.914z"/>
			<path d="M23.477 2.743h.914v.914h-.914v-.914zM23.477 5.486v-.914H13.42v-.914h-.914v1.828zM12.506 1.829h.914v.914h-.914v-.914zM12.506.914h.914v.914h-.914V.914zM12.506 2.743h.914v.914h-.914v-.914zM14.709 9.265l-1.278 1.186-.603-.603a.457.457 0 1 0-.647.647l.914.914a.458.458 0 0 0 .635.012l1.6-1.486a.456.456 0 0 0 .024-.645.453.453 0 0 0-.645-.024zM14.709 14.636l-1.278 1.186-.603-.603a.457.457 0 1 0-.647.647l.914.914a.46.46 0 0 0 .635.012l1.6-1.486a.456.456 0 1 0-.621-.669zM14.709 20.008l-1.278 1.186-.603-.603a.457.457 0 1 0-.647.647l.914.914a.46.46 0 0 0 .635.012l1.6-1.486a.456.456 0 1 0-.621-.669zM17.077 10.972h7.315a.458.458 0 0 0 0-.914h-7.315a.457.457 0 1 0 0 .914zM17.077 16.457h7.315a.457.457 0 1 0 0-.914h-7.315a.457.457 0 1 0 0 .914zM20.734 21.028h-3.657a.458.458 0 0 0 0 .914h3.657a.456.456 0 1 0 0-.914zM27.01 26.514h.124v-.11l-.107.099c-.005.005-.011.007-.017.011zM30.905 24.8c0-.299-.046-.585-.114-.864v1.729c.068-.279.114-.566.114-.865zM28.049 20.766a4.072 4.072 0 0 1 1.829.893v-.588a4.524 4.524 0 0 0-1.829-.761v.456zM27.249 28.914c-1.268 0-2.386-.585-3.141-1.486h-.587a4.56 4.56 0 0 0 3.729 1.943c.979 0 1.884-.316 2.629-.843v-.587a4.074 4.074 0 0 1-2.629.974z"/>
			<path d="M31.363 24.8c0 .754-.217 1.451-.571 2.059v.794c.633-.784 1.028-1.769 1.028-2.853s-.395-2.068-1.028-2.852v.794c.354.606.571 1.304.571 2.057zM27.134 20.697v-.457c-2.467.062-4.457 2.079-4.457 4.559 0 .607.124 1.184.34 1.715h.502a4.08 4.08 0 0 1-.385-1.715 4.108 4.108 0 0 1 3.999-4.103zM29.877 27.941v.587c.347-.245.648-.545.914-.876v-.794a4.102 4.102 0 0 1-.914 1.083zM29.877 21.071v.588c.365.306.673.668.914 1.082v-.794a4.6 4.6 0 0 0-.914-.876zM23.017 26.514c.132.326.303.63.503.914h.587a4.11 4.11 0 0 1-.588-.914h-.502zM27.134 20.24v.457c.039-.001.075-.012.114-.012.274 0 .541.03.8.081v-.457a4.577 4.577 0 0 0-.8-.081c-.039.001-.075.011-.114.012z"/>
			<path d="M27.134 21.154v-.457a4.11 4.11 0 0 0-4 4.103c0 .615.144 1.192.385 1.715h.519a3.606 3.606 0 0 1-.447-1.715 3.656 3.656 0 0 1 3.543-3.646zM30.905 24.8c0 .299-.046.585-.114.865v1.195a4.07 4.07 0 0 0 .571-2.059c0-.753-.217-1.451-.571-2.059v1.195c.068.278.114.565.114.864zM27.249 28.457a3.642 3.642 0 0 1-2.532-1.028h-.609c.755.901 1.874 1.486 3.141 1.486a4.078 4.078 0 0 0 2.629-.974v-.609a3.643 3.643 0 0 1-2.629 1.125zM28.049 21.237c.71.159 1.34.524 1.829 1.031v-.609a4.082 4.082 0 0 0-1.829-.893v.471z"/>
			<path d="M29.877 27.332v.609c.365-.306.673-.668.914-1.082v-1.195a3.647 3.647 0 0 1-.914 1.668zM30.792 23.936v-1.195a4.098 4.098 0 0 0-.914-1.082v.609c.441.458.759 1.03.914 1.668zM24.038 26.514h-.519c.154.334.356.635.588.914h.609a3.675 3.675 0 0 1-.678-.914zM27.134 20.697v.457c.039-.001.075-.012.114-.012.276 0 .542.037.8.094v-.471a4.134 4.134 0 0 0-.8-.081c-.039.001-.075.011-.114.012zM25.626 24.437a.453.453 0 0 0-.641.641l1.412 1.413c.01.01.023.013.034.023h.579c.005-.005.012-.007.017-.011l.107-.099v-1.239l-.405.376-1.104-1.104zM29.5 24.207a.454.454 0 0 0-.618-.664l-.834.775v1.239l1.452-1.349z"/>
			<path d="M28.049 25.556v-1.239l-.914.849v1.239zM26.718 26.625a.446.446 0 0 0 .292-.111h-.579a.454.454 0 0 0 .287.111z"/>
		</symbol>
		<symbol id="operator" viewBox="0 0 38 32">
			<path d="M23.746 22.28l-.058-.011v-.676l.027-.021c.159-.13.316-.274.471-.428a8.536 8.536 0 0 0 2.176-4.796l.005-.053.053-.008a4.165 4.165 0 0 0 2.71-1.611c.912-1.287.988-3.123.225-5.456a.564.564 0 0 0-.226-.293l-.382-.259.002-.039a8.529 8.529 0 0 0-2.04-5.748C25.022.984 22.414.013 18.96 0c-3.435 0-6.042.962-7.749 2.859a8.508 8.508 0 0 0-2.038 5.745v.039l-.382.259a.568.568 0 0 0-.226.295c-.759 2.335-.684 4.172.226 5.461a4.184 4.184 0 0 0 2.708 1.624l.052.009.007.053a8.562 8.562 0 0 0 2.184 4.804c.14.142.299.286.469.426l.026.021v.676l-.057.011c-2.836.548-12.075 2.825-11.915 9.153 0 .313.255.567.565.567h32.265a.567.567 0 0 0 .567-.565c.159-6.331-9.08-8.608-11.915-9.155zm-12.661-7.277a2.802 2.802 0 0 1-1.38-1.008l-.108-.15.047.011c-.568-.956-.582-2.334-.044-4.099l.008-.024.021-.013.463-.312a.56.56 0 0 0 .248-.527 7.545 7.545 0 0 1 1.742-5.273c1.441-1.632 3.754-2.463 6.878-2.476h.079c3.054 0 5.348.833 6.823 2.474a7.529 7.529 0 0 1 1.744 5.272.566.566 0 0 0 .249.529l.484.327.008.024c.572 1.873.526 3.301-.137 4.243a2.787 2.787 0 0 1-1.387 1.007l-.246.081.171-.193a4.158 4.158 0 0 0 1.018-3.121 2.881 2.881 0 0 0-.998-1.729l-.024-.02-.001-.031c-.27-6.309-4.684-6.991-6.568-6.991l-.037-.001c-.384 0-.777.03-1.166.087l-.01.001-.01-.001a8.038 8.038 0 0 0-1.166-.087l-.036.001c-1.879 0-6.282.681-6.572 6.99l-.001.031-.025.02a2.898 2.898 0 0 0-1.009 1.728 4.172 4.172 0 0 0 1.017 3.117l.171.194-.245-.082zm1.354-5.272l-.081.005.006-.081c.349-4.571 3.137-5.53 5.414-5.53h.034c.359 0 .717.031 1.065.092a.635.635 0 0 0 .23 0 6.093 6.093 0 0 1 1.065-.092h.033c2.268 0 5.038.964 5.38 5.543l.412 1.207.031-.005.025.021c.324.276.535.661.596 1.083.111.763-.297 1.7-1.179 2.711a.555.555 0 0 0-.14.377v.374l-.037.021-3.739 2.004-.037-.035a1.754 1.754 0 0 0-1.21-.482 1.74 1.74 0 0 0-1.276.548 1.762 1.762 0 0 0 .067 2.487c.327.31.757.482 1.208.482a1.756 1.756 0 0 0 1.759-1.759 1.191 1.191 0 0 0 0-.169l-.002-.044 3.085-1.652-.029.145a7.066 7.066 0 0 1-1.72 3.385 5.695 5.695 0 0 1-3.976 1.605c-.096 0-.191-.004-.287-.008l-.314.001a5.713 5.713 0 0 1-4.25-1.588c-1.985-1.976-1.985-5.182-1.985-5.317l.001-.089.018.004a.559.559 0 0 0-.133-.288c-.882-1.009-1.289-1.946-1.18-2.711a1.75 1.75 0 0 1 .602-1.116l.02-.017h.025l.5-1.112zm8.495 8.971a.635.635 0 1 1-1.271 0 .635.635 0 0 1 1.271 0zm-2.539 12.131H3.408l.007-.078c.507-4.809 8.343-6.83 10.732-7.335l.085-.017v1.223c0 1.377 1.686 2.468 4.099 2.652l.065.005v3.551zm-3.035-6.208v-2.301l.1.047a7.662 7.662 0 0 0 3.207.706l.133-.002h.32l.135.002a7.665 7.665 0 0 0 3.205-.706l.101-.047v2.301c0 .644-1.371 1.543-3.601 1.543s-3.6-.899-3.6-1.543zm4.166 6.227v-3.578l.063-.004c2.413-.165 4.099-1.254 4.099-2.653V23.42l.086.017c2.383.495 10.203 2.488 10.731 7.335l.009.079H19.526z"/>
			<path d="M11.566 10.997a.492.492 0 0 1-.221-.934c1.301-.652 3.823-2.414 4.046-4.423a.493.493 0 0 1 .852-.279c1.051 1.138 4.117 3.787 9.871 3.787a.492.492 0 1 1 0 .985c-5.248 0-8.431-2.094-9.957-3.474-.887 2.476-3.983 4.091-4.372 4.285a.49.49 0 0 1-.219.052z"/>
		</symbol>
		<symbol id="map-spot" viewBox="0 0 38 32">
			<path d="M4.929 28.039l.462-1.118h3.275L6.969 31.03H3.694l.492-1.191.743-1.801zm3.113-7.534h3.275l-1.195 2.891H6.847l1.195-2.891zm2.814 10.525l3.007-7.28 8.558 7.28H10.856zm3.91-11.496H7.722a.48.48 0 0 0-.444.299L2.529 31.329a.487.487 0 0 0 .044.456.48.48 0 0 0 .401.215h31.981c.161 0 .312-.081.401-.216s.106-.306.044-.456l-4.749-11.495a.483.483 0 0 0-.444-.299h-7.413l-.945.971h8.038l1.195 2.891h-8.921l-.991.971h10.312l.655 1.586h-9.914a.483.483 0 0 0-.315.85l4.834 4.228h-2.827l-9.93-8.449c-.118-.1-.275-.137-.424-.1s-.272.142-.331.284L9.817 31.03H8.014l1.821-4.408c.062-.15.045-.32-.043-.455s-.239-.216-.4-.216H5.796l.654-1.587h3.996a.478.478 0 0 0 .444-.298l1.471-3.564h3.233l-.826-.968zM28.208 31.03l-4.699-4.109h9.026l1.697 4.109h-6.024zM19.166 14.872c-2.994 0-5.429-2.435-5.429-5.429s2.435-5.429 5.429-5.429 5.429 2.435 5.429 5.429-2.435 5.429-5.429 5.429zm0-9.915c-2.473 0-4.485 2.012-4.485 4.485s2.012 4.485 4.485 4.485c2.473 0 4.485-2.012 4.485-4.485s-2.012-4.485-4.485-4.485z"/>
			<path d="M18.576 24.903h-.015a.47.47 0 0 1-.331-.151c-.372-.4-9.096-9.864-9.096-15.074C9.135 4.342 13.635 0 19.167 0s10.032 4.341 10.032 9.678c0 5.226-9.876 14.695-10.296 15.096a.47.47 0 0 1-.326.129zm.59-23.959c-5.012 0-9.088 3.918-9.088 8.734 0 4.305 6.923 12.289 8.52 14.073 1.765-1.741 9.656-9.767 9.656-14.073 0-4.816-4.076-8.734-9.088-8.734z"/>
		</symbol>
		<symbol id="lorry" viewBox="0 0 38 32">
			<path d="M35.196 17.497l-.076-.012-1.095-4.379.117-.024a.52.52 0 0 0 .409-.507V11.9a2.546 2.546 0 0 0-2.543-2.543h-4.882V5.589c0-.657-.535-1.192-1.192-1.192H3.892c-.657 0-1.192.535-1.192 1.192v13.739a.518.518 0 0 0 1.034 0V5.589c0-.087.071-.158.158-.158h22.041c.087 0 .157.071.157.158v13.74a.518.518 0 0 0 1.035 0v-.834h7.58c.952 0 1.788.609 2.08 1.516l.048.151h-2.124a.518.518 0 0 0-.517.517v1.35a1.87 1.87 0 0 0 1.867 1.868h.831v3.017h-1.852l-.027-.078a3.9 3.9 0 0 0-3.679-2.624 3.896 3.896 0 0 0-3.678 2.623l-.027.078h-.503v-4.884a.518.518 0 0 0-1.034 0v4.885H13.893l-.027-.077c-.543-1.57-2.021-2.625-3.679-2.625s-3.136 1.054-3.679 2.623l-.027.079h-2.59a.158.158 0 0 1-.158-.158v-1.509h1.729a.518.518 0 0 0 0-1.034H.515a.517.517 0 1 0 .001 1.033h2.183v1.509c0 .657.535 1.192 1.192 1.192h2.408l-.004.121c0 1.054.405 2.044 1.14 2.785A3.848 3.848 0 0 0 10.186 32a3.897 3.897 0 0 0 3.892-3.894v-.133l.115-.025h13.255l-.007.126c0 2.165 1.745 3.927 3.89 3.927a3.897 3.897 0 0 0 3.892-3.894v-.132l.116-.026h2.068a.517.517 0 0 0 .516-.517V20.68a3.236 3.236 0 0 0-2.729-3.182zm-1.149-.036h-6.92v-4.369h5.829l1.092 4.369zm-6.92-5.404V10.39h4.882a1.51 1.51 0 0 1 1.508 1.509v.133l-.116.025h-6.275zm9.766 10.805h-.833a.835.835 0 0 1-.834-.833v-.833h1.667v1.665zm-5.559 8.103a2.861 2.861 0 0 1-2.857-2.859c0-1.576 1.282-2.858 2.857-2.858s2.858 1.282 2.858 2.858a2.861 2.861 0 0 1-2.858 2.859zm-21.146 0a2.862 2.862 0 0 1-2.859-2.859c0-1.576 1.282-2.858 2.859-2.858a2.86 2.86 0 0 1 0 5.717z"/>
			<path d="M11.381 28.107a1.193 1.193 0 1 1-2.386 0 1.193 1.193 0 0 1 2.386 0zM32.527 28.107a1.193 1.193 0 1 1-2.386 0 1.193 1.193 0 0 1 2.386 0zM15.073 24.728c0 .286.231.518.516.518h9.451a.518.518 0 0 0 0-1.034h-9.452a.517.517 0 0 0-.516.516zM1.867 22.547h6.971a.518.518 0 0 0 0-1.034H1.867a.518.518 0 0 0 0 1.034zM19.947 11.755l-5.708 5.713-3.01-3.011a.525.525 0 0 0-.732 0c-.2.201-.2.53.001.731l3.376 3.378c.093.092.226.145.364.145s.273-.053.367-.146l6.076-6.079a.522.522 0 0 0 0-.731.548.548 0 0 0-.733 0z"/>
		</symbol>
		<symbol id="handshake" viewBox="0 0 38 32">
			<path d="M29.203 5.512l.852 1.964c-.87.491-1.829 1-2.089.796-.587-.35-1.344-.744-2.252-1.335l-2.172-1.522c-1.701-1.302-4.055-1.591-6.44-.468-1.468-.407-2.508-.457-3.167-.153-1.884.867-4.023 3.122-4.763 3.48-.373.181-.686-.149-1.295-.6l.947-2.161L0 5.373v15.24h2.405l1.738-4.139 1.618.321 1.775 2.248c-.465.417-.485.425-.571.515a2.418 2.418 0 0 0-.593 1.08l-.008 1.143a2.434 2.434 0 0 0 2.46 1.882 2.437 2.437 0 0 0 2.499 2.78 2.436 2.436 0 0 0 2.498 2.779c-.321 2.284 2.388 3.65 4.049 2.157l1.221-1.097c1.548 1.295 3.996.325 4.128-1.778a2.506 2.506 0 0 0 3.189-2.196c1.716.415 3.316-1 3.095-2.762a2.516 2.516 0 0 0 2.524-1.768l.083-1.144a2.526 2.526 0 0 0-.605-1.275l.072.057 2.091-2.673.394-.034 1.68 3.905h2.183V5.374l-8.723.142zM1.763 19.638H.972V6.359l6.388.181-5.597 13.098zm5.739 1.201c.071-.231.203-.433.37-.584 1.496-1.346 1.621-1.53 2.031-1.639 1.274-.347 2.233 1.23 1.209 2.216l-1.505 1.351c-.961.866-2.488-.071-2.105-1.345zm2.774 4.028a1.298 1.298 0 0 1 .097-1.832l1.505-1.352a1.3 1.3 0 0 1 1.832.097h.001c.401.446.48 1.147-.002 1.736-.084.092-.013.018-1.601 1.448a1.297 1.297 0 0 1-1.831-.097zm2.498 2.779a1.299 1.299 0 0 1 .098-1.832c1.582-1.417 1.669-1.589 2.165-1.669a1.297 1.297 0 0 1 1.073 2.245l-1.504 1.352a1.297 1.297 0 0 1-1.832-.097zm5.915 1.447c-.087.093.007-.003-1.584 1.431a1.3 1.3 0 0 1-1.833-.098 1.3 1.3 0 0 1 .099-1.832c1.537-1.374 1.646-1.573 2.133-1.663.013.003.684-.169 1.202.408.438.486.45 1.252-.017 1.753zm10.151-6.934c-.542-.374-1.183.321-.77.832a1.38 1.38 0 0 1-.127 1.874c-.527.49-1.351.49-1.877.001-.455-.425-1.166.085-.912.652.251.56.097 1.227-.376 1.621-.561.468-1.4.403-1.913-.147l-.143-.155a.571.571 0 0 0-.888.717c.39.557.309 1.33-.189 1.794a1.38 1.38 0 0 1-1.787.078c.965-1.652-.303-3.732-2.194-3.664a2.447 2.447 0 0 0-2.504-2.778 2.439 2.439 0 0 0-2.498-2.779 2.426 2.426 0 0 0-.602-1.972 2.44 2.44 0 0 0-3.447-.185l-.359.323-1.947-2.488-1.779-.395 2.828-6.603c.942.844 1.579.77 2.312.415.967-.468 2.997-2.667 4.744-3.47.132-.061.474-.151 1.243-.035-1.813 1.284-2.893 2.853-4.262 4.204-1.345 1.452-.301 3.873 2.002 3.861a2.819 2.819 0 0 0 1.883-.732l2.837-2.58a.218.218 0 0 1 .228 0c1.278 1.346 3.547 2.46 6.056 2.569 6.768 7.57 6.247 6.984 6.321 7.079.202.27.268.961.268.953-.1 1.065-1.304 1.592-2.151 1.008zm4.262-6.261l-2.185 2.791c-6.411-7.221-5.945-6.7-6.242-6.706-3.518-.065-5.504-2.223-5.523-2.244-.38-.427-1.285-.509-1.775-.063l-2.867 2.608a1.675 1.675 0 0 1-1.189.433c-1.247-.046-1.747-1.225-1.086-1.939l2.103-2.268c-.017.019-.044.046.011-.012 1.657-1.801 3.012-2.393 3.067-2.43 1.741-.876 3.8-.993 5.432.257l2.241 1.573c2.078 1.353 2.68 1.648 3.428 1.648l2.018-.955 3.138 7.146-.569.162zm3.851 3.74h-.578L30.68 6.54l6.273-.181v13.279z"/>
		</symbol>
		<symbol id="full-equip" viewBox="0 0 38 32">
			<path d="M29.894 28.933a1.65 1.65 0 0 0 1.647-1.649 1.65 1.65 0 0 0-3.297 0c0 .91.74 1.649 1.65 1.649zm-.002-2.32a.673.673 0 0 1 0 1.345.672.672 0 0 1 0-1.345zM12.978 13.739a.488.488 0 0 0-.532-.128 6.545 6.545 0 0 1-6.897-1.497 6.534 6.534 0 0 1-1.71-6.215l3.268 3.267c.297.299.695.462 1.115.462s.818-.164 1.116-.462l2.489-2.489c.299-.299.463-.695.463-1.116s-.164-.818-.463-1.115L8.559 1.178a6.531 6.531 0 0 1 6.215 1.71 6.519 6.519 0 0 1 1.446 7.035.488.488 0 0 0 .127.544l1.3 1.173.692-.691-1.092-.985a7.495 7.495 0 0 0-1.782-7.767A7.51 7.51 0 0 0 7.472.499a.485.485 0 0 0-.17.801l3.836 3.835a.602.602 0 0 1 0 .849L8.647 8.475a.597.597 0 0 1-.425.175.596.596 0 0 1-.424-.175L3.963 4.64a.489.489 0 0 0-.802.17 7.51 7.51 0 0 0 1.699 7.994 7.521 7.521 0 0 0 7.615 1.831l1.041 1.138.692-.692-1.228-1.342z"/>
			<path d="M24.387 17.716l7.855 7.084a3.349 3.349 0 0 1 1.115 2.424 3.352 3.352 0 0 1-.99 2.481 3.361 3.361 0 0 1-2.468.99 3.352 3.352 0 0 1-2.421-1.099l-7.151-7.821-.692.692 7.121 7.788a4.316 4.316 0 0 0 3.222 1.418 4.319 4.319 0 0 0 3.08-1.278 4.318 4.318 0 0 0 1.275-3.196 4.325 4.325 0 0 0-1.438-3.125l-7.816-7.049-.616.614-.078.076z"/>
			<path d="M20.139 21.568l.19.207 4.059-4.059-.492-.444-4.025 4.001zM31.68 10.423l2.849-2.849c.473-.472.734-1.106.734-1.779s-.261-1.305-.734-1.78l-2.847-2.847a2.5 2.5 0 0 0-1.781-.735c-.674 0-1.305.261-1.779.735l-9.781 9.779.412.372 7.016-6.972 5.49 5.605-6.67 6.63.491.443 6.6-6.601zM26.343 4.37l2.491-2.491a1.5 1.5 0 0 1 1.067-.44 1.5 1.5 0 0 1 1.068.44l2.848 2.847a1.51 1.51 0 0 1 0 2.135l-2.491 2.492-4.983-4.984zM17.649 11.637l-3.444 3.443.363.397 3.492-3.469zM19.175 21.963L12.5 28.596l-5.49-5.605 6.866-6.824-.361-.395-6.824 6.825-.036.041c-.003.004-.007.007-.009.012a.501.501 0 0 0-.032.046l-.019.037a.091.091 0 0 1-.007.014l-.015.037a.02.02 0 0 1-.002.009l-2.849 8.542a.507.507 0 0 0 .477.664.525.525 0 0 0 .16-.026l8.543-2.849.009-.002.036-.015c.007-.002.011-.005.015-.008l.036-.018.014-.008.034-.023.012-.01c.013-.011.028-.023.042-.037l6.537-6.537-.219-.239-.243-.264zM4.996 30.7l.847-2.542 1.695 1.693-2.543.849zm3.609-1.204l-2.407-2.408 1.068-3.202 4.542 4.542-3.204 1.067z"/>
			<path d="M17.649 11.637l.411.371.693-.69-.412-.372-.286.284zM20.139 21.568l-.27-.296-.695.69.462.504.692-.692zM14.568 15.477l-.363-.397-.692.692.361.395zM23.895 17.271l.492.444.077-.077.616-.614-.491-.444zM9.715 22.898a.503.503 0 1 0 .712.712l5.356-5.358-.68-.743-5.388 5.388zM20.146 13.89l-.268-.242-.481-.433-3.602 3.603.68.745zM23.732 6.981l.887 1.012-4.529 4.53.749.676 4.492-4.492 2.315 2.19a.504.504 0 0 0 .713-.711l-1.422-1.425-2.492-2.491 1.187-1.187 4.983 4.983-6.283 6.283.26.233 6.67-6.631-5.49-5.605-7.016 6.972.338.304 4.641-4.641z"/>
			<path d="M18.398 12.314l-.338-.306-3.492 3.469.319.348zM19.647 21.031l.222.242 4.025-4.001-.256-.232zM12.742 27.936l-4.983-4.983 6.437-6.437-.321-.35-6.866 6.824 5.49 5.605 6.675-6.633-.219-.241zM23.639 17.039l.256.232.695-.69-.259-.233z"/>
			<path d="M18.398 12.314l.693-.692-.338-.303-.693.69zM19.878 13.648l.268.242.692-.692-.268-.242-.481-.434-.692.692zM15.783 18.253l.692-.69-.68-.745-.692.692zM14.887 15.826l-.319-.348-.693.69.321.35zM18.955 21.722l.219.241.695-.69-.222-.242z"/>
		</symbol>
		<symbol id="arrow-left" viewBox="0 0 18 32">
			<path d="M15.834 32l1.173-1.171L2.178 16 17.005 1.171 15.834 0 0 16z"/>
		</symbol>
		<symbol id="arrow-right" viewBox="0 0 18 32">
			<path d="M1.171 0L0 1.171 14.829 16 .002 30.829 1.173 32l15.834-16z"/>
		</symbol>
		<symbol id="arrow-up" viewBox="0 0 32 32">
			<path d="M0 23.332l1.171 1.171L16 9.674l14.829 14.827L32 23.33 16 7.496z"/>
		</symbol>
		<symbol id="arrow-down" viewBox="0 0 32 32">
			<path d="M0 8.668l1.171-1.171L16 22.326 30.829 7.499 32 8.67 16 24.504z"/>
		</symbol>
		<symbol id="arrow-top" viewBox="0 0 32 32">
			<path d="M0 28.571h32V32H0v-3.429zM18.424 2.857L16 .433.046 16.387l2.424 2.424L16 5.281l13.53 13.53 2.424-2.424z"/>
		</symbol>
		<symbol id="checkpoint" viewBox="0 0 32 32">
			<path d="M15.999 1.137c5.517 0 11.457 3.677 11.457 11.751 0 7.016-8.843 15.316-11.457 17.616-2.612-2.3-11.455-10.6-11.455-17.616 0-8.075 5.937-11.751 11.455-11.751zm0-1.137C9.939 0 3.41 4.051 3.41 12.887S15.999 32 15.999 32s12.592-10.277 12.592-19.113S22.06 0 15.999 0z"/>
			<path d="M16.001 18.903c-3.435 0-6.228-2.795-6.228-6.228s2.793-6.227 6.228-6.227c3.432 0 6.225 2.793 6.225 6.227s-2.793 6.228-6.225 6.228zm0-11.09a4.866 4.866 0 0 0-4.861 4.861 4.867 4.867 0 0 0 4.861 4.861 4.867 4.867 0 0 0 4.86-4.861 4.866 4.866 0 0 0-4.86-4.861z"/>
		</symbol>
		<symbol id="location" viewBox="0 0 32 32">
			<path d="M16.002 17.746c3.309 0 6-2.692 6-6s-2.691-6-6-6-6 2.691-6 6 2.691 6 6 6zm0-11c2.758 0 5 2.242 5 5s-2.242 5-5 5-5-2.242-5-5 2.242-5 5-5z"/>
			<path d="M16 0C9.382 0 4 5.316 4 12.001c0 7 6.001 14.161 10.376 19.194.016.02.718.805 1.586.805h.077c.867 0 1.57-.785 1.586-.805 4.377-5.033 10.377-12.193 10.377-19.194A11.971 11.971 0 0 0 16 0zm.117 29.883c-.021.02-.082.064-.135.098-.01-.027-.084-.086-.129-.133C12.188 25.631 6 18.514 6 12.001 6 6.487 10.487 2 16 2c5.516 0 10.002 4.487 10.002 10.002 0 6.512-6.188 13.629-9.885 17.881z"/>
		</symbol>
		<symbol id="email" viewBox="0 0 32 32">
			<path d="M29.421 4.625H2.58C1.16 4.625 0 5.785 0 7.204v17.591c0 1.427 1.16 2.58 2.58 2.58h26.841A2.58 2.58 0 0 0 32 24.795V7.204a2.585 2.585 0 0 0-2.579-2.579zm0 1.034c.265 0 .503.084.72.201L17.217 17.132c-.66.575-1.773.575-2.433 0L1.864 5.859c.217-.116.453-.2.716-.2h26.841zm1.547 19.136c0 .856-.691 1.545-1.547 1.545H2.58a1.547 1.547 0 0 1-1.547-1.545V7.204c0-.211.044-.409.12-.592l10.492 9.152-5.912 5.54a.517.517 0 0 0 .71.75l5.94-5.568c.015-.015.021-.032.033-.048l1.691 1.473c.519.455 1.203.681 1.895.681.685 0 1.369-.227 1.895-.687l1.696-1.479c.015.017.009.043.027.059l5.936 5.568a.522.522 0 0 0 .731-.021.515.515 0 0 0-.021-.729l-5.912-5.54 10.493-9.151c.077.183.12.383.12.592v17.589z"/>
		</symbol>
		<symbol id="persone" viewBox="0 0 32 32">
			<path d="M16 32C7.179 32 0 24.823 0 16 0 7.179 7.179 0 16 0s16 7.179 16 16c0 8.823-7.177 16-16 16zM16 .971C7.715.971.971 7.714.971 16c0 8.292 6.744 15.035 15.029 15.035 8.292 0 15.033-6.744 15.033-15.035C31.034 7.713 24.292.971 16 .971z"/>
			<path d="M16 32a15.887 15.887 0 0 1-9.257-2.963.49.49 0 0 1-.203-.46.49.49 0 0 1 .312-.393c4.02-1.488 4.669-2.695 4.669-5.011 0-.617-.139-.813-.384-1.179-.332-.479-.781-1.137-1.093-2.852-.047-.247-.089-.264-.307-.368-.588-.284-1.128-.692-1.269-2.552 0-.9.307-1.397.568-1.652a50.703 50.703 0 0 1-.237-1.477c-.44-2.689-.459-5.991 3.329-7.525 3.301-1.335 5.939-.607 6.767.267.583.019 2.093.175 3.143 1.396 1.621 1.88 1.104 6.169.928 7.329.256.256.569.749.569 1.629-.139 1.895-.677 2.303-1.268 2.585-.219.104-.261.123-.308.368-.312 1.715-.763 2.372-1.093 2.852-.247.364-.384.561-.384 1.179 0 2.315.648 3.523 4.669 5.011.171.061.289.213.312.393s-.052.355-.199.46A15.899 15.899 0 0 1 16 32zm-7.936-3.243A14.928 14.928 0 0 0 16 31.034c2.821 0 5.549-.787 7.936-2.277-3.367-1.387-4.427-2.78-4.427-5.584 0-.915.269-1.305.559-1.724.293-.431.657-.967.937-2.481.137-.728.559-.932.843-1.069.299-.143.612-.295.72-1.749 0-.743-.336-.941-.347-.951a.51.51 0 0 1-.255-.523c.237-1.287.635-5.307-.663-6.817-.885-1.027-2.283-1.056-2.547-1.047-.043-.005-.085-.005-.129-.015-.128-.032-.34-.143-.407-.256-.26-.449-2.559-1.36-5.731-.075-3.133 1.271-3.139 3.989-2.731 6.479.132.928.279 1.732.279 1.732a.487.487 0 0 1-.275.531c.005 0-.327.204-.327.976.109 1.419.417 1.567.72 1.713.28.133.705.336.839 1.069.279 1.512.648 2.047.943 2.476.289.417.553.815.553 1.725 0 2.809-1.056 4.207-4.428 5.589z"/>
		</symbol>
		<symbol id="phone" viewBox="0 0 32 32">
			<path d="M25.723 32.001c-1.335 0-2.944-.336-4.709-1.005-3.879-1.459-8.093-4.344-11.877-8.131-3.784-3.784-6.675-8.003-8.136-11.877C-.328 7.461-.328 4.567.996 3.24c.188-.187.383-.392.583-.603C2.787 1.366 4.154-.064 5.962-.002c1.251.053 2.46.831 3.695 2.371 3.657 4.547 2.008 6.171.1 8.047l-.336.336c-.309.311-.904 1.756 4.588 7.241 1.787 1.795 3.316 3.101 4.535 3.896.767.5 2.144 1.255 2.707.693l.341-.341c1.876-1.909 3.495-3.547 8.041.107 1.54 1.24 2.317 2.443 2.364 3.695.075 1.807-1.365 3.177-2.639 4.388-.209.197-.415.393-.604.584-.655.656-1.705.987-3.029.987zM5.835 1.077c-1.288 0-2.449 1.219-3.48 2.303-.205.22-.405.429-.604.624-.983.988-.884 3.58.257 6.607 1.409 3.736 4.211 7.82 7.889 11.495 3.679 3.68 7.759 6.479 11.495 7.888 3.028 1.14 5.619 1.243 6.601.252.199-.195.409-.396.625-.599 1.109-1.052 2.361-2.245 2.307-3.563-.036-.912-.697-1.883-1.965-2.901-3.785-3.044-4.847-1.972-6.603-.191l-.347.347c-.84.841-2.201.656-4.052-.547-1.288-.836-2.869-2.195-4.715-4.036-4.556-4.556-6.012-7.34-4.587-8.769l.347-.337c1.787-1.756 2.864-2.817-.184-6.607-1.02-1.265-1.997-1.929-2.901-1.965h-.084z"/>
		</symbol>
		<symbol id="phonecall" viewBox="0 0 32 32">
			<path d="M25.304 19.822c-.656-.682-1.447-1.046-2.285-1.046-.833 0-1.631.357-2.314 1.04l-2.137 2.127c-.177-.095-.352-.183-.521-.27a8.203 8.203 0 0 1-.671-.358c-2.001-1.27-3.821-2.925-5.565-5.064-.846-1.068-1.414-1.966-1.827-2.878.555-.506 1.069-1.034 1.569-1.54.19-.189.379-.385.568-.574 1.421-1.418 1.421-3.255 0-4.674l-1.847-1.843c-.208-.21-.425-.427-.628-.642-.405-.42-.832-.851-1.271-1.256-.656-.65-1.44-.993-2.266-.993s-1.623.343-2.3.993l-.013.013-2.3 2.316A4.937 4.937 0 0 0 .028 8.314c-.161 1.972.42 3.81.866 5.011 1.096 2.952 2.732 5.688 5.174 8.618 2.963 3.533 6.527 6.322 10.6 8.288 1.555.736 3.632 1.607 5.951 1.755.142.007.291.014.426.014 1.562 0 2.874-.561 3.902-1.674.007-.014.021-.021.026-.034.353-.426.759-.811 1.184-1.223.292-.277.59-.568.88-.871.67-.696 1.021-1.507 1.021-2.338 0-.836-.358-1.641-1.041-2.315l-3.713-3.723zm2.422 7.113c-.008 0-.008.006 0 0-.265.283-.535.54-.826.824-.438.418-.886.856-1.305 1.351-.684.729-1.488 1.073-2.543 1.073-.102 0-.21 0-.312-.007-2.009-.128-3.876-.912-5.275-1.581-3.829-1.85-7.19-4.478-9.983-7.807-2.307-2.776-3.849-5.342-4.869-8.099-.63-1.682-.86-2.992-.758-4.228a3.096 3.096 0 0 1 .933-2.007l2.307-2.302c.332-.312.683-.48 1.028-.48.426 0 .771.258.987.474l.02.021c.412.385.805.783 1.217 1.209.211.215.427.432.643.656l1.847 1.843c.717.716.717 1.378 0 2.094-.196.196-.386.393-.582.581a34.941 34.941 0 0 1-1.696 1.648c-.015.014-.027.021-.034.033-.582.581-.474 1.148-.353 1.532l.021.062c.48 1.162 1.157 2.257 2.185 3.56l.007.007c1.867 2.297 3.835 4.087 6.006 5.457.278.176.562.317.833.452.243.122.473.237.669.359.027.014.054.033.081.047.229.114.446.168.67.168.562 0 .913-.351 1.028-.466l2.313-2.311c.229-.229.595-.506 1.021-.506.419 0 .765.264.974.493l3.74 3.735c.696.689.696 1.399.006 2.115zM17.296 7.611a8.59 8.59 0 0 1 4.666 2.419 8.601 8.601 0 0 1 2.422 4.66c.074.445.46.757.899.757.055 0 .103-.008.156-.015a.913.913 0 0 0 .751-1.054 10.405 10.405 0 0 0-2.93-5.639 10.436 10.436 0 0 0-5.647-2.925.92.92 0 0 0-1.056.743.903.903 0 0 0 .739 1.054zM31.986 14.116a17.125 17.125 0 0 0-4.821-9.286A17.155 17.155 0 0 0 17.864.015a.908.908 0 0 0-1.048.742c-.081.5.25.966.75 1.054 3.152.533 6.026 2.026 8.313 4.303a15.293 15.293 0 0 1 4.309 8.3.906.906 0 0 0 1.054.742.894.894 0 0 0 .744-1.04z"/>
		</symbol>
		<symbol id="equip-wc" viewBox="0 0 38 32">
			<path d="M37.996 11.665c-.084-.12-.219-.11-.365-.11H24.296c-.146 0-.283-.011-.366.11s-.101.189-.05.327l6.667 17.778a.443.443 0 0 0 .415.288c.185 0 .351-.094.416-.267l6.667-17.757a.366.366 0 0 0-.05-.368zm-7.033 16.847l-6.025-16.068h12.051l-6.026 16.068zM30.836 8.724a3.56 3.56 0 0 0 3.556-3.555c0-1.961-1.594-3.556-3.556-3.556S27.28 3.208 27.28 5.169a3.56 3.56 0 0 0 3.556 3.555zm0-6.222c1.47 0 2.667 1.197 2.667 2.667s-1.196 2.666-2.667 2.666-2.667-1.196-2.667-2.666a2.67 2.67 0 0 1 2.667-2.667zM7.369 11.662c-.13-.347-.7-.337-.831.011L-.121 29.497c-.051.137-.032.332.05.452s.219.274.364.274H13.628c.245 0 .443-.28.443-.526 0-.098-.031-.27-.086-.343L7.368 11.662zM.935 29.333l6.018-16.092 6.018 16.092H.934zM6.836 8.724a3.56 3.56 0 0 0 3.556-3.555c0-1.961-1.595-3.556-3.556-3.556S3.28 3.208 3.28 5.169a3.56 3.56 0 0 0 3.556 3.555zm0-6.222c1.47 0 2.667 1.197 2.667 2.667S8.307 7.835 6.836 7.835 4.169 6.639 4.169 5.169a2.67 2.67 0 0 1 2.667-2.667zM18.519 0h.889v32h-.889V0z"/>
		</symbol>
		<symbol id="equip-retail" viewBox="0 0 38 32">
			<path d="M31.852 19.556v1.778H19.408v-8.889h10.667V9.778h-.889v1.778h-9.778V2.667h8V0h-.889v1.778h-7.111V0h-.889v1.778h-7.111V0h-.889v2.667h8v8.889H8.741V9.778h-.889v2.667h10.667v8.889H6.075v-1.778h-.889v2.667h13.333v6.222H7.852v3.556h22.222v-3.556H19.407v-6.222H32.74v-2.667h-.889zm-2.667 9.777v1.778H8.741v-1.778h20.444z"/>
		</symbol>
		<symbol id="equip-pizza" viewBox="0 0 38 32">
			<path d="M33.955 5.16c.29 0 .526-.232.526-.517a.523.523 0 0 0-.526-.519H23.109V.506a.505.505 0 0 0-.504-.505h-7.284a.505.505 0 0 0-.505.505v3.618H3.972a.523.523 0 0 0-.526.519c0 .285.235.517.526.517h.48v23.989l-.113.024a.523.523 0 0 0-.415.507c0 .286.235.519.523.519h1.035v1.279c0 .289.233.524.519.524a.522.522 0 0 0 .517-.523V30.2h24.73v1.279c0 .289.233.523.52.523s.519-.235.519-.523V30.2h1.393c.29 0 .526-.233.526-.519a.522.522 0 0 0-.526-.517h-.363V5.161h.638zM15.826 1.009H22.1v3.114h-6.274V1.009zM32.279 29.16H5.488v-6.576h26.791v6.576zm-9.253-7.931a5.28 5.28 0 0 0 .978-3.104c-.018-2.508-1.752-4.785-1.949-5.036a.542.542 0 0 0-.414-.197.532.532 0 0 0-.423.222l-.27.379-.104-.225c-.286-.622-.761-1.502-1.405-2.164-.177-.184-.578-.185-.751-.002-.649.667-1.123 1.545-1.407 2.167l-.103.227-.27-.383a.518.518 0 0 0-.414-.217.538.538 0 0 0-.422.194c-.198.249-1.93 2.506-1.951 5.038a5.279 5.279 0 0 0 .98 3.106l.164.227H9.609v-10.18l.331-.031c.375-.207 4.053-2.127 8.99-2.127 4.856 0 8.526 1.867 9.017 2.129l.209.041v10.165h-5.294l.163-.226zm-1.59.161c0 .004-.01.015-.023.028l-.041.038h-4.61l-.068-.067c-.959-.72-1.533-1.941-1.523-3.255.012-1.463.756-2.897 1.198-3.622l.113-.185.28.396c.203.284.297.401.558.401a.53.53 0 0 0 .492-.348l.013-.037c.103-.308.487-1.391 1.121-2.3l.117-.169.117.169c.625.897 1.018 1.991 1.124 2.306l.015.049a.524.524 0 0 0 .489.329c.259 0 .351-.116.555-.401l.28-.396.113.185c.54.882 1.188 2.227 1.199 3.623.011 1.307-.557 2.524-1.52 3.256zm10.843.156h-3.085V10.975c0-.227-.274-.411-.328-.446-.162-.1-4.091-2.456-9.762-2.456-5.795 0-9.964 2.432-10.005 2.458a1.276 1.276 0 0 1-.089.052c-.193.11-.435.245-.435.391v10.571H5.488V5.159h26.791v16.386z"/>
			<path d="M15.288 26.535h7.351a.52.52 0 0 0 .523-.516.522.522 0 0 0-.523-.52h-7.351a.522.522 0 0 0-.522.52.52.52 0 0 0 .522.516z"/>
		</symbol>
		<symbol id="equip-pack" viewBox="0 0 38 32">
			<path d="M29.271 1.173L26.713.32l-2.583.861L21.547.32l-2.583.861L16.381.32l-2.583.861-2.585-.862-2.459.854L6.048.013V32l2.606-1.173 2.559.853 2.583-.861 2.583.861 2.583-.86 2.583.861 2.583-.861 2.585.862 2.456-.854 2.706 1.16V0L29.27 1.173zm1.745 29.508l-1.814-.778-2.494.868-2.58-.86-2.583.86-2.583-.859-2.583.86-2.583-.86-2.583.86-2.606-.868-1.698.764v-1.593h24.105v1.607zm0-2.468H6.911V4.109h24.105v24.104zm0-24.966H6.911V1.319l1.813.778 2.494-.868 2.58.86 2.583-.861 2.583.861 2.583-.861 2.583.861 2.583-.861 2.605.869 1.698-.765v1.915z"/>
			<path d="M14.561 20.873c.16.436.504 1.313.916 1.973.526.84 1.53 2.006 2.188 2.401.258.155.479.217.674.217.29 0 .521-.142.734-.324.789.372 2.627 1.132 3.495 1.241.163.02.322.03.475.03.858 0 1.545-.315 1.885-.881.281-.469.466-1.213-.248-2.105-.399-.5-1.168-1.655-1.5-2.369.095-.364.046-.743-.188-1.135-.191-.317-.247-.648-.3-.971-.013-.079-.029-.151-.043-.225a.963.963 0 0 0 .076-.589c-.104-.622-.203-3.79-.11-4.258.03-.146.027-.269.012-.383.024-.108.046-.22.065-.338.054-.322.11-.654.3-.972.235-.391.284-.769.188-1.135.333-.714 1.101-1.87 1.5-2.369.713-.892.529-1.637.248-2.105-.4-.668-1.282-.988-2.36-.852-.868.108-2.701.868-3.492 1.24-.357-.305-.77-.49-1.41-.105-.658.395-1.663 1.56-2.188 2.401-.425.68-.777 1.589-.93 2.011-.628.062-.93.665-1.146 1.169-.064.149-.141.302-.223.465-.329.655-.78 1.552-.78 2.933 0 1.693.969 3.977 1.229 4.496.165.333.484.508.933.539zm4.205 3.377c-.408.408-.407.408-.658.258-.475-.284-1.398-1.314-1.901-2.119-.309-.493-.584-1.148-.752-1.586.044-.008.09-.014.135-.021.674-.112 5.193-1.082 5.63-1.191.161-.04.417-.107.673-.217.06.303.154.645.361.991.175.293.203.517-.151.873-.206.207-.94.857-1.65 1.49-.753.667-1.462 1.299-1.687 1.522zm3.882-2.345a17.28 17.28 0 0 0 1.359 2.058c.434.542.326.885.183 1.123-.217.362-.796.531-1.515.441-.644-.081-2.065-.642-2.921-1.022.331-.3.804-.721 1.27-1.135a76.646 76.646 0 0 0 1.623-1.464zm.028-15.325c.718-.092 1.297.079 1.515.44.143.238.251.581-.183 1.124a17.22 17.22 0 0 0-1.359 2.057c-.265-.257-.918-.837-1.623-1.464-.466-.414-.939-.835-1.27-1.135.855-.38 2.277-.942 2.921-1.022zm-6.469 3.137c.503-.805 1.426-1.835 1.901-2.119.251-.15.249-.151.658.258.225.224.934.856 1.687 1.524.709.631 1.444 1.283 1.65 1.489.354.354.326.58.151.873-.206.342-.3.681-.359.983a3.553 3.553 0 0 0-.351-.102c-.383-.096-4.9-.986-6.123-1.224.162-.434.454-1.148.788-1.682zm-2.259 3.575c.09-.18.175-.348.245-.513.238-.556.343-.665.441-.665.037 0 .103.008.263.057 2.081.408 6.104 1.204 6.436 1.286.138.035.398.1.441.154 0 0 .009.027-.006.098-.121.605-.004 3.911.105 4.567.042.254-.616.418-.863.481-.414.103-4.929 1.071-5.563 1.176a5.02 5.02 0 0 1-.756.09h-.001c-.096 0-.261-.009-.293-.073-.187-.374-1.138-2.596-1.138-4.112-.001-1.176.366-1.903.689-2.545z"/>
		</symbol>
		<symbol id="equip-neutral" viewBox="0 0 38 32">
			<path d="M32.741 0h-8c-.343 0-.653.134-.889.347A1.323 1.323 0 0 0 22.963 0h-8c-.343 0-.653.134-.889.347A1.323 1.323 0 0 0 13.185 0h-8C4.45 0 3.852.598 3.852 1.333v27.556c0 .579.373 1.068.889 1.252v1.86h.889v-1.778h7.111v1.778h.889v-1.86c.165-.059.316-.149.444-.265.129.116.279.207.444.265v1.86h.889v-1.778h7.111v1.778h.889v-1.86c.165-.059.316-.149.444-.265.129.116.279.207.444.265v1.86h.889v-1.778h7.111v1.778h.889v-1.86c.516-.184.889-.673.889-1.252V1.333C34.073.598 33.474 0 32.74 0zM13.185 29.333h-8a.445.445 0 0 1-.444-.444V1.333c0-.245.2-.444.444-.444h8c.245 0 .444.199.444.444v27.556c0 .245-.2.444-.444.444zm9.778 0h-8a.445.445 0 0 1-.444-.444V1.333c0-.245.2-.444.444-.444h8c.245 0 .444.199.444.444v27.556c0 .245-.2.444-.444.444zm10.222-.444c0 .245-.2.444-.444.444h-8a.445.445 0 0 1-.444-.444V1.333c0-.245.2-.444.444-.444h8c.245 0 .444.199.444.444v27.556z"/>
			<path d="M6.963 17.333a.444.444 0 0 0 .444-.444v-2.667a.444.444 0 1 0-.888 0v2.667c0 .245.199.444.444.444zM6.519 24.889h5.333v.889H6.519v-.889zM6.519 26.667h5.333v.889H6.519v-.889zM16.296 24.889h5.333v.889h-5.333v-.889zM16.296 26.667h5.333v.889h-5.333v-.889zM26.074 24.889h5.333v.889h-5.333v-.889zM26.074 26.667h5.333v.889h-5.333v-.889zM16.741 17.333a.444.444 0 0 0 .444-.444v-2.667a.444.444 0 1 0-.888 0v2.667c0 .245.199.444.444.444zM26.519 17.333a.444.444 0 0 0 .444-.444v-2.667a.444.444 0 1 0-.888 0v2.667c0 .245.199.444.444.444z"/>
		</symbol>
		<symbol id="equip-laundary" viewBox="0 0 38 32">
			<path d="M31.852 0H6.074c-.735 0-1.333.598-1.333 1.333v29.333c0 .735.598 1.333 1.333 1.333h25.778c.735 0 1.333-.599 1.333-1.333V1.333C33.185.598 32.586 0 31.852 0zm.444 30.667c0 .245-.2.444-.444.444H6.074a.445.445 0 0 1-.444-.444V1.334c0-.245.2-.444.444-.444h25.778c.245 0 .444.199.444.444v29.333z"/>
			<path d="M18.963 8.889c-5.391 0-9.778 4.386-9.778 9.778s4.386 9.778 9.778 9.778 9.778-4.386 9.778-9.778-4.386-9.778-9.778-9.778zm0 18.667c-4.901 0-8.889-3.988-8.889-8.889s3.988-8.889 8.889-8.889 8.889 3.988 8.889 8.889-3.988 8.889-8.889 8.889z"/>
			<path d="M18.963 11.556c-3.921 0-7.111 3.19-7.111 7.111s3.19 7.111 7.111 7.111 7.111-3.19 7.111-7.111-3.19-7.111-7.111-7.111zm0 13.333a6.233 6.233 0 0 1-5.946-4.391 4.127 4.127 0 0 1 5.562.281 5.024 5.024 0 0 0 3.58 1.484c.781 0 1.527-.194 2.209-.528a6.219 6.219 0 0 1-5.405 3.153zm6.222-6.222c0 .556-.08 1.09-.217 1.603a4.137 4.137 0 0 1-2.809 1.105 4.141 4.141 0 0 1-2.951-1.224 5.037 5.037 0 0 0-3.58-1.484c-1.02 0-1.992.301-2.821.859a6.42 6.42 0 0 1-.066-.859c0-.233.015-.462.04-.689a4.14 4.14 0 0 1 2.847-1.136c1.115 0 2.163.434 2.952 1.224a5.032 5.032 0 0 0 3.58 1.484c1.107 0 2.149-.37 3.019-1.023.001.047.007.092.007.139zm-3.026-.006a4.141 4.141 0 0 1-2.951-1.224 5.03 5.03 0 0 0-3.58-1.485c-.914 0-1.781.258-2.549.709.836-2.449 3.155-4.217 5.884-4.217 3.023 0 5.546 2.168 6.105 5.029a4.15 4.15 0 0 1-2.909 1.188zM30.519 4.889a1.333 1.333 0 1 1-2.667 0 1.333 1.333 0 0 1 2.667 0zM26.074 6.667V3.111a.444.444 0 0 0-.444-.444H7.852a.444.444 0 0 0-.444.444v3.556c0 .246.199.444.444.444H25.63a.444.444 0 0 0 .444-.444zm-.889-.445H8.296V3.555h16.889v2.667z"/>
		</symbol>
		<symbol id="equip-heat" viewBox="0 0 38 32">
			<path d="M31.852 1.778H6.074c-.735 0-1.333.598-1.333 1.333V28c0 .735.599 1.333 1.333 1.333h.444v2.222c0 .245.199.444.444.444h24a.444.444 0 0 0 .444-.444v-2.222h.444c.735 0 1.333-.599 1.333-1.333V3.111c0-.735-.599-1.333-1.333-1.333zM5.63 3.111c0-.245.2-.444.444-.444h25.778c.245 0 .444.2.444.444v1.333H5.629V3.111zm24.889 28H7.408v-1.778h23.111v1.778zM32.296 28c0 .245-.2.444-.444.444H6.074A.445.445 0 0 1 5.63 28V5.333h26.667V28z"/>
			<path d="M21.614 8.889h.004a.86.86 0 0 0 .889-.867.907.907 0 0 0-.891-.911h-.009c-.491 0-.876.408-.88.898a.862.862 0 0 0 .259.625c.166.169.39.255.628.255zM16.614 8.889h.004a.86.86 0 0 0 .889-.867.902.902 0 0 0-.26-.639.898.898 0 0 0-.631-.272h-.009c-.489 0-.876.408-.88.898a.862.862 0 0 0 .259.625.871.871 0 0 0 .628.255zM11.614 8.889h.004a.86.86 0 0 0 .889-.867.906.906 0 0 0-.891-.911h-.009c-.49 0-.876.408-.88.898a.872.872 0 0 0 .887.88zM26.614 8.889h.004a.86.86 0 0 0 .889-.867.906.906 0 0 0-.891-.911h-.009a.892.892 0 0 0-.88.898.865.865 0 0 0 .258.625.87.87 0 0 0 .629.255zM14.519 14.222h8.889a.444.444 0 0 0 0-.888h-8.889a.444.444 0 0 0 0 .888z"/>
			<path d="M9.63 25.778h18.667c.735 0 1.333-.599 1.333-1.333V12.001c0-.735-.599-1.333-1.333-1.333H9.63c-.735 0-1.333.599-1.333 1.333v12.444c0 .735.599 1.333 1.333 1.333zM9.185 12c0-.245.2-.444.444-.444h18.667c.245 0 .444.2.444.444v12.444c0 .245-.2.444-.444.444H9.629a.445.445 0 0 1-.444-.444V12zM10.074.889h6.222a.444.444 0 0 0 0-.888h-6.222a.444.444 0 0 0 0 .888zM22.519.889h6.222a.444.444 0 0 0 0-.888h-6.222a.444.444 0 0 0 0 .888z"/>
		</symbol>
		<symbol id="equip-emechanical" viewBox="0 0 38 32">
			<path d="M6.519 25.778a.444.444 0 0 0 .444-.444V20.89a.444.444 0 0 0-.888 0v4.444c0 .245.199.444.444.444zM9.185 25.778a.444.444 0 0 0 .444-.444V20.89a.444.444 0 0 0-.888 0v4.444c0 .245.199.444.444.444zM11.852 25.778a.444.444 0 0 0 .444-.444V20.89a.444.444 0 0 0-.888 0v4.444c0 .245.199.444.444.444z"/>
			<path d="M34.963 10.667h-3.556a.444.444 0 0 0-.444.444v2.222h-1.778V5.182l4.174-1.774a.444.444 0 0 0 .271-.409V.888h.444a.444.444 0 0 0 0-.888H13.63a.444.444 0 0 0 0 .888h.444v2.111c0 .216.155.4.367.437l10.3 1.817v8.079h-.889a.419.419 0 0 0-.154.031c-1.65-2.113-3.697-3.587-6.18-3.587H3.852c-.735 0-1.333.599-1.333 1.333v16.889c0 .735.599 1.333 1.333 1.333h.444v2.222c0 .245.199.444.444.444h4.444a.446.446 0 0 0 .422-.304l.788-2.363h11.803l.788 2.363a.446.446 0 0 0 .422.304h4.444a.444.444 0 0 0 .444-.444v-2.292c.419-.116.833-.427.833-1.264 0-1.092-.668-4.713-2.099-8.444h3.932v2.222c0 .245.199.444.444.444h3.556a.444.444 0 0 0 .444-.444V11.108a.444.444 0 0 0-.444-.444zm-20-9.778h17.778v1.817L28.65 4.445h-3.426L14.963 2.628V.889zM25.63 5.333h2.667v8H25.63v-8zM3.407 28V11.111c0-.245.2-.444.444-.444h9.333c7.123 0 10.722 14.407 10.722 17.333 0 .428-.069.444-.611.444H3.85A.445.445 0 0 1 3.406 28zm5.458 3.111H5.186v-1.778h4.273l-.593 1.778zm18.542 0h-3.679l-.593-1.778h4.273v1.778zm.223-2.667h-2.881c.03-.129.047-.276.047-.444 0-2.139-2.568-13.986-8.411-17.333h1.134c7.123 0 10.722 14.407 10.722 17.333-.001.428-.07.444-.612.444zm-.955-9.777c-.648-1.554-1.427-3.094-2.348-4.444h6.636v4.444h-4.288zm7.844 2.666h-2.667v-9.778h2.667v9.778z"/>
		</symbol>
		<symbol id="equip-dishes" viewBox="0 0 38 32">
			<path d="M35.493 14.588c0-3.077-1.297-5.851-3.365-7.823C29.992 2.746 25.765.001 20.904.001c-4.06 0-7.672 1.921-10 4.894v-1.6a.47.47 0 0 0-.471-.471H2.904a.47.47 0 0 0-.471.471v6.588c0 3.031 2.265 4.041 3.77 4.207 0 .011-.005.018-.005.028v5.647H2.433V32h3.765v-2.824H31.61V32h3.765V19.765h-1.204a10.762 10.762 0 0 0 1.321-5.177zM20.904.941c3.585 0 6.795 1.617 8.954 4.153a10.757 10.757 0 0 0-5.189-1.33c-5.968 0-10.824 4.855-10.824 10.823 0 3.172 1.378 6.018 3.559 8h-1.51l-2.803-2.824h-1.576a11.69 11.69 0 0 1-2.34-6.366c.956-.621 1.73-1.707 1.73-3.516V6.538c2.076-3.352 5.776-5.597 10-5.597zM3.375 9.882V3.765h6.588v6.117c0 1.097-.348 1.825-.798 2.313a2.945 2.945 0 0 1-.958.689c-.574.26-1.068.292-1.068.292h-.252c-.135 0-3.513-.055-3.513-3.294zm3.76 4.212a4.869 4.869 0 0 0 1.122-.247 12.605 12.605 0 0 0 2.091 5.917H7.14v-5.647c0-.009-.005-.015-.005-.024zM5.257 31.059H3.375v-1.883h1.882v1.883zm29.176 0h-1.882v-1.883h1.883v1.883zm0-10.353v7.529H3.375v-7.529h9.324l2.804 2.823h7.522l2.347-2.824h9.061zm-9.503-.941l-.341.41a5.595 5.595 0 0 1-5.511-5.587 5.597 5.597 0 0 1 5.591-5.591 5.597 5.597 0 0 1 5.589 5.591 5.595 5.595 0 0 1-3.486 5.176H24.93zm6.531 0h-2.897a6.477 6.477 0 0 0 2.593-5.176 6.496 6.496 0 0 0-6.488-6.488 6.496 6.496 0 0 0-6.489 6.488c0 3.311 2.494 6.046 5.703 6.436l-1.3 1.564h-3.692c-2.481-1.797-4.104-4.709-4.104-8 0-5.449 4.433-9.882 9.883-9.882a9.83 9.83 0 0 1 6.691 2.631 9.92 9.92 0 0 1 1.867 2.334 9.805 9.805 0 0 1 1.323 4.917 9.809 9.809 0 0 1-1.48 5.176h-1.61z"/>
		</symbol>
		<symbol id="equip-cookware" viewBox="0 0 38 32">
			<path d="M34.708 20.68c-.156-.158-.369-.236-.634-.236h-2.703c-.234-1.724-1.83-3.048-4.408-3.785v-5.992h2.667v-.889h-2.695c-.226-3.326-2.952-5.833-7.083-6.738V1.333C19.852.598 19.254 0 18.519 0h-4.444c-.735 0-1.333.598-1.333 1.333V3.04c-4.133.904-6.857 3.412-7.083 6.738H2.964v.889h2.667v13.777c0 1.225.997 2.223 2.222 2.223h4v3.111c0 1.224.997 2.222 2.222 2.222h15.111a2.225 2.225 0 0 0 2.222-2.222V24h2.667c.265 0 .478-.08.634-.236.26-.264.255-.629.255-.983v-1.118c0-.354.005-.719-.255-.983zm-4.235-.236H12.786c.383-1.835 3.16-3.556 8.843-3.556 1.753 0 3.228.165 4.444.446.315.073.609.154.889.242 2.14.67 3.276 1.747 3.51 2.868zm-7.066-4.379c-.57-.04-1.159-.065-1.777-.065s-1.208.025-1.778.065v-1.399c0-.245.2-.444.444-.444h2.667c.245 0 .444.199.444.444v1.399zM13.63 1.333c0-.245.199-.444.444-.444h4.444c.245 0 .444.2.444.444v1.543a17.206 17.206 0 0 0-5.333 0V1.333zm2.666 2.223c5.538 0 9.468 2.536 9.761 6.222H6.536c.292-3.687 4.223-6.222 9.76-6.222zM7.852 25.778a1.335 1.335 0 0 1-1.333-1.334V10.667h19.555v5.769a17.672 17.672 0 0 0-1.778-.288v-1.481c0-.735-.598-1.334-1.333-1.334h-2.667c-.735 0-1.333.599-1.333 1.334v1.481c-4.126.465-6.769 2.038-7.074 4.296H9.63c-.735 0-1.334.599-1.334 1.334v.889c0 .735.599 1.333 1.334 1.333h2.222v1.778h-4zm4-2.667H9.63a.444.444 0 0 1-.444-.444v-.889c0-.245.2-.445.444-.445h2.222v1.778zm18.667 6.667c0 .735-.599 1.333-1.333 1.333H14.075a1.335 1.335 0 0 1-1.333-1.333v-8.445H30.52v8.445zm3.554-8v1.01c0 .1.003.239-.007.322h-2.66v-1.777l2.66.004c.009.084.007.22.007.318v.122z"/>
		</symbol>
		<symbol id="equip-cold" viewBox="0 0 38 32">
			<path d="M32.343 0H5.583C4.622 0 3.84.782 3.84 1.743v26.622c0 .96.781 1.742 1.742 1.742h.15v.466c0 .786.641 1.426 1.427 1.426h1.892c.788 0 1.428-.64 1.428-1.426v-.466h16.967v.466c0 .786.64 1.426 1.428 1.426h1.892c.787 0 1.427-.64 1.427-1.426v-.466h.15c.961 0 1.742-.782 1.742-1.742V1.743A1.742 1.742 0 0 0 32.344 0zM4.802 3.486h6.993v.78a.78.78 0 0 1-.78.78H4.802V3.485zm4.716 27.088a.472.472 0 0 1-.466.465H7.16a.471.471 0 0 1-.465-.465v-.466h2.823v.466zm21.713 0a.472.472 0 0 1-.465.465h-1.892a.471.471 0 0 1-.465-.465v-.466h2.823v.466zm1.893-2.209c0 .431-.35.781-.78.781H5.584a.781.781 0 0 1-.78-.781V6.009h6.213c.961 0 1.742-.782 1.742-1.743v-.78h20.366v24.879zm0-25.842H4.803v-.78c0-.431.35-.78.78-.78h26.76c.431 0 .78.35.78.78v.78z"/>
			<path d="M16.073 16.315l-1.688 1.399a.483.483 0 0 0-.063.678.493.493 0 0 0 .677.064l2.002-1.659h1.481v1.48l-.034.041-1.624 1.962a.477.477 0 0 0 .062.677c.193.156.524.125.678-.063l1.399-1.688 1.399 1.688a.49.49 0 0 0 .374.169.475.475 0 0 0 .304-.105.477.477 0 0 0 .062-.677l-1.658-2.003v-1.481h1.481l.041.035 1.96 1.624a.473.473 0 0 0 .303.105.473.473 0 0 0 .484-.52.479.479 0 0 0-.172-.327l-1.688-1.399 1.688-1.399a.483.483 0 0 0 .063-.678.488.488 0 0 0-.375-.167.475.475 0 0 0-.304.105l-2.001 1.658h-1.481v-1.481l.034-.041 1.624-1.96a.477.477 0 0 0-.365-.782.488.488 0 0 0-.375.169l-1.399 1.688-1.399-1.688a.495.495 0 0 0-.678-.064.481.481 0 0 0-.062.677l1.658 2.001v1.481h-1.482l-.041-.036-1.959-1.622a.476.476 0 0 0-.304-.106.49.49 0 0 0-.375.168.482.482 0 0 0 .063.677l1.688 1.399zM18.963 11.047a.482.482 0 0 0 .481-.481v-.036a.481.481 0 0 0-.962 0v.036c0 .265.216.481.481.481zM13.177 16.796h.036a.481.481 0 0 0 0-.962h-.036a.481.481 0 0 0 0 .962zM18.963 21.585a.481.481 0 0 0-.481.481v.036a.48.48 0 0 0 .962 0v-.036a.481.481 0 0 0-.481-.481zM24.712 16.796h.036a.481.481 0 0 0 0-.962h-.036a.481.481 0 0 0 0 .962z"/>
		</symbol>
		<symbol id="equip-coffee" viewBox="0 0 38 32">
			<path d="M29.169 23.604c2.125 0 3.79-1.639 3.79-3.732 0-2.074-1.636-3.7-3.732-3.729v-2.802H6.835v4.665c0 2.854 1.769 6.661 5.052 8.396H4.969v.466a5.137 5.137 0 0 0 5.132 5.131h15.86a5.136 5.136 0 0 0 5.131-5.131v-.466H24.19c1.303-.69 2.361-1.713 3.17-2.87v.071h1.809zm2.856-3.733c0 1.569-1.255 2.799-2.856 2.799h-1.262c.868-1.539 1.319-3.223 1.319-4.665v-.927c1.573.029 2.799 1.244 2.799 2.793zm-1.892 7.465a4.204 4.204 0 0 1-4.173 3.732H10.099a4.204 4.204 0 0 1-4.173-3.732h24.207zm-9.743-.934h-4.692c-5.28 0-7.93-5.383-7.93-8.396v-3.732h20.525v3.732c0 3.015-2.641 8.397-7.903 8.397zM15.434 7.116c.557.242.73.36.73.627v2.332a.467.467 0 1 0 .932 0V7.743c0-.922-.777-1.259-1.292-1.482-.397-.172-.574-.269-.574-.383V4.717c0-.529.27-.66 1.04-.9.7-.219 1.759-.549 1.759-1.899V.467a.467.467 0 0 0-.933-.001v1.451c0 .606-.302.758-1.103 1.008-.716.224-1.696.529-1.696 1.791v1.16c0 .748.657 1.032 1.136 1.24zM21.049 8.451c.482.302.713.47.713 1.004v1.451a.466.466 0 1 0 .932 0V9.455c0-1.075-.666-1.49-1.153-1.795-.482-.302-.713-.47-.713-1.004V4.324a.466.466 0 1 0-.932 0v2.332c-.001 1.075.665 1.49 1.153 1.795z"/>
		</symbol>
		<symbol id="equip-catering" viewBox="0 0 38 32">
			<path d="M33.185 8h-.444V5.223C32.741 2.245 26.819 0 18.963 0S5.185 2.245 5.185 5.223V8h-.444a2.225 2.225 0 0 0-2.222 2.222v4.444c0 1.225.997 2.222 2.222 2.222h.444V27.11c0 1.073.765 1.97 1.778 2.177v1.378c0 .735.599 1.333 1.333 1.333h1.778c.735 0 1.333-.599 1.333-1.333v-1.333h15.111v1.333c0 .735.599 1.333 1.333 1.333h1.778c.735 0 1.333-.599 1.333-1.333v-1.378a2.226 2.226 0 0 0 1.778-2.177V16.888h.444a2.225 2.225 0 0 0 2.222-2.222v-4.444A2.225 2.225 0 0 0 33.184 8zM6.074 5.223c0-2.093 5.179-4.334 12.889-4.334S31.852 3.13 31.852 5.223V8h-2.667V6.667c0-.735-.599-1.333-1.333-1.333h-4.444c-.735 0-1.333.599-1.333 1.333V8h-6.222V6.667c0-.735-.599-1.333-1.333-1.333h-4.444c-.735 0-1.333.599-1.333 1.333V8H6.076V5.223zM22.963 8V6.667c0-.245.2-.444.444-.444h4.444c.245 0 .444.2.444.444V8h-5.333zm5.333.889v4c0 .245-.2.444-.444.444h-4.444a.445.445 0 0 1-.444-.444v-4h5.333zm-6.222 0v2.667h-6.222V8.889h6.222zM9.63 8V6.667c0-.245.2-.444.444-.444h4.444c.245 0 .444.2.444.444V8H9.629zm5.333.889v4c0 .245-.2.444-.444.444h-4.444a.445.445 0 0 1-.444-.444v-4h5.333zM3.407 10.222c0-.735.599-1.333 1.333-1.333h4v2.667H3.407v-1.333zm7.112 20.445c0 .245-.2.444-.444.444H8.297a.445.445 0 0 1-.444-.444v-1.333h2.667v1.333zm19.555 0c0 .245-.2.444-.444.444h-1.778a.445.445 0 0 1-.444-.444v-1.333h2.667v1.333zm4.445-16c0 .735-.599 1.333-1.333 1.333h-1.333v11.111c0 .735-.599 1.333-1.333 1.333H7.409a1.335 1.335 0 0 1-1.333-1.333V16H4.743a1.335 1.335 0 0 1-1.333-1.333v-2.222h5.333v.444c0 .735.599 1.333 1.333 1.333h4.444c.735 0 1.333-.599 1.333-1.333v-.444h6.222v.444c0 .735.599 1.333 1.333 1.333h4.444c.735 0 1.333-.599 1.333-1.333v-.444h5.333v2.222zm0-3.111h-5.333V8.889h4c.735 0 1.333.599 1.333 1.333v1.333z"/>
			<path d="M22.963 25.778h7.111v.889h-7.111v-.889z"/>
		</symbol>
		<symbol id="equip-bar" viewBox="0 0 38 32">
			<path d="M36.976 4.512L29.865.068a.443.443 0 0 0-.605.13l-4.016 6.024H10.519c0-2.667-2.194-4.722-4.889-4.722S.741 3.86.741 6.555a4.895 4.895 0 0 0 4.889 4.889c.876 0 1.716-.25 2.462-.691l8.649 12.257v5.571l-6.823 2.558a.446.446 0 0 0 .157.862h14.222c.215 0 .399-.153.437-.364s-.08-.42-.281-.497l-6.823-2.558v-5.71L29.459 6.889a.446.446 0 0 0-.385-.666h-2.762L29.76 1.05l6.746 4.216a.444.444 0 1 0 .47-.753zM5.63 10.514c-2.206 0-4-1.836-4-4.041s1.794-4.084 4-4.084 4 2.056 4 3.833H5.749a.445.445 0 0 0-.385.666l2.209 3.129a3.999 3.999 0 0 1-1.943.495zm.889-3.403h18.133l-2.964 4.444H9.706L6.518 7.111zm15.327 24h-9.321l4.661-1.747 4.661 1.747zm-4.712-9.2l-6.79-9.467h10.752l-4.281 6.42a.444.444 0 1 0 .74.493l4.609-6.913h2.115l-7.144 9.467zm11.171-14.8l-3.354 4.444h-2.194l2.963-4.444h2.585z"/>
		</symbol>
		<symbol id="equip-bakery" viewBox="0 0 38 32">
			<path d="M29.63 0H8.297c-.735 0-1.333.598-1.333 1.333V28c0 .735.599 1.333 1.333 1.333H9.63V32h4.444v-2.667h9.778V32h4.444v-2.667h1.333c.735 0 1.333-.599 1.333-1.333V1.333C30.962.598 30.363 0 29.629 0zM8.296 28.444A.445.445 0 0 1 7.852 28V4.444h3.556v24H8.297zm4.889 2.667h-2.667v-1.778h2.667v1.778zm14.222 0H24.74v-1.778h2.667v1.778zM30.074 28c0 .245-.2.444-.444.444H12.297v-24h17.778V28zM7.852 3.556V1.334c0-.245.2-.444.444-.444h21.333c.245 0 .444.199.444.444v2.222H7.851z"/>
			<path d="M10.519 8.889a.889.889 0 1 1-1.778 0 .889.889 0 0 1 1.778 0zM10.519 12.444a.889.889 0 1 1-1.778 0 .889.889 0 0 1 1.778 0zM13.185 13.333h.889v7.111h-.889v-7.111zM16.296 26.667h10.667c.735 0 1.333-.599 1.333-1.333V7.556c0-.735-.599-1.333-1.333-1.333H16.296c-.735 0-1.333.598-1.333 1.333v17.778c0 .735.599 1.333 1.333 1.333zm-.444-19.111c0-.245.2-.444.444-.444h10.667c.245 0 .444.199.444.444v3.111H15.851V7.556zm0 4h11.556V16H15.852v-4.444zm0 5.333h11.556v4.444H15.852v-4.444zm11.555 5.333v3.111c0 .245-.2.444-.444.444H16.296a.445.445 0 0 1-.444-.444v-3.111h11.556z"/>
		</symbol>
		<symbol id="facebook" viewBox="0 0 32 32">
			<path d="M19 6h5V0h-5c-3.86 0-7 3.14-7 7v3H8v6h4v16h6V16h5l1-6h-6V7c0-.542.458-1 1-1z"/>
		</symbol>
		<symbol id="instagram" viewBox="0 0 32 32">
			<path d="M16 2.881c4.275 0 4.781.019 6.462.094 1.563.069 2.406.331 2.969.55a4.952 4.952 0 0 1 1.837 1.194 5.015 5.015 0 0 1 1.2 1.838c.219.563.481 1.412.55 2.969.075 1.688.094 2.194.094 6.463s-.019 4.781-.094 6.463c-.069 1.563-.331 2.406-.55 2.969a4.94 4.94 0 0 1-1.194 1.837 5.02 5.02 0 0 1-1.837 1.2c-.563.219-1.413.481-2.969.55-1.688.075-2.194.094-6.463.094s-4.781-.019-6.463-.094c-1.563-.069-2.406-.331-2.969-.55a4.952 4.952 0 0 1-1.838-1.194 5.02 5.02 0 0 1-1.2-1.837c-.219-.563-.481-1.413-.55-2.969-.075-1.688-.094-2.194-.094-6.463s.019-4.781.094-6.463c.069-1.563.331-2.406.55-2.969a4.964 4.964 0 0 1 1.194-1.838 5.015 5.015 0 0 1 1.838-1.2c.563-.219 1.412-.481 2.969-.55 1.681-.075 2.188-.094 6.463-.094zM16 0c-4.344 0-4.887.019-6.594.094-1.7.075-2.869.35-3.881.744-1.056.412-1.95.956-2.837 1.85a7.833 7.833 0 0 0-1.85 2.831C.444 6.538.169 7.7.094 9.4.019 11.113 0 11.656 0 16s.019 4.887.094 6.594c.075 1.7.35 2.869.744 3.881.413 1.056.956 1.95 1.85 2.837a7.82 7.82 0 0 0 2.831 1.844c1.019.394 2.181.669 3.881.744 1.706.075 2.25.094 6.594.094s4.888-.019 6.594-.094c1.7-.075 2.869-.35 3.881-.744 1.05-.406 1.944-.956 2.831-1.844s1.438-1.781 1.844-2.831c.394-1.019.669-2.181.744-3.881.075-1.706.094-2.25.094-6.594s-.019-4.887-.094-6.594c-.075-1.7-.35-2.869-.744-3.881a7.506 7.506 0 0 0-1.831-2.844A7.82 7.82 0 0 0 26.482.843C25.463.449 24.301.174 22.601.099c-1.712-.081-2.256-.1-6.6-.1z"/>
			<path d="M16 7.781c-4.537 0-8.219 3.681-8.219 8.219s3.681 8.219 8.219 8.219 8.219-3.681 8.219-8.219A8.221 8.221 0 0 0 16 7.781zm0 13.55a5.331 5.331 0 1 1 0-10.663 5.331 5.331 0 0 1 0 10.663zM26.462 7.456a1.919 1.919 0 1 1-3.838 0 1.919 1.919 0 0 1 3.838 0z"/>
		</symbol>
		<symbol id="vk" viewBox="0 0 32 32">
			<path d="M28.483 19.677s2.587 2.555 3.227 3.738a.196.196 0 0 1 .029.056c.261.437.325.779.197 1.032-.216.418-.947.627-1.195.645h-4.573c-.318 0-.981-.083-1.787-.64-.616-.43-1.229-1.139-1.822-1.832-.886-1.029-1.653-1.922-2.429-1.922a.88.88 0 0 0-.288.048c-.587.186-1.333 1.022-1.333 3.251 0 .698-.55 1.094-.936 1.094h-2.094c-.714 0-4.429-.25-7.723-3.723C3.719 17.171.094 8.64.058 8.565c-.226-.552.248-.853.76-.853h4.618c.619 0 .821.374.962.71.163.386.768 1.928 1.76 3.661 1.606 2.819 2.594 3.966 3.382 3.966.149 0 .29-.037.422-.112 1.03-.566.838-4.246.79-5.005 0-.147-.002-1.643-.53-2.366-.378-.518-1.021-.72-1.41-.794.104-.15.325-.381.608-.517.706-.352 1.981-.403 3.246-.403h.702c1.373.019 1.728.107 2.227.234 1.005.24 1.024.891.936 3.109a51.239 51.239 0 0 0-.053 2.187c0 .179-.008.379-.008.582-.03 1.138-.07 2.419.733 2.946a.652.652 0 0 0 .347.099c.278 0 1.112 0 3.373-3.88.992-1.714 1.76-3.734 1.813-3.886.045-.085.179-.323.342-.419a.765.765 0 0 1 .378-.09h5.432c.592 0 .994.09 1.072.314.131.363-.026 1.472-2.506 4.826-.418.558-.784 1.042-1.106 1.464-2.248 2.95-2.248 3.099.133 5.339z"/>
		</symbol>
		<symbol id="youtube" viewBox="0 0 32 32">
			<path d="M31.681 9.6s-.313-2.206-1.275-3.175C29.187 5.15 27.825 5.144 27.2 5.069c-4.475-.325-11.194-.325-11.194-.325h-.012s-6.719 0-11.194.325c-.625.075-1.987.081-3.206 1.356C.631 7.394.325 9.6.325 9.6s-.319 2.588-.319 5.181v2.425c0 2.587.319 5.181.319 5.181s.313 2.206 1.269 3.175c1.219 1.275 2.819 1.231 3.531 1.369 2.563.244 10.881.319 10.881.319s6.725-.012 11.2-.331c.625-.075 1.988-.081 3.206-1.356.962-.969 1.275-3.175 1.275-3.175s.319-2.587.319-5.181v-2.425c-.006-2.588-.325-5.181-.325-5.181zM12.694 20.15v-8.994l8.644 4.513-8.644 4.481z"/>
		</symbol>
		<symbol id="twitter" viewBox="0 0 32 32">
			<path d="M32 7.075a12.941 12.941 0 0 1-3.769 1.031 6.601 6.601 0 0 0 2.887-3.631 13.21 13.21 0 0 1-4.169 1.594A6.565 6.565 0 0 0 22.155 4a6.563 6.563 0 0 0-6.563 6.563c0 .512.056 1.012.169 1.494A18.635 18.635 0 0 1 2.23 5.195a6.56 6.56 0 0 0-.887 3.3 6.557 6.557 0 0 0 2.919 5.463 6.565 6.565 0 0 1-2.975-.819v.081a6.565 6.565 0 0 0 5.269 6.437 6.574 6.574 0 0 1-2.968.112 6.588 6.588 0 0 0 6.131 4.563 13.17 13.17 0 0 1-9.725 2.719 18.568 18.568 0 0 0 10.069 2.95c12.075 0 18.681-10.006 18.681-18.681 0-.287-.006-.569-.019-.85A13.216 13.216 0 0 0 32 7.076z"/>
		</symbol>
		<symbol id="pinterest" viewBox="0 0 32 32">
			<path d="M13.787 21.163c-.842 4.406-1.867 8.63-4.909 10.837-.938-6.659 1.378-11.659 2.454-16.968-1.835-3.088.221-9.299 4.088-7.768 4.76 1.882-4.122 11.475 1.84 12.675 6.226 1.25 8.766-10.8 4.906-14.718C16.59-.44 5.932 5.088 7.244 13.192c.318 1.981 2.365 2.581.818 5.315-3.57-.79-4.635-3.606-4.498-7.36C3.785 5.003 9.082.704 14.398.107c6.722-.754 13.03 2.469 13.902 8.79.981 7.138-3.034 14.869-10.222 14.312-1.949-.152-2.765-1.118-4.291-2.046z"/>
		</symbol>
		<symbol id="city" viewBox="0 0 32 32">
			<path d="M0 32h16V0H0v32zM10 4h4v4h-4V4zm0 8h4v4h-4v-4zm0 8h4v4h-4v-4zM2 4h4v4H2V4zm0 8h4v4H2v-4zm0 8h4v4H2v-4zm16-10h14v2H18zm0 22h4v-8h6v8h4V14H18z"/>
		</symbol>
		<symbol id="firm" viewBox="0 0 32 32">
			<path d="M29.181 19.07c-1.679-2.908-.669-6.634 2.255-8.328l-3.145-5.447a6.022 6.022 0 0 1-3.058.829c-3.361 0-6.085-2.742-6.085-6.125h-6.289a6.023 6.023 0 0 1-.811 3.07C10.369 5.977 6.637 6.966 3.709 5.28L.565 10.727a6.023 6.023 0 0 1 2.246 2.234c1.676 2.903.672 6.623-2.241 8.319l3.145 5.447a6.022 6.022 0 0 1 3.044-.82c3.35 0 6.067 2.725 6.084 6.092h6.289a6.032 6.032 0 0 1 .811-3.038c1.676-2.903 5.399-3.894 8.325-2.219l3.145-5.447a6.032 6.032 0 0 1-2.232-2.226zM16 22.479A6.48 6.48 0 1 1 16 9.52a6.48 6.48 0 0 1 0 12.959z"/>
		</symbol>
		<symbol id="web" viewBox="0 0 32 32">
			<path d="M16 0C7.163 0 0 7.163 0 16s7.163 16 16 16 16-7.163 16-16S24.837 0 16 0zm0 30c-1.967 0-3.84-.407-5.538-1.139l7.286-8.197a.998.998 0 0 0 .253-.664v-3a1 1 0 0 0-1-1c-3.531 0-7.256-3.671-7.293-3.707A1 1 0 0 0 9.001 12h-4a1 1 0 0 0-1 1v6c0 .379.214.725.553.894l3.447 1.724v5.871c-3.627-2.53-6-6.732-6-11.489 0-2.147.484-4.181 1.348-6h3.652c.265 0 .52-.105.707-.293l4-4A1 1 0 0 0 12.001 5V2.581a14.013 14.013 0 0 1 4-.581c2.2 0 4.281.508 6.134 1.412A5.961 5.961 0 0 0 20.002 8c0 1.603.624 3.109 1.757 4.243a5.985 5.985 0 0 0 4.536 1.751c.432 1.619 1.211 5.833-.263 11.635a.936.936 0 0 0-.026.163A13.956 13.956 0 0 1 16.002 30z"/>
		</symbol>
		<symbol id="clock" viewBox="0 0 32 32">
			<path d="M16 1.333C7.867 1.333 1.333 7.866 1.333 16S7.866 30.667 16 30.667 30.667 24.134 30.667 16 24.134 1.333 16 1.333zM16 28C9.333 28 4 22.667 4 16S9.333 4 16 4s12 5.333 12 12-5.333 12-12 12z"/>
			<path d="M21.867 17.467L17.334 15.2V8c0-.8-.533-1.333-1.333-1.333S14.668 7.2 14.668 8v8c0 .533.267.933.8 1.2l5.333 2.667c.133.133.267.133.533.133.533 0 .933-.267 1.2-.8s0-1.333-.667-1.733z"/>
		</symbol>
		<symbol id="store" viewBox="0 0 32 32">
			<path d="M31.4 11.2l-3-3.998a2.967 2.967 0 0 0-.4-.423V2a2 2 0 0 0-2-2H6a2 2 0 0 0-2 2v4.78a2.945 2.945 0 0 0-.4.42L.601 11.199A3.013 3.013 0 0 0 0 13v1c0 1.654 1.346 3 3 3v13a2 2 0 0 0 2 2h22a2 2 0 0 0 2-2V17c1.654 0 3-1.346 3-3v-1c0-.646-.213-1.285-.6-1.8zM26 2v4H6V2h20zM10.193 15H6.004l4-7h2.189l-2 7zm3.041-7H15.5v7h-4.266l2-7zM16.5 8h2.266l2 7H16.5V8zm3.305 0h2.189l4 7h-4.189l-2-7zM2 14v-1c0-.217.07-.427.2-.6l3-4A1 1 0 0 1 6 8h2.852l-4 7H3a1 1 0 0 1-1-1zm18 16h-7.5V20H20v10zm7 0h-6V20a1 1 0 0 0-1-1h-7.5a1 1 0 0 0-1 1v10H5V17h22v13zm3-16a1 1 0 0 1-1 1h-1.854l-4-7H26c.314 0 .611.148.799.4l3 4A.992.992 0 0 1 30 13v1z"/>
		</symbol>
		<symbol id="comment" viewBox="0 0 32 32">
			<path d="M16 7a.5.5 0 0 1 0 1c-5.327 0-10 2.804-10 6a.5.5 0 0 1-1 0c0-3.794 5.037-7 11-7zm0-5C7.163 2 0 7.373 0 14c0 4.127 2.779 7.766 7.008 9.926 0 .027-.008.045-.008.074 0 1.793-1.339 3.723-1.928 4.736h.002A.906.906 0 0 0 5.906 30c.094 0 .259-.025.255-.014 3.125-.512 6.069-3.383 6.753-4.215A21.18 21.18 0 0 0 16 26c8.835 0 16-5.373 16-12S24.836 2 16 2zm0 22c-.917 0-1.858-.07-2.796-.207a2 2 0 0 0-1.836.709c-.428.521-1.646 1.684-3.085 2.539.39-.895.695-1.898.716-2.932a2 2 0 0 0-1.081-1.965C4.212 20.252 2 17.207 2 14 2 8.486 8.28 4 16 4c7.718 0 14 4.486 14 10s-6.281 10-14 10z"/>
		</symbol>
		<symbol id="flag-ru" viewBox="0 0 43 32">
			<path fill="#fff" d="M0 0h42.667v32H0z"/>
			<path fill="#0039a6" d="M0 10.667h42.667V32H0z"/>
			<path fill="#d52b1e" d="M0 21.333h42.667V32H0z"/>
		</symbol>
		<symbol id="flag-gb" viewBox="0 0 43 32">
			<path fill="#006" d="M-10.709 0h64.171v32.085h-64.171z"/>
			<path fill="#fff" d="M-10.709 0v3.585l56.995 28.501h7.175v-3.585L-3.534 0h-7.175zm64.17 0v3.585L-3.534 32.086h-7.175v-3.585L46.286 0h7.175z"/>
			<path fill="#fff" d="M16.031 0v32.085h10.691V0H16.031zm-26.74 10.697v10.691h64.171V10.697h-64.171z"/>
			<path fill="#c00" d="M-10.709 12.834v6.417h64.171v-6.417h-64.171zM18.167 0v32.085h6.417V0h-6.417zm-28.876 32.085l21.388-10.697h4.788L-5.927 32.085h-4.781zm0-32.085l21.388 10.697H5.898l-16.607-8.303V0zm38.001 10.697L48.68 0h4.781L32.073 10.697h-4.781zm26.169 21.388L32.073 21.388h4.781l16.607 8.303v2.394z"/>
		</symbol>
		<symbol id="flad-it" viewBox="0 0 43 32">
			<path fill="#fff" d="M0 0h42.667v32H0z"/>
			<path fill="#009246" d="M0 0h14.22v32H0z"/>
			<path fill="#ce2b37" d="M28.447 0h14.22v32h-14.22z"/>
		</symbol>
		<symbol id="flag-cn" viewBox="0 0 43 32">
			<path fill="#de2910" d="M0 0h42.667v32H0z"/>
			<path d="M5.12 11.84L8 3.2l2.88 8.64L3.2 6.56h9.6zM17.611 3.366l-2.964.657 1.977-2.304-.194 3.101-1.645-2.745zM20.603 7.157l-2.987-.544 2.716-1.357-1.381 2.783-.451-3.168zM20.167 12.475l-2.505-1.715 3.033-.131-2.396 1.977.88-3.077zM16.399 15.949L14.751 13.4l2.848 1.05-2.974.899 2-2.498z"/>
		</symbol>
	</defs>
<symbol id="icons">

</symbol>
</svg>