<svg xmlns="http://www.w3.org/2000/svg" xmlns:xlink="http://www.w3.org/1999/xlink" viewBox="0 0 240 208.96">
	<defs>
		<style>.footer-social1{fill:none;}.footer-social2{clip-path:url(#clip-path);}</style>
		<clipPath id="clip-path">
			<rect class="footer-social1" y="0.16" width="239.76" height="209.76"/>
		</clipPath>
	</defs>
	<title>tellegramm</title>
			<g class="footer-social2">
				<path fill="#2ca8db" d="M4.24,100.2l55.3,20.64L81,189.67a6.51,6.51,0,0,0,10.34,3.12l30.82-25.13a9.19,9.19,0,0,1,11.21-.32l55.6,40.37a6.51,6.51,0,0,0,10.21-3.94L239.86,7.86A6.52,6.52,0,0,0,231.13.45L4.18,88a6.52,6.52,0,0,0,.06,12.2Zm73.26,9.65L185.57,43.28a1.89,1.89,0,0,1,2.28,3l-89.2,82.92a18.47,18.47,0,0,0-5.73,11.06l-3,22.51a2.79,2.79,0,0,1-5.45.4L72.74,122.09a10.87,10.87,0,0,1,4.76-12.24Z"/>
			</g>
</svg>
