<svg xmlns="http://www.w3.org/2000/svg" viewBox="0 0 241.41 249.52">
	<defs>
		<style>.cls-1{fill:#7b519c;}</style>
	</defs>
	<title>viber</title>
			<path class="footer-social" fill="#613683" d="M236,60l-.08-.29c-5.82-23.54-32.07-48.81-56.19-54.06l-.27-.06a312.28,312.28,0,0,0-117.54,0l-.27.06C37.55,10.89,11.3,36.16,5.47,59.7L5.4,60a230,230,0,0,0,0,99.1l.07.29c5.58,22.54,29.88,46.64,53.09,53.27v26.28a10.56,10.56,0,0,0,18.18,7.32l26.63-27.68c5.78.33,11.56.51,17.33.51a313.18,313.18,0,0,0,58.77-5.58l.27-.06c24.12-5.25,50.37-30.52,56.19-54.06l.08-.29A230,230,0,0,0,236,60Zm-21.08,94.33c-3.88,15.36-23.82,34.46-39.66,38a291.11,291.11,0,0,1-62.51,5.05,1.49,1.49,0,0,0-1.11.45L92.21,217.76,71.53,239a2.42,2.42,0,0,1-4.17-1.67V193.78a1.5,1.5,0,0,0-1.22-1.47h0c-15.84-3.53-35.77-22.63-39.66-38a208.73,208.73,0,0,1,0-89.56c3.89-15.36,23.82-34.46,39.66-38a290.72,290.72,0,0,1,109.14,0c15.85,3.53,35.78,22.63,39.66,38a208.42,208.42,0,0,1,0,89.56Z"/>
			<path class="footer-social" fill="#613683" d="M155.16,174.42c-2.44-.74-4.76-1.23-6.91-2.13-22.33-9.26-42.89-21.22-59.17-39.54-9.25-10.42-16.5-22.18-22.63-34.64-2.9-5.9-5.35-12-7.85-18.13-2.27-5.56,1.08-11.3,4.61-15.49A36.38,36.38,0,0,1,75.4,55.33c3.6-1.73,7.15-.73,9.78,2.33a126,126,0,0,1,15.14,21.18c2.6,4.71,1.89,10.46-2.83,13.66-1.14.78-2.19,1.69-3.25,2.57a10.66,10.66,0,0,0-2.46,2.6,7.08,7.08,0,0,0-.47,6.23c5.81,16,15.61,28.4,31.68,35.09,2.58,1.07,5.16,2.31,8.12,2,5-.58,6.57-6,10.06-8.87a9.46,9.46,0,0,1,11.4-.5c3.67,2.32,7.22,4.81,10.74,7.32a122.39,122.39,0,0,1,10.11,7.7c3.08,2.71,4.14,6.26,2.41,9.93-3.17,6.73-7.78,12.32-14.43,15.9-1.88,1-4.12,1.33-6.24,2-2.44-.74,2.12-.65,0,0Z"/>
			<path class="footer-social" fill="#613683" d="M120.77,47.64c29.21.82,53.2,20.21,58.34,49.09.88,4.92,1.19,10,1.58,14.94.16,2.11-1,4.1-3.29,4.13s-3.4-1.93-3.55-4c-.3-4.16-.51-8.33-1.08-12.45a52.2,52.2,0,0,0-42-43.63c-3.26-.59-6.6-.74-9.9-1.09-2.08-.21-4.82-.34-5.28-2.93a3.56,3.56,0,0,1,3.52-4c.56,0,1.13,0,1.7,0,29.21.82-.57,0,0,0Z"/>
			<path class="footer-social" fill="#613683" d="M165.16,105.19a14.28,14.28,0,0,1-.29,2c-.77,2.93-5.22,3.29-6.24.34a8.91,8.91,0,0,1-.36-2.83A35.25,35.25,0,0,0,153.8,87,33.07,33.07,0,0,0,140,74a40,40,0,0,0-11-3.39c-1.66-.27-3.34-.44-5-.68a3.34,3.34,0,0,1,.49-6.67,45.87,45.87,0,0,1,19.14,5c12.12,6.42,19,16.55,21.06,30.08.09.61.24,1.21.29,1.83.11,1.52.18,3,.3,5,0,.37-.12-2,0,0Z"/>
			<path class="footer-social" fill="#613683" d="M147,104.49a3.6,3.6,0,0,1-4-3.55,38.08,38.08,0,0,0-.69-4.67,13.15,13.15,0,0,0-4.85-7.6,12.52,12.52,0,0,0-3.94-1.91c-1.79-.51-3.66-.37-5.45-.81a3.34,3.34,0,0,1-2.71-3.87,3.51,3.51,0,0,1,3.71-2.82c11.32.81,19.42,6.67,20.57,20a9.31,9.31,0,0,1,0,2.84,2.92,2.92,0,0,1-2.61,2.39c-2.45,0,1.11-.08,0,0Z"/>
</svg>
